ply
format ascii 1.0
comment Created by Open3D
element vertex 16
property double x
property double y
property double z
end_header
-3.54388 -2.3458 31.7093
-2.29713 -2.76046 32.2135
-3.42822 -3.75349 32.0902
-2.9825 -0.672574 32.0808
-1.92797 -0.306467 30.9615
-0.823702 -1.43977 31.7658
-1.06498 0.258442 32.367
-1.99518 1.03246 31.6747
-2.95208 -5.86784 32.7809
-3.72139 1.17938 33.0704
-3.4066 -6.32985 31.7047
0.265523 -3.74775 32.2297
-2.93781 2.20048 32.3268
2.02096 -0.468055 31.5479
-2.32354 3.27419 33.2157
3.64885 -1.39578 31.9749
