ply
format ascii 1.0
comment Created by Open3D
element vertex 16
property double x
property double y
property double z
end_header
2.14808 0.968792 39.0647
3.52528 0.279088 39.765
1.66887 2.58231 38.5965
1.48957 -0.384402 37.8063
0.509694 1.69791 38.0722
0.237648 -0.177576 38.1028
1.11223 -1.32906 38.3612
0.287579 3.20632 38.3565
-1.11487 -0.11985 38.5622
-1.46816 0.946587 39.2842
1.12142 4.43217 39.705
2.62559 -3.45654 39.8528
-2.56376 1.1034 38.8344
0.878659 5.61017 39.4377
1.25466 5.71091 37.6968
-2.75227 3.48547 40.1457
