ply
format ascii 1.0
comment Created by Open3D
element vertex 16
property double x
property double y
property double z
end_header
-2.00564 -2.23325 39.3087
-3.17802 -2.60676 38.9258
-4.48053 -1.75629 38.3943
-4.17168 -3.52417 40.2652
-3.16049 -4.56696 40.0397
-2.46242 0.49175 38.0266
-4.62353 0.364534 39.6312
-4.75206 1.60325 38.1774
-1.4983 2.88014 38.1414
-3.6244 3.56103 37.3167
-1.03449 4.17984 38.3055
0.383652 5.70375 38.2878
-4.65552 6.10985 38.7289
-3.18344 6.53981 38.5084
-5.60167 6.15383 39.9229
-6.26818 7.51096 39.7828
