ply
format ascii 1.0           
element vertex 15
property double x           
property double y           
property double z           
end_header
3.45163 -0.925905 40.4106
1.43193 2.29814 39.6522
2.12624 -5.80394 38.0127
3.57509 1.70066 41.2488
2.90054 2.92724 40.4365
0.912961 -5.40609 37.6667
2.13863 -2.00896 38.9448
2.51491 0.888951 39.6653
3.0173 -0.208325 39.515
2.56837 2.23308 39.3282
1.41543 1.17317 39.8769
3.95129 -2.55693 40.7443
0.612235 -6.76533 38.8772
1.60705 3.89533 40.2487
-0.0872224 -2.27847 39.2299
