ply
format ascii 1.0           
element vertex 24
property double x           
property double y           
property double z           
end_header
-2.06976 -8.32923 53.5446
-3.09871 -4.23819 53.9109
-0.262812 -7.75941 54.7314
1.82239 -5.94578 57.0001
-6.69357 -8.83916 51.8337
0.764774 -5.52183 55.9111
-8.40175 -6.74543 50.4058
-4.17192 -8.85554 52.9545
-12.0235 -7.16991 53.1163
-9.54344 -7.9347 51.3648
-6.92103 -6.07758 50.5928
-6.94335 -11.9111 54.4803
-2.48666 -6.19653 53.0189
1.22365 -7.31188 56.5706
-6.75323 -10.8867 53.1261
-6.75764 -7.7591 50.1633
-9.82974 -9.76579 51.7086
-4.55528 -10.0194 54.9365
-3.99394 -5.73987 52.5596
-10.7087 -6.25182 52.1513
-8.12543 -8.63592 51.0848
-1.01049 -5.62777 53.553
-8.12142 -12.3194 53.3496
-1.68085 -3.983 54.4809
