ply
format ascii 1.0           
element vertex 25
property double x           
property double y           
property double z           
end_header
-9.07682 -9.49223 54.3938
-4.68738 -8.02188 53.7317
-14.8666 -4.79277 53.7112
-4.83373 -5.3813 52.2836
-9.85854 -2.14109 51.4672
-9.81662 -5.63747 51.4652
-6.16119 -5.98869 51.617
-5.16985 -6.83835 52.6338
-3.83025 -4.42132 52.943
-12.7174 -11.0059 54.1864
-7.79062 -10.1586 54.9297
-13.8798 -6.61313 52.8324
-11.0067 -4.25354 52.008
-3.57551 -8.24902 55.4983
-7.02856 -4.32183 51.4021
-6.24247 -7.80263 53.2799
-6.52792 -9.53617 54.1618
-8.48676 -6.21537 51.4939
-11.0198 -5.79249 51.93
-7.28116 -7.26827 52.1167
-10.8293 -8.86813 53.3875
-7.47426 -5.75226 51.1386
-2.01669 -7.79878 54.7494
-11.6105 -6.81452 53.4841
-8.29179 -2.94979 51.803
