ply
format ascii 1.0           
element vertex 26
property double x           
property double y           
property double z           
end_header
-12.9614 -9.30873 51.418
-11.9519 -6.83192 49.6243
-9.76801 -7.8038 51.2137
-13.2274 -4.67899 50.07
-6.81149 -6.54858 50.4391
-7.62238 -8.24302 51.4761
-14.1056 -9.86125 52.3116
-10.9106 -6.33392 51.3616
-6.40906 -3.75625 50.5044
-11.6937 -4.43436 49.6273
-8.90954 -9.45944 51.5718
-10.1438 -10.002 52.577
-7.30715 -5.09681 50.281
-4.58513 -7.7775 51.862
-8.01764 -10.2115 52.8674
-4.80123 -8.78394 53.1832
-9.72912 -4.07474 50.241
-14.8784 -6.42919 51.3782
-3.353 -7.36538 52.7335
-8.42327 -7.05775 50.3875
-5.8726 -8.08648 50.8951
-3.55901 -6.25072 51.3731
-11.7897 -9.60424 52.6099
-4.80985 -3.84547 50.2555
-2.70173 -5.57857 52.7613
-3.38996 -4.58639 51.0795
