ply
format ascii 1.0           
element vertex 31
property double x           
property double y           
property double z           
end_header
-5.15558 -3.86758 52.9182
-6.68724 -4.03723 52.7547
3.25873 -9.42414 57.3403
-9.07232 -6.11416 53.4499
-1.08944 -1.16314 55.926
1.95911 -2.3511 57.2883
-1.63736 -8.26992 54.1219
-11.6146 -10.4357 54.8816
-10.2332 -10.7854 55.6879
-6.85351 -7.12638 51.8488
-3.80031 -6.37969 52.4341
-10.4312 -3.01232 54.9581
0.736112 -7.3057 55.6227
-13.8484 -11.2713 54.7591
0.149685 -5.86415 55.8062
2.71235 -3.67311 56.7807
-4.47742 -2.58695 55.5544
0.504772 -4.16766 56.4978
-13.2124 -8.65756 55.3663
-4.51463 -8.80189 51.9836
-7.38391 -1.74628 53.5526
-10.1412 -8.58009 53.4159
0.110404 -2.82987 55.6292
0.134624 -12.098 56.5627
-8.2918 -11.9297 55.2618
-8.00583 -4.78601 52.2325
-11.1502 -9.71841 53.4488
-12.7165 -5.76614 53.7235
-6.70044 -10.698 52.5451
1.41672 -0.112633 56.3226
-5.26114 -7.12222 52.0459
