ply
format ascii 1.0           
element vertex 24
property double x           
property double y           
property double z           
end_header
-4.07063 -5.13546 55.0725
-10.0365 -8.04743 53.7584
-14.2495 -7.58532 55.4268
-10.8512 -5.13876 53.7647
-6.93644 -4.64775 53.4396
-7.54182 -11.9181 56.464
-11.0907 -5.60824 52.201
-10.7853 -2.29701 52.6626
-11.1439 -7.89546 52.5566
-8.41132 -6.16334 54.1492
-8.26495 -7.7145 55.3337
-11.6615 -12.6561 55.3585
-8.89683 -12.826 55.366
-7.07793 -2.63896 53.4602
-11.0278 -9.47067 54.3321
-13.9584 -10.8978 52.9648
-5.60559 -4.98902 54.3392
-11.8209 -11.1254 54.0155
-13.5562 -5.59558 54.2915
-10.3349 -11.8388 54.3568
-5.78742 -1.88841 54.4382
-13.3029 -12.1178 54.1674
-5.26192 -7.28632 55.1906
-9.34258 -9.05483 54.916
