ply
format ascii 1.0           
element vertex 24
property double x           
property double y           
property double z           
end_header
-3.74925 -2.48502 56.6425
-5.67668 -10.002 56.9996
-4.86551 -5.1602 54.9469
-8.2635 -11.9765 56.751
-7.29002 -10.9427 56.0322
-7.92034 -10.0353 54.878
1.3816 -5.29529 58.5543
-5.4069 -6.80898 54.7392
-6.54976 -7.92179 56.2148
-2.98219 -4.65953 56.2506
-9.10459 -9.13394 53.6073
-0.178296 -3.09238 56.958
-8.74388 -3.06065 53.7571
-5.1175 -11.7316 57.4116
-0.88908 -5.7079 58.604
0.996699 -3.25271 58.4276
-7.64304 -5.57018 53.832
-11.2258 -10.597 55.3145
-6.34073 -12.2538 56.3858
-3.46206 -5.61011 57.175
-10.4403 -10.3031 53.5814
-7.28979 -12.9633 57.3096
-10.0489 -5.53411 55.407
-5.70152 -4.41844 53.8475
