ply
format ascii 1.0
comment Created by Open3D
element vertex 15
property double x
property double y
property double z
end_header
0.0199805 1.64803 37.4315
-0.7793 2.67868 37.0507
-1.01791 1.44387 36.3822
1.00363 0.18778 37.0826
-1.83182 2.89963 36.3748
-1.79827 0.548298 35.701
-2.33744 1.67883 35.9866
0.341999 -0.602911 35.411
1.44292 -0.898826 36.3438
1.30987 -1.99635 37.6814
-0.772974 -2.25154 34.4543
0.432955 -4.43118 36.8956
-1.92064 -3.30403 34.3523
-0.276515 -5.07609 35.4084
-2.20189 -4.59815 35.014
