ply
format ascii 1.0           
element vertex 27
property double x           
property double y           
property double z           
end_header
-23.823 -11.9947 55.6834
-20.4049 -12.7449 55.1782
-14.0878 -8.62203 53.7429
-19.0877 -11.1209 54.225
-21.2288 -11.916 54.6008
-16.9955 -13.2997 56.2219
-20.2143 -11.5158 54.5739
-23.5915 -10.6689 55.2484
-16.3457 -10.4081 53.7969
-10.3754 -8.18441 54.3018
-12.4633 -13.4218 56.4402
-10.3834 -12.2762 57.6071
-21.7738 -10.7567 54.6491
-14.1244 -11.2405 54.566
-10.7176 -6.15755 54.921
-21.2968 -13.7677 55.4636
-15.6944 -8.78303 54.2547
-9.2481 -8.68791 55.277
-13.5323 -10.2567 54.2347
-19.2647 -12.7309 55.2047
-12.4828 -8.5939 53.1141
-9.21253 -7.09009 55.0788
-15.1297 -11.0027 53.7748
-11.4497 -7.27566 54.6074
-10.2934 -11.1836 56.6117
-17.1346 -11.414 53.9985
-10.251 -9.98373 55.5373
