ply
format ascii 1.0           
element vertex 14
property double x           
property double y           
property double z           
end_header
-11.5939 -2.36077 62.7247
-8.35559 -4.28934 61.6518
-5.63764 -1.95232 64.0636
-3.97433 -3.56396 64.1293
-10.5754 -1.39398 63.634
-13.1179 -5.35114 62.1168
-3.79171 -1.84092 64.2146
-13.7888 -4.29739 63.2201
-5.24312 -3.2126 63.2005
-7.60835 -1.40421 64.7072
-5.97109 -4.57996 62.7552
-7.18569 -3.61498 62.0161
-12.5824 -1.75575 63.7933
-4.76605 -5.12274 63.9482
