ply
format ascii 1.0           
element vertex 23
property double x           
property double y           
property double z           
end_header
-11.5648 -4.86366 56.3405
-1.41016 -5.43094 57.7829
-3.70655 -4.85074 56.2656
-6.75363 -2.91802 56.9398
-11.9281 -1.78701 59.8926
-9.19066 -3.99551 55.8525
-5.80555 -2.34309 58.7388
-8.56105 -2.48654 57.6405
-5.29437 -4.11735 56.4653
-10.1053 -0.958995 60.741
-10.8124 -1.79417 59.0343
-3.97095 -8.27527 55.9848
-7.72667 -7.2259 54.4937
-10.1537 -3.01313 57.8126
-8.61799 -5.61133 55.1622
-3.18331 -6.36179 55.6361
-7.48461 -4.03425 55.7653
-10.1995 -5.79007 54.8947
-1.38669 -6.48834 55.552
-2.58127 -7.93259 55.2758
-0.52808 -8.63019 55.7315
-6.12981 -5.42145 55.0904
-7.03352 -1.13764 59.3164
