ply
format ascii 1.0           
element vertex 20
property double x           
property double y           
property double z           
end_header
-7.00215 -1.44215 61.4403
-5.90613 -5.12178 58.5968
-8.66822 -3.47632 59.3455
-12.4758 1.90654 61.9691
-3.54862 -4.98505 59.9374
-8.28434 -2.01602 59.8148
-9.68498 -4.2729 59.8788
-11.9057 -4.41538 58.967
-13.4149 -3.86123 59.506
-10.8089 -0.605408 60.3008
-10.7506 -4.80818 59.4048
-8.21678 -0.943745 62.5023
-4.75085 -3.99497 58.9753
-3.99013 -3.57723 60.2518
-9.66093 -2.57757 60.2235
-5.75294 -3.61258 61.5565
-7.26627 -3.1039 59.7192
-10.7604 1.20643 62.5654
-14.9832 -0.0807389 62.6829
-2.55388 -4.35798 60.6008
