ply
format ascii 1.0           
element vertex 19
property double x           
property double y           
property double z           
end_header
-15.5446 -9.93013 50.6125
-10.4628 -6.13544 52.2893
-18.0339 -7.67049 49.5734
-11.7017 -10.6618 54.104
-15.3263 -8.09875 50.5463
-18.88 -7.7032 48.5975
-19.4871 -10.6744 49.0772
-14.0009 -11.0654 53.5953
-14.0158 -7.17096 51.5231
-8.82186 -6.89614 54.2034
-11.7687 -9.55103 52.615
-13.9366 -9.57486 53.3433
-9.37614 -6.822 52.9062
-10.8767 -9.46555 54.4278
-19.9513 -8.0187 48.2434
-8.3784 -8.48993 54.6872
-19.9975 -8.98635 47.5517
-15.4871 -11.9479 52.3806
-14.2747 -10.8967 51.2143
