ply
format ascii 1.0           
element vertex 20
property double x           
property double y           
property double z           
end_header
-4.69366 -1.9476 25.307
-4.40496 -1.6208 21.5548
-4.03501 -0.282355 31.7709
-2.5906 -0.485186 19.8663
-3.9596 -1.36146 23.1545
-2.69635 -0.989712 23.5782
-3.16971 -0.605462 29.1
-5.84315 0.0161278 32.4151
-2.39014 -0.861621 29.5144
-3.10971 -2.87881 61.2147
-2.08455 -2.45533 37.5321
-2.77204 -2.70006 36.5438
-2.89355 -1.93586 29.0196
-3.14245 -1.5421 25.0229
-3.36799 -1.32654 21.9136
-3.33398 -0.785421 20.8979
-2.32472 -0.00733663 15.0824
-6.1198 -0.651838 36.6609
-1.92332 -1.326 27.35
-5.08132 -1.53658 22.6574
