ply
format ascii 1.0           
element vertex 16
property double x           
property double y           
property double z           
end_header
-12.7028 -3.74532 64.1222
-10.9607 -2.44239 63.7885
-7.18328 -0.671979 65.1672
-8.4654 -3.29177 64.579
-8.73889 -1.36356 65.0342
-14.2142 -2.10498 64.5927
-12.8172 -0.0835155 64.2765
-13.714 -5.14333 64.7117
-10.4703 0.0382567 64.8033
-11.6447 -0.764076 65.1298
-14.7061 -4.30709 65.5635
-13.0498 -2.07582 64.5494
-12.1704 -1.35217 64.0002
-6.86338 -2.99015 64.1689
-9.7691 -2.73867 64.3126
-9.70964 -0.486233 66.0868
