ply
format ascii 1.0           
element vertex 20
property double x           
property double y           
property double z           
end_header
-3.77082 -5.32872 58.9164
-5.00368 -2.45631 59.0999
-12.008 -2.23405 58.4852
-13.3686 -0.748032 60.8065
-13.776 -2.07261 59.8038
-0.547597 -3.01761 59.5868
-8.77198 -1.66379 57.1108
-9.34688 -0.643595 58.1458
-13.3016 -3.31419 58.4607
-3.58347 -3.03556 58.8767
-12.3378 -1.25168 59.6595
1.39149 -7.10972 62.007
-8.82209 -6.682 57.8963
-5.86864 -7.33899 59.9315
1.7414 -4.2457 61.9872
-6.40483 -4.34165 57.8007
-5.51594 -1.16595 60.4777
-1.01856 -1.79032 60.9957
0.492532 -2.66907 60.7726
2.68848 -5.31833 62.8849
