ply
format ascii 1.0           
element vertex 18
property double x           
property double y           
property double z           
end_header
-14.8914 -4.13993 64.3405
-9.68519 -2.77898 63.6229
-16.6514 -6.28759 61.8089
-4.53344 -6.36067 61.0581
-5.5986 -3.16404 62.9659
-16.0379 -2.50835 64.7719
-14.2976 -0.991924 66.3979
-19.1337 -7.33407 61.0077
-14.1143 -1.94454 65.0684
-19.1324 -6.29168 64.0373
-20.3361 -3.15212 64.8965
-6.67331 -2.23248 63.2393
-17.4684 -1.69187 64.3557
-17.5448 -7.34349 61.0947
-18.8539 -3.72269 63.9985
-2.65695 -5.83356 61.7894
-7.5624 -3.49826 62.6226
-8.15243 -1.27777 64.2635
