ply
format ascii 1.0           
element vertex 15
property double x           
property double y           
property double z           
end_header
-11.1671 -3.80065 39.0706
-9.14578 -2.60755 39.4333
-11.6696 -1.95635 38.4789
-7.20969 -1.28954 38.7388
-5.56886 0.807833 41.4644
-7.69692 -2.71035 39.7355
-4.59897 0.133116 42.7672
-10.5715 -0.506555 38.7066
-8.35201 -3.45547 38.9811
-7.71786 -0.591556 39.5846
-5.72291 -2.31314 40.8092
-8.22349 -1.70071 38.4818
-5.0909 -1.18445 40.0548
-6.1318 0.339314 39.8211
-5.17687 -0.211451 40.6565
