ply
format ascii 1.0           
element vertex 25
property double x           
property double y           
property double z           
end_header
-14.9712 -2.87342 66.8684
-16.4292 -2.25837 67.1376
-14.7012 -4.65344 64.2427
-19.83 -4.07888 68.7272
-12.2841 -3.19179 66.4909
-7.32247 -4.883 63.8792
-13.6088 -3.12731 65.5498
-16.1088 -2.04533 70.0982
-19.0919 -4.84697 67.5425
-17.8947 -1.09031 69.0688
-4.25647 -5.12154 65.4304
-5.02209 -8.36235 64.6717
-8.95271 -7.94497 61.2874
-12.9031 -6.89465 62.0682
-18.8877 -2.39454 69.4661
-6.0931 -6.18987 63.5785
-10.5682 -7.70627 60.769
-3.46372 -6.94497 66.034
-17.7016 -4.84664 66.6198
-17.6369 -1.97895 67.8249
-12.356 -8.09402 60.9805
-5.75271 -4.02429 66.0244
-7.29647 -3.8882 66.717
-6.06241 -7.92087 63.3783
-12.8808 -4.35645 64.4895
