ply
format ascii 1.0           
element vertex 23
property double x           
property double y           
property double z           
end_header
-7.99446 -1.87607 63.6713
-13.442 -3.69629 61.2687
-14.432 -1.96159 63.4876
-10.3957 -7.62488 60.4342
-17.1504 -1.84723 64.7785
-14.7944 -1.2511 61.7308
-14.8044 0.577323 64.5804
-14.5825 -2.95585 60.4344
-12.0162 -2.52424 62.6535
-8.98179 0.582987 67.7039
-12.9358 -0.379811 63.1783
-11.5854 -4.27409 62.515
-14.2587 -7.94276 59.2786
-11.694 -7.6334 58.9809
-11.2153 0.355319 64.5173
-14.0968 -5.13472 60.6696
-14.7247 -6.07501 59.4208
-13.2388 -6.53816 59.0769
-9.93944 0.35234 65.6344
-16.0003 -7.03848 58.9246
-8.91524 -3.49725 62.6686
-16.8542 -0.450236 65.4676
-12.5534 -5.02258 61.3946
