ply
format ascii 1.0           
element vertex 15
property double x           
property double y           
property double z           
end_header
-4.95584 -2.94837 15.5713
-6.99533 -2.95509 20.9875
-2.70035 -1.58497 10.0554
-8.89025 -6.353 30.5576
-3.58353 -1.86568 15.0106
-2.01372 -1.89143 9.35512
-2.37128 -1.69647 10.9759
-2.86182 -2.02781 11.03
-1.88143 -1.49228 8.21538
-7.57665 -3.12151 24.2427
-2.91251 -2.37125 12.0128
-13.3198 -6.64531 35.0358
-5.65888 -3.15204 16.3433
-5.57371 -2.66948 16.3034
-2.8627 -1.53443 11.2374
