ply
format ascii 1.0           
element vertex 34
property double x           
property double y           
property double z           
end_header
-0.261929 -0.0283314 1.39731
-0.367033 -0.215414 1.30346
-0.359197 -0.0159051 1.4102
-0.314743 -0.0750159 1.36222
-0.0278598 -0.108197 1.36375
-0.417275 -0.107599 1.31449
-0.283322 -0.233353 1.30514
-0.165746 -0.137368 1.35258
-0.297902 -0.266076 1.28999
-0.187297 -0.0521652 1.37161
-0.401484 -0.229323 1.309
-0.0644586 -0.0453165 1.38795
-0.217186 -0.0303783 1.39945
-0.321433 -0.0136118 1.39057
-0.398091 -0.0116884 1.40983
-0.285799 -0.187363 1.32353
-0.241737 -0.245511 1.28462
-0.323509 -0.240213 1.3011
-0.169552 -0.0343673 1.40303
-0.128861 -0.0601234 1.38543
-0.410949 -0.0947725 1.35231
-0.404381 -0.0352015 1.37935
-0.430097 -0.0602286 1.38538
-0.278847 -0.0623514 1.35416
-0.100926 -0.057316 1.40967
-0.248533 -0.0674257 1.37153
-0.34893 -0.0737995 1.3495
-0.297858 -0.114193 1.33728
-0.127241 -0.117853 1.35793
-0.254714 -0.108267 1.33378
-0.20198 -0.131393 1.33651
-0.177045 -0.0843986 1.37959
-0.090748 -0.0919583 1.3634
-0.370882 -0.155453 1.3136
