ply
    format ascii 1.0           
    element vertex 29
    property double x           
    property double y           
    property double z           
    end_header
-0.000259954 -0.0011854 0.0222663
-0.00213356 -0.00306501 0.0361413
-0.00498549 0.00168513 0.0315211
0.000511396 0.00527732 0.0724035
-0.0118339 0.0229404 0.236943
-0.0108377 -0.00284409 0.0433426
-0.00587785 0.00384029 0.0501392
0.00540049 -0.00323394 0.0682694
-0.00557341 -0.00112489 0.0268006
-0.0081485 0.00137774 0.0410935
0.00209352 -0.00460366 0.0498898
-0.00195057 -0.00134835 0.0207846
-0.00643405 -0.00328378 0.0331606
0.000745126 -0.000486386 0.0280593
0.974579 2.22666 25.0281
-0.00423198 0.00218142 0.0404078
-0.00920927 -0.000260558 0.0372478
-0.000763693 0.00180337 0.0325089
-0.00334056 -0.000340999 0.0206104
-0.00126191 -0.00561245 0.0584377
0.013358 0.00572912 0.0366744
-0.00197957 0.00021356 0.0316377
0.000739187 -0.00244312 0.0272961
0.0125254 -0.000928844 0.0309388
-0.00785445 -0.00422635 0.0428264
-0.00420085 0.00123984 0.0266067
0.000413167 0.00347597 0.0518762
-0.0204477 -0.0329564 0.15086
-0.00242826 0.000595846 0.0237474
