ply
    format ascii 1.0           
    element vertex 53
    property double x           
    property double y           
    property double z           
    end_header
0.00147404 0.0132621 0.0597983
-0.00252948 -0.00711621 0.0556951
0.00199658 0.0150342 0.057586
0.151802 -0.0642691 0.83514
-0.21358 0.125629 -2.8888
0.126171 0.0363511 0.938552
0.000222302 -0.00631727 0.0707401
0.00334182 0.00897233 0.0573147
-0.00576149 -0.00339127 0.0536493
5.68791e-05 0.00891095 0.0530331
-0.862506 -0.42904 -6.05779
0.00653437 0.00870988 0.0753563
-0.00348829 0.00213773 0.0566167
-0.00124781 0.014771 0.0632751
0.00437047 0.0126385 0.0615975
0.00262955 0.0078581 0.0563733
-0.00108766 0.00201438 0.0397746
-0.00297055 0.00929496 0.0528334
-0.0036603 0.00752836 0.0663488
-0.00369276 0.0161096 0.0641326
0.176722 0.0269081 0.933226
0.0087123 -0.0006981 0.0577592
0.00812899 -0.00380633 0.0595368
-0.547043 -0.0582645 -2.63584
0.000426825 0.0193557 0.0688253
0.00524688 0.00767046 0.0786463
0.00850792 0.0012284 0.063913
0.00564167 -0.00941091 0.0617478
-0.86598 0.600565 -4.7993
-0.00295412 -0.00190291 0.0662972
0.0041466 -0.000681924 0.0543292
-0.00546136 -0.00600883 0.0548186
0.0114301 -0.00236036 0.0591623
-0.000691141 0.00689217 0.0669677
-0.0020416 0.0168888 0.0581449
-0.00652918 0.0082445 0.0643133
0.000239705 -0.00767498 0.0674723
0.00618269 0.0043254 0.0604117
-0.00566072 -0.0011972 0.0562228
-0.00462779 0.00158861 0.0548739
0.0072029 -0.00818091 0.064381
-0.00111919 0.0124193 0.0539942
0.00162191 0.00458751 0.0494829
-0.00194647 -0.00530474 0.0582246
0.00847025 0.00200164 0.0614686
0.029311 -0.00292248 0.0276323
0.0274829 -0.0037105 0.024423
0.0487403 -0.00646432 -0.00304094
0.00591467 0.0103305 0.049822
0.025734 0.001193 0.0247859
0.0300999 -0.00480521 0.0253384
0.0346833 -0.00453785 0.0168322
0.023359 0.000168235 0.0317678
