ply
    format ascii 1.0           
    element vertex 52
    property double x           
    property double y           
    property double z           
    end_header
-0.288978 -0.472373 2.01598
-0.0261572 -0.468543 1.82212
0.413225 -0.208946 1.9723
0.225964 -0.255399 1.9587
-0.334686 -0.386064 1.94348
0.187335 -0.516785 1.94539
0.394514 -0.290005 1.89289
-0.172206 -0.163671 1.89581
-0.0787209 -0.560567 1.94104
-0.410161 -0.418558 2.03828
-0.174332 -0.526861 1.94915
0.497818 -0.287502 1.95427
0.377575 -0.480481 1.96629
0.110896 -0.316612 1.90082
0.0644427 -0.211139 1.91562
-0.0455078 -0.189189 1.8683
-0.253255 -0.375576 1.86069
0.140355 -0.232269 1.9759
0.452854 -0.39363 1.93583
0.253886 -0.453908 1.8846
-0.187184 -0.43837 1.81378
-0.218674 -0.262717 1.85846
0.0811931 -0.539993 1.95641
0.0703144 -0.432014 1.87498
0.204043 -0.326982 1.91077
-0.0960206 -0.383157 1.7849
0.00647253 -0.133641 1.98454
0.286088 -0.317763 1.86511
-0.252965 -0.127104 1.96969
-0.414203 -0.293053 1.99419
-0.325711 -0.283935 1.88027
0.154433 -0.421481 1.91208
0.345167 -0.401242 1.89049
0.312055 -0.221209 1.92227
-0.0881405 -0.103498 1.97681
-0.18836 -0.308691 1.7756
-0.0931305 -0.250542 1.78424
0.556131 -0.364114 2.05502
-0.352427 -0.186441 1.96571
0.005366 -0.361714 1.80425
0.304936 -0.18389 2.02799
0.474597 -0.454888 2.05639
0.276034 -0.514367 1.99141
-0.00835847 -0.511225 1.906
-0.10439 -0.457264 1.8739
0.214809 -0.554005 2.06915
0.00191725 -0.512923 2.09985
0.107411 -0.517562 2.14041
-0.380484 -0.411025 2.17783
0.370995 -0.43369 2.11338
-0.193691 -0.439459 1.92803
0.150786 -0.528634 2.04459
