ply
    format ascii 1.0           
    element vertex 31
    property double x           
    property double y           
    property double z           
    end_header
-0.000296135 -0.00139091 0.02579
-0.00249375 -0.00364728 0.0426096
-0.00574663 0.0019141 0.0361012
0.000512358 0.00635804 0.0874621
-0.0213721 0.0415934 0.42872
-0.0138362 -0.00360589 0.0556218
0.00639575 -0.00387767 0.0807225
-0.00677488 -0.0013462 0.0326391
-0.0102063 0.00173958 0.0517251
0.0025446 -0.00550004 0.0593095
-0.00228159 -0.00159525 0.0242944
-0.00781478 -0.00400862 0.0405141
0.000870982 -0.000573412 0.0329217
0.961611 2.19531 25.0286
-0.00506351 0.00261704 0.0484775
-0.0115116 -0.000305253 0.0467788
-0.000904868 0.00211018 0.0383499
-0.00400012 -0.000388554 0.0246242
-0.00150463 -0.00684723 0.0712539
0.014068 0.00596849 0.0381053
-0.00261878 0.000464993 0.0436259
0.000883983 -0.00286012 0.0314393
0.0117394 -0.00124298 0.0275191
-0.00455554 -0.00435652 0.0367154
-0.00975435 -0.00520057 0.0535547
-0.00514805 0.0015043 0.032349
0.000480729 0.00406727 0.0613271
-0.0027198 0.000413566 0.0434287
-0.0190785 -0.0314263 0.140769
-0.00639729 0.0117587 0.133619
-0.00291953 0.000680912 0.0287977
