ply
    format ascii 1.0           
    element vertex 54
    property double x           
    property double y           
    property double z           
    end_header
-5.31656 0.788896 12.2406
-3.32553 0.821652 12.0324
-2.12787 -0.453954 11.9019
-3.70691 1.04201 12.3888
0.244327 1.8958 12.2644
0.675728 0.2319 11.987
-4.44198 0.838464 12.7496
-1.19419 0.255354 10.8744
-4.24781 0.933022 12.0958
-3.75258 -0.955505 12.2869
-3.58923 -0.316552 12.086
-0.900381 0.457033 11.4212
0.651583 -0.436291 11.754
-1.64956 -1.06246 11.7203
-1.58778 1.52497 11.074
-0.963533 1.24841 10.6309
-0.23233 0.153941 11.0592
-4.8122 0.211312 11.9826
-0.891105 -0.929315 12.681
-1.77781 0.72169 10.9962
-1.77954 -0.000585946 11.3239
-4.63044 -0.569477 11.9929
-0.863916 1.78134 11.3013
-2.11184 1.05772 11.5082
-0.0968194 1.56836 11.3091
-2.99643 -1.14373 12.0206
-3.40405 0.192318 11.68
-0.0933708 -0.798706 11.722
-4.85695 1.08449 11.9246
-2.58461 0.213394 11.6248
-0.904171 -0.872845 11.7843
-2.23725 -1.04264 12.4555
-2.61877 -1.07004 13.0168
-0.542023 -0.354092 11.5491
-0.0809934 -0.901229 12.3026
-4.14393 -0.192458 12.3812
-5.45045 0.420376 12.9267
0.988148 0.843586 12.7678
-4.54814 -0.661778 12.9386
6.35593 -5.11267 14.2612
-0.87496 0.433877 11.419
-0.0979172 -0.821274 11.7699
-3.69675 1.10743 12.3432
-0.845778 1.74534 11.1334
0.693123 0.237747 12.183
-4.78194 1.39129 13.3745
0.882629 1.63589 12.9599
-5.46877 0.900987 12.5226
-2.08582 1.06425 11.5047
-0.0531891 2.21255 13.2228
-4.4896 -0.496829 12.8523
-2.68058 0.844696 12.1234
-4.45828 1.18814 12.3995
-6.16144 -0.654594 13.4586
