ply
    format ascii 1.0           
    element vertex 52
    property double x           
    property double y           
    property double z           
    end_header
-0.228624 -0.373741 1.59849
-0.02139 -0.370832 1.44606
0.327865 -0.165835 1.56385
0.179304 -0.202542 1.55564
-0.265671 -0.305878 1.5404
0.148707 -0.409985 1.5432
0.313368 -0.229918 1.5021
-0.136569 -0.130022 1.5008
-0.0623947 -0.443806 1.53958
-0.325612 -0.331462 1.6165
-0.138377 -0.417696 1.54566
0.395337 -0.226595 1.55124
0.298885 -0.381262 1.55862
0.0881155 -0.251114 1.50572
0.0511401 -0.166817 1.5183
-0.0355975 -0.149982 1.47735
-0.200575 -0.297531 1.47602
0.110665 -0.184354 1.56353
0.359342 -0.311416 1.53499
0.201146 -0.360588 1.49298
-0.148636 -0.347449 1.43809
-0.172382 -0.20804 1.47027
0.0640093 -0.428858 1.55054
0.0558997 -0.342437 1.48742
0.161139 -0.259587 1.51178
-0.0761301 -0.304018 1.41477
0.00558195 -0.106113 1.57384
0.226814 -0.251279 1.47694
-0.200019 -0.101673 1.55555
-0.328421 -0.232288 1.58031
-0.258568 -0.224634 1.49135
0.122301 -0.333901 1.51665
0.273704 -0.318123 1.49891
0.24747 -0.175235 1.52391
-0.0693075 -0.0829412 1.55994
-0.149154 -0.244927 1.40783
-0.0738442 -0.198367 1.41351
0.440862 -0.289034 1.6283
-0.279988 -0.14795 1.55764
0.00448356 -0.286669 1.43011
0.241779 -0.146094 1.60458
0.375667 -0.359813 1.63092
0.218268 -0.40745 1.5781
-0.00677326 -0.405048 1.51206
-0.0825215 -0.362447 1.48637
0.172025 -0.435154 1.64974
0.00209189 -0.402922 1.67104
0.0849488 -0.405963 1.70295
-0.302653 -0.320584 1.73245
0.295853 -0.34199 1.68135
-0.154608 -0.345881 1.53179
0.118633 -0.42039 1.61693
