ply
format ascii 1.0
comment Created by Open3D
element vertex 13
property double x
property double y
property double z
end_header
-0.151996 -0.0402777 1.30295
-0.125555 -0.00407237 1.30206
-0.146191 -0.0900666 1.30013
-0.09348 -0.052147 1.31076
-0.1181 0.0278386 1.33079
-0.0659614 -0.0361349 1.34747
-0.0663477 0.0122848 1.31721
-0.0544345 -0.0768992 1.29672
-0.114027 -0.132562 1.37161
-0.0914981 0.0719643 1.32118
-0.0260948 -0.0102747 1.32888
-0.199293 -0.159866 1.34087
-0.026747 0.0339959 1.31499
