ply
    format ascii 1.0           
    element vertex 55
    property double x           
    property double y           
    property double z           
    end_header
3.68811 -5.39178 57.5983
-0.00552005 0.00374242 -0.30833
0.065142 -0.0028528 -0.379351
0.0486587 -0.0270898 -0.220968
0.0450508 -0.00587545 -0.346545
0.00633412 0.0239061 -0.37929
0.0168012 -0.0173808 -0.184753
0.0292823 -0.0323449 -0.296703
0.0528759 0.0129375 -0.287716
0.0195914 -8.45061e-05 -0.151728
0.0103202 0.0556348 -0.502137
0.0318211 0.0467318 -0.280768
0.0655849 0.00484276 -0.314853
0.0751658 -0.019409 -0.374085
-0.0125236 0.00379509 -0.235673
0.0517307 -0.0283464 -0.289539
0.00985586 -0.0207651 -0.232854
0.0112485 0.0140723 -0.0877278
-0.000389647 0.0208434 -0.16437
0.00985886 0.0233476 -0.163604
0.011014 0.0073536 -0.06938
1.7609 -0.0823932 -6.23729
-0.0312413 0.0499665 -0.83786
0.0523749 -0.0238533 -0.195137
0.0912681 0.00541035 -0.299207
1.77166 -0.387686 -6.67225
0.00767419 -0.00263679 -0.130924
0.0343677 -0.0210786 -0.303993
-0.0173136 -0.0091088 0.103551
0.0660895 -0.0262143 -0.287277
0.014902 0.0198879 -0.264383
-0.0175146 0.0303308 -0.273286
-0.016616 -0.00850542 0.0831145
-0.0146748 -0.00790454 0.111709
-0.0105514 0.00252242 0.183671
0.00678246 0.00388596 -0.0332953
0.0892 -0.00341166 -0.249943
0.0327276 -0.0275413 -0.213309
2.78562 -0.364152 -8.74028
0.0556592 -0.0191892 -0.368991
0.0275063 0.0410126 -0.349697
0.00428176 0.0106942 -0.078846
0.0755706 -0.0167385 -0.277355
3.02839 -0.211444 -8.82439
0.0425567 0.00383377 -0.273511
0.0848596 0.00543216 -0.245064
0.0296328 -0.00838992 -0.0928222
0.00594163 -0.000757449 -0.0371196
0.0414604 0.209931 -1.44034
0.00490779 -0.00524401 -0.0460955
0.00979867 -0.00249332 -0.0268064
0.0208278 -0.00501436 -0.135621
0.0107952 0.0265661 -0.270105
0.0606086 -0.0161971 -0.219741
0.00474624 -0.00109311 -0.0121122
