ply
    format ascii 1.0           
    element vertex 34
    property double x           
    property double y           
    property double z           
    end_header
-0.81971 1.35034 2.96074
-0.854038 1.11676 3.20642
-0.848295 1.23898 3.06022
-0.699769 1.42908 2.80664
-0.766036 1.33887 3.04382
-0.689788 1.11198 3.29009
-0.856865 0.970655 3.38
-0.609443 1.38713 2.96522
-0.46828 1.38443 2.9109
-0.481743 0.629369 2.70026
-0.930159 1.21134 3.73731
-0.597233 0.870951 2.4203
-0.565817 1.45228 2.77947
-0.518618 1.51538 2.67227
-1.07697 1.45181 6.14118
-0.450213 0.838132 2.8625
-0.490518 1.45495 2.80255
-0.702206 1.10892 4.21728
-0.564516 1.26511 2.68275
-0.465171 1.26853 3.16949
-0.914202 0.6819 3.51074
-0.698575 0.894031 3.56782
-0.685044 0.663512 3.38609
-0.60261 1.48434 2.69255
-0.346128 0.69071 2.85821
-0.786349 1.45036 2.95904
-0.960192 1.11919 3.49525
-0.606286 1.25033 3.14174
-0.486295 1.04618 2.97075
-2.15927 2.63577 10.5676
-0.463352 1.47625 2.65642
-2.39398 2.74542 14.4017
-0.205457 0.56154 1.00048
-2.0163 2.45284 15.3276
