ply
    format ascii 1.0           
    element vertex 65
    property double x           
    property double y           
    property double z           
    end_header
-0.586771 1.03275 1.89316
-0.468411 1.12031 1.83171
-0.62817 0.55111 1.91217
-0.52569 1.0091 1.80219
-0.61439 0.788284 1.96324
-0.455804 0.925935 1.95218
-0.441629 1.12556 1.88547
-0.332453 0.628828 2.01937
-0.288825 0.603393 2.04117
-0.522746 0.636167 1.98582
-0.227816 0.471274 2.0967
-0.195563 0.375149 2.06852
-0.416333 0.651145 1.70252
-0.432258 0.241505 1.92356
-0.355351 0.281001 1.97951
-0.512614 1.02949 1.93459
-0.608325 0.688751 1.9712
-0.418162 0.905892 1.97964
-0.424837 1.01779 1.95362
-0.445445 1.07024 1.91223
-0.593685 0.440939 1.91843
-0.231213 0.319504 2.08819
-0.326573 0.566098 2.01996
-0.572103 0.328529 1.8886
-0.52078 0.178505 1.81903
-0.717593 0.924803 2.33
-0.242509 0.407786 2.34004
-0.477642 0.187638 1.86267
-0.535535 0.959532 1.96622
-0.394609 0.813937 2.02137
-0.462945 0.306549 1.96351
-0.367049 0.516044 2.0265
-0.4812 0.907427 1.86658
-0.414993 0.698314 2.00177
-0.430905 0.710768 2.02476
-0.243922 0.381579 1.98525
-0.338803 0.67901 1.31398
-0.622478 0.87585 1.9622
0.124098 1.59304 0.403053
-0.618923 0.5809 1.86534
-2.11949 -0.840303 4.84365
3.6319 6.28009 -7.46759
-32.7621 -30.1536 66.3133
4.79374 7.25067 -9.41823
-0.619961 -0.0825114 2.15384
0.261811 0.883229 1.10045
0.123843 1.42005 0.634709
-0.352719 0.249897 1.99241
-0.544847 0.608357 2.05048
-0.870794 0.55219 2.91542
-1.09787 0.48038 3.69653
-1.23848 -1.02747 3.25245
-0.378963 1.00521 1.78285
-0.420709 0.820136 2.015
-0.232794 0.6003 2.07229
-0.328567 0.635549 2.06234
-0.29054 0.271454 2.01587
-0.519805 0.362402 2.24493
-0.548398 0.16939 1.84748
-0.587606 0.821659 1.87213
-0.340719 0.749045 2.03322
-0.353137 0.444699 2.01574
-0.265518 0.441817 2.038
-0.361007 -0.0788497 1.45549
-0.0744582 1.16495 0.900731
