ply
format ascii 1.0           
element vertex 24
property double x           
property double y           
property double z           
end_header
-4.71213 -7.18678 56.8004
-12.0203 -9.48719 57.8708
-1.60255 -3.85249 60.3585
-7.17387 -5.00039 56.2077
-2.84002 -6.92239 59.2226
-4.10824 -7.05607 58.3336
0.185865 -6.19009 61.3723
-0.256497 -4.03569 59.738
-1.1766 -6.2551 59.4596
-11.8911 -8.55321 56.2005
-11.3184 -6.88815 56.4975
-10.5719 -10.7332 57.4503
2.49921 -5.28071 61.7118
-2.33433 -4.68355 58.5127
-6.01447 -9.36412 57.4384
-3.27862 -5.16357 57.4909
-5.94302 -7.97633 55.9682
0.842894 -5.49583 60.2053
-12.0049 -8.10022 57.4726
-8.00798 -9.78778 56.2622
-5.88583 -4.33238 57.7526
-9.81226 -7.94433 56.7939
-10.652 -5.2464 55.2074
-7.49174 -6.46653 56.0608
