ply
format ascii 1.0           
element vertex 20
property double x           
property double y           
property double z           
end_header
-10.0019 -6.2655 60.5924
-12.4995 -4.8342 59.5963
-14.8598 -6.42028 59.8248
-7.48852 -10.9636 63.2486
-6.93696 -9.52668 61.8598
-8.57034 -5.8448 61.384
-11.6706 -6.44781 60.0339
-11.3686 -11.8931 62.7404
-4.04675 -13.0579 64.9715
-3.79038 -9.94364 63.1119
-13.0981 -7.46975 59.5977
-9.72455 -10.569 62.7837
-2.58626 -10.4716 64.1777
-5.96662 -7.7292 62.1251
-11.1617 -8.55087 60.2107
-2.45091 -12.3351 64.7002
-8.42659 -10.4969 61.8148
-12.7119 -9.77638 59.8774
-14.161 -10.0476 60.7392
-12.2406 -10.8756 61.3622
