ply
format ascii 1.0           
element vertex 20
property double x           
property double y           
property double z           
end_header
-12.0201 -3.85878 55.7009
-19.0792 -5.01039 52.6009
-20.8841 -5.27696 52.4011
-22.7587 -4.97739 52.7229
-20.495 -4.01531 52.9028
-14.5346 -3.69293 54.4707
-21.7922 -6.37811 51.9886
-14.0219 -7.79123 53.398
-17.0382 -5.31509 52.3523
-16.7652 -3.86794 55.395
-19.7874 -5.86006 51.4787
-13.5628 -2.73955 56.5284
-18.132 -3.18822 54.3036
-21.8427 -3.87878 53.0581
-15.8409 -4.80317 53.4523
-19.3094 -3.47686 53.5821
-15.5887 -7.56052 52.3587
-16.7476 -6.72985 52.1076
-13.1164 -7.01493 54.2028
-17.9076 -4.29841 53.1988
