ply
format ascii 1.0           
element vertex 16
property double x           
property double y           
property double z           
end_header
-9.51572 -5.77282 54.0368
-6.61856 -8.69911 54.5293
-3.30494 -8.55271 54.9858
-10.3672 -10.8651 56.0944
-5.4986 -9.79236 55.1622
-4.03831 -9.85277 55.4888
-11.1392 -6.28795 55.3197
-11.8592 -9.55622 53.7682
-4.63297 -7.92964 54.3744
-7.93574 -7.53565 53.7772
-11.4758 -11.0658 55.189
-9.74262 -8.62914 54.3977
-6.79433 -6.9419 54.6271
-5.06592 -6.4522 54.9201
-8.63402 -10.185 55.2854
-8.32265 -5.79263 54.5406
