ply
format ascii 1.0           
element vertex 25
property double x           
property double y           
property double z           
end_header
-7.02856 -7.06361 53.0005
-7.49827 -8.60251 52.8051
-9.16272 -7.21142 51.7624
-11.5298 -3.69293 51.7515
-8.69683 -11.258 54.4187
-10.5259 -5.28256 51.847
-9.33929 -2.80902 53.2569
-4.95009 -8.65751 53.3189
-2.19999 -7.8566 53.6018
-3.53101 -7.49747 52.9018
-13.687 -8.10866 52.8315
-2.64802 -6.38078 53.6515
-6.35154 -9.88353 53.6165
-12.4046 -6.3126 51.5327
-3.34629 -9.11566 54.0595
-10.7757 -9.60233 51.801
-14.9233 -10.5507 53.9871
-8.18886 -9.96973 53.5204
-13.0932 -3.89385 51.6132
-13.5783 -10.1984 53.4814
-13.1199 0.523417 53.624
-9.41047 -9.30975 51.9266
-10.8674 -2.54787 52.5161
-7.24922 -10.8405 54.5486
-1.99885 -8.92162 54.6916
