ply
format ascii 1.0           
element vertex 15
property double x           
property double y           
property double z           
end_header
-5.82833 -5.80401 47.4785
-9.59283 -3.77256 46.5177
-4.14517 -5.41772 48.0991
-9.33385 -5.11213 48.1907
-8.53606 -8.64065 49.7127
-11.0149 -5.26312 49.3538
-5.39174 -6.45469 48.9135
-7.63608 -5.44907 47.5921
-7.51798 -3.5524 46.5042
-4.39039 -3.59545 47.8501
-2.99922 -3.25369 49.1944
-5.76702 -3.86128 47.0704
-10.8071 -4.56651 47.7774
-4.95255 -7.2401 50.6164
-5.85126 -9.07384 50.3458
