ply
format ascii 1.0           
element vertex 16
property double x           
property double y           
property double z           
end_header
-5.69429 -6.43631 48.7913
-8.91097 -6.65465 50.0053
0.179013 -4.2161 51.782
-4.49719 -9.54112 49.5173
-3.99517 -8.18635 49.9853
-7.07614 -6.16742 48.0466
-7.82455 -9.69611 48.6469
-1.07683 -6.1881 49.7092
-1.04087 -7.42508 50.6447
-2.58889 -7.12578 49.0692
-6.16959 -9.08749 49.4885
-4.14296 -7.12871 48.419
-6.81868 -10.7018 49.8926
-4.26917 -5.04612 49.3639
-1.04695 -4.63979 49.7495
-6.14905 -8.01203 48.3383
