ply
format ascii 1.0           
element vertex 30
property double x           
property double y           
property double z           
end_header
-8.32146 -11.8058 56.5099
-12.305 -13.5575 56.0963
-11.9985 -11.0171 55.1453
0.0201058 -5.8097 56.0463
-2.85003 -7.18595 55.5648
-10.6901 -3.52049 54.6255
-6.52464 -7.13066 54.605
-13.5743 -9.01362 55.2163
-10.8554 -13.77 56.6323
-8.72865 -9.1215 53.7364
-11.7021 -4.85793 53.5194
-2.59576 -8.57313 56.884
4.40428 -5.90148 58.191
-0.146697 -4.03134 56.1988
-14.1556 -4.85374 54.3882
-10.6412 -12.5278 55.6144
5.80852 -5.46032 59.1588
4.54026 -3.68266 57.6084
-8.71539 -7.23028 53.7496
-5.66528 -11.3821 57.054
0.67473 -7.52635 57.2979
-3.78557 -10.7137 57.2382
-8.78009 -4.25754 53.7897
-5.93055 -4.87339 55.1869
-13.498 -11.5975 56.1279
-4.4302 -5.79536 55.5417
-0.97648 -7.41121 56.4081
-2.18045 -10.1625 58.135
-6.71542 -11.7977 55.8778
-8.15481 -9.99795 55.5022
