ply
format ascii 1.0           
element vertex 16
property double x           
property double y           
property double z           
end_header
-5.22335 -6.282 47.608
-5.90861 -5.70862 46.446
-10.6185 -6.53082 47.6473
0.547048 -5.67724 47.7582
-8.6457 -4.13714 45.1958
-3.45211 -2.38418 47.5633
-8.81733 -7.32453 47.63
-3.8783 -4.81879 46.4999
-0.0520725 -3.81514 47.6598
-7.41666 -5.20891 45.7739
-10.0328 -1.31212 45.1356
-5.41993 -2.62406 47.1607
-7.00637 -6.82657 47.095
-1.30086 -5.75965 47.602
-0.680494 -7.10003 48.6733
-2.20844 -7.25491 49.2586
