ply
format ascii 1.0           
element vertex 19
property double x           
property double y           
property double z           
end_header
-5.13543 -9.39538 56.2041
-3.68542 -7.68808 53.7191
-3.68966 -8.49806 55.6094
-5.96369 -4.21776 52.7669
-2.20159 -3.96969 53.2831
1.74332 -4.52091 55.5327
2.51233 -5.01341 57.2186
-7.92212 -9.04218 54.5713
0.992758 -6.25375 56.9267
-6.91478 -7.57249 54.2843
-5.46469 -8.24043 53.7147
-1.35178 -6.42832 54.0534
-4.45518 -4.62899 53.6429
-6.67876 -6.0152 53.1188
-8.38872 -4.88892 52.9603
-2.4661 -7.82804 54.6934
-6.4868 -9.00363 55.02
0.0577371 -5.22152 54.3491
-8.39727 -7.4553 52.6928
