ply
format ascii 1.0           
element vertex 22
property double x           
property double y           
property double z           
end_header
-12.8163 -6.28287 59.2713
-15.8445 -9.31567 61.5254
-6.26388 -9.63059 60.6061
-8.56362 -10.6366 60.6732
-7.77431 -8.51731 59.584
-2.79217 -10.7162 63.8009
-3.46685 -10.9409 62.3364
-10.869 -8.44036 59.4166
-16.2389 -7.18308 61.0841
-15.3518 -5.66352 60.1618
-13.7423 -5.32777 61.5364
-14.9166 -7.99004 61.4391
-3.38289 -12.2349 64.4062
-14.7943 -11.4427 62.7032
-10.2854 -6.51917 58.735
-5.26 -10.0953 61.6417
-5.33984 -12.4873 64.5785
-5.50228 -11.2765 63.0259
-10.2982 -10.1777 60.4663
-7.15473 -10.6715 62.0581
-12.4088 -10.359 60.1194
-9.03936 -9.53741 59.3115
