ply
format ascii 1.0           
element vertex 43
property double x           
property double y           
property double z           
end_header
-14.5733 -9.61006 47.2138
-8.16139 -2.93638 48.0287
-10.7571 -11.0817 49.9618
-10.85 -5.2968 47.52
-9.87989 -6.94836 48.0203
-10.8463 -8.88276 49.2007
0.550425 -6.68805 50.3752
-7.09963 -1.33 47.8793
-5.19154 -6.51318 49.0802
3.35175 -9.85953 53.3249
-15.3305 -8.00422 46.5795
-10.1378 -1.5096 47.4204
-6.55781 -5.81298 48.375
3.06324 -8.36373 52.4822
2.40988 -10.9708 54.098
-13.628 -1.57073 47.4323
-12.3663 -9.04782 45.8134
-0.452706 -5.24724 50.9633
0.952564 -10.2686 53.7122
-2.15547 -9.72096 51.5404
-5.34242 -4.40362 48.3318
-9.87662 -11.811 51.9418
-6.43685 -7.64879 48.7969
-7.38035 -8.61109 49.9044
-16.0954 -4.08349 48.8458
1.58222 -7.92581 51.001
-2.22481 -6.46622 50.5221
-8.00073 -6.93244 49.0206
-0.368494 -9.46747 51.5294
-9.52012 -7.81997 49.5182
-12.8483 -6.55428 46.0601
-13.8877 -8.26278 45.8601
-3.84771 -5.20596 48.5834
-4.09434 -8.54885 50.2921
-1.19866 -5.12309 49.7707
-6.49703 -3.06087 48.3543
-9.49297 -3.94379 47.793
-11.8652 -1.39702 46.9585
-5.70116 -8.11199 50.2035
-11.6158 1.96637 48.8841
-8.83647 -10.9893 52.4147
-2.43229 -8.31307 50.547
-8.76547 -1.2364 48.2671
