ply
format ascii 1.0           
element vertex 14
property double x           
property double y           
property double z           
end_header
-6.86981 -3.43589 47.5535
-6.87216 -5.48667 47.6098
-9.56613 -3.19134 48.4265
-6.22896 -8.02744 48.0222
-7.3538 -7.23374 47.8341
-8.14293 -4.29848 47.6449
-8.45562 -7.17484 49.0369
-10.3351 -4.98237 48.2512
-8.38859 -5.72956 47.7264
-4.87875 -7.19164 48.6297
-5.35947 -5.2319 47.3613
-6.73936 -9.23155 49.5228
-4.53821 -5.42841 48.5236
-3.67268 -6.79807 49.417
