ply
format ascii 1.0           
element vertex 22
property double x           
property double y           
property double z           
end_header
-12.7647 -5.80334 55.1364
-10.5818 -7.35873 55.312
-7.80471 -5.60423 56.4115
-12.4567 -3.66318 55.6571
-7.07148 -7.86015 56.9095
-4.04668 -7.14588 57.7459
-9.19358 -2.41287 57.9274
-4.99109 -5.74752 57.391
-15.1705 -10.1769 59.1275
-10.3095 -5.66376 55.5588
-3.26823 -9.15803 57.8513
-13.1924 -8.43253 56.6843
-14.9389 -3.88524 58.4678
-13.808 -10.6132 59.2695
-6.00279 -4.56622 57.589
-6.72862 -6.05872 57.3559
-8.63956 -8.40011 57.4
-7.95023 -9.13047 58.5046
-5.56532 -7.5247 57.6158
-2.36873 -7.12638 58.2277
-9.35979 -7.09855 56.2306
-15.2447 -9.15397 57.8243
