ply
format ascii 1.0           
element vertex 21
property double x           
property double y           
property double z           
end_header
-7.75812 -8.2408 52.3634
-4.70639 -7.66838 52.3368
-3.75675 -6.51295 51.2009
-10.974 -12.026 53.0709
-9.56375 -10.2254 51.3318
-10.6536 -8.46259 50.3336
-8.80931 -8.28165 51.3092
-9.99594 -7.56168 49.8635
-13.1367 -8.40205 50.2332
-0.265808 -4.24381 51.6647
-6.54125 -3.80442 50.6755
-9.89944 -3.44253 49.6434
-7.91834 -5.47423 50.2312
-9.90153 -11.8375 52.0661
-8.28821 -4.30389 48.8248
-11.1904 -9.66602 50.1073
-11.7692 -4.98584 50.7219
-1.50914 -7.08697 51.7602
-4.54977 -3.64333 50.8329
-12.6977 -9.98899 50.9026
-2.63767 -3.25881 52.0067
