ply
format ascii 1.0           
element vertex 24
property double x           
property double y           
property double z           
end_header
-13.5616 -6.34542 49.3523
-24.389 -7.78622 50.0466
-20.8622 -7.69658 49.2318
-17.0614 -8.04279 49.3768
-12.8012 -3.31448 49.8898
-24.2216 -6.27649 50.4971
-16.2261 -5.90864 48.8879
-10.2391 -6.91626 50.6728
-14.2081 -1.08987 50.9054
-22.8303 -7.74116 49.2055
-12.1724 -6.09093 49.4539
-14.4853 -5.09792 49.4913
-11.3725 -0.435052 52.5798
-21.686 -8.85643 48.798
-16.3589 -3.1655 50.9195
-9.65858 -2.59636 51.2859
-13.9839 -4.00079 49.8701
-19.6036 -7.45606 49.1561
-9.78058 -1.15425 52.1192
-15.6513 -4.61806 49.163
-12.0585 -1.43667 51.8674
-10.3812 -5.39902 50.6136
-17.6872 -5.4667 49.1974
-10.5045 -3.90188 50.7014
