ply
format ascii 1.0           
element vertex 34
property double x           
property double y           
property double z           
end_header
-11.9579 -2.2442 54.8884
-8.59882 -10.6386 58.1739
3.76894 -8.04612 59.7245
-7.60901 -8.03203 55.3821
-3.94126 -7.06518 54.9697
-5.88547 -2.67334 53.3922
-7.12423 -4.01812 53.5448
2.14953 -9.60136 57.923
-1.70719 -9.69129 56.9886
-5.80369 -6.19076 53.9913
-10.8175 -2.63664 54.3087
-9.21976 -3.57398 53.0571
-10.1517 -6.56915 55.064
0.382961 -9.86362 57.5634
-6.75787 -8.82622 56.5391
-0.83351 -8.18581 56.9179
-2.0023 -7.98627 56.0784
-4.51347 -5.58143 54.99
-10.7791 -4.59768 54.3631
-4.33374 -3.82698 53.9161
0.602072 -10.985 58.9214
3.15674 -10.6342 59.0514
-7.97163 -5.28194 53.948
-9.38081 -5.10632 54.5027
-12.0981 -4.14156 54.84
-7.19638 -10.1813 58.7354
-9.3136 -1.21351 53.0589
0.124233 -6.74263 56.0551
-0.834799 -5.39998 55.8025
-4.01835 -7.94587 56.3497
0.89624 -8.24645 56.816
-2.5987 -6.33385 55.5408
-11.6415 -5.78836 55.3307
-3.16367 -4.59975 54.598
