ply
format ascii 1.0           
element vertex 23
property double x           
property double y           
property double z           
end_header
-3.44653 -9.89016 57.0222
-0.484049 -9.47441 58.0794
-10.8917 -12.0461 55.6761
0.312516 -8.28945 56.5649
-11.2605 -6.69418 54.8945
-0.181602 -6.52064 55.8186
-2.08507 -9.12889 55.9476
-3.12349 -6.33254 55.1883
2.95285 -8.32109 59.9417
-6.66874 -7.60038 55.0289
1.38182 -6.36041 57.5248
-6.33059 -4.83221 56.0366
-8.94556 -10.0939 54.4069
-1.8796 -5.9334 56.1021
-5.33841 -8.71471 55.0631
-9.46259 -12.7284 55.965
-8.2302 -10.8834 56.3353
-9.3238 -5.09838 54.8321
0.980465 -8.51334 57.8258
-3.6248 -8.3505 55.4056
2.68665 -7.02169 58.7607
-7.74603 -5.34801 55.3898
-12.1715 -10.614 55.0186
