ply
format ascii 1.0           
element vertex 21
property double x           
property double y           
property double z           
end_header
-10.5289 -3.1614 57.7037
-18.9072 -5.11752 55.3079
-10.7806 -7.85091 55.3026
-15.7055 -4.96935 55.2891
-14.764 -5.21196 53.8471
-12.1473 -2.85294 58.0489
-20.0388 -4.79391 54.6838
-20.1026 -7.39936 52.5838
-13.2384 -8.76897 54.9079
-15.7721 -7.93745 53.2053
-13.2475 -3.74411 57.4781
-11.2889 -6.24775 55.2776
-13.3969 -7.55699 55.997
-9.16939 -3.75475 57.5082
-10.0335 -7.04682 56.4795
-21.2492 -5.20803 54.3111
-7.57407 -5.67953 57.2068
-17.0007 -7.21879 52.7905
-21.2731 -5.33227 52.951
-14.8916 -8.96688 53.4095
-13.9959 -7.05595 53.3947
