ply
format ascii 1.0           
element vertex 20
property double x           
property double y           
property double z           
end_header
0.183956 -4.74582 52.438
0.673458 -8.17279 53.0246
-0.0495701 -6.70125 51.8303
-6.39724 -6.65132 47.9251
-4.94542 -9.2927 49.1209
-5.8505 -8.50506 47.5641
-0.659023 -8.43619 52.1544
-2.03551 -9.27057 53.0273
-6.62367 -3.59364 48.7755
-12.4822 -6.62403 50.1364
-3.05617 -6.60677 50.5408
-4.17898 -7.53632 49.1146
-8.82292 -5.26231 48.6414
-3.28369 -8.39056 51.2236
3.97174 -6.99561 54.2058
2.47573 -8.35475 54.2568
-10.4102 -10.752 50.6713
-4.85002 -5.85356 48.4083
-9.51481 -8.83548 50.0621
2.54245 -6.85249 53.0588
