ply
format ascii 1.0           
element vertex 24
property double x           
property double y           
property double z           
end_header
-0.352228 -0.081295 1.16925
-0.241149 0.0473467 1.27641
-0.289788 0.00396691 1.23576
-0.259459 -0.0266556 1.21981
-0.0341731 -0.0116085 1.25932
-0.157808 -0.0145377 1.24217
-0.334775 0.0334902 1.26111
-0.191109 0.00109711 1.2395
0.0267738 -0.122333 1.25882
-0.372091 0.056927 1.28808
-0.305682 -0.0424395 1.15306
-0.00820145 -0.11235 1.25398
-0.0756924 -0.0874073 1.23804
-0.00537553 -0.0764917 1.24495
-0.125771 -0.020313 1.24687
-0.0399437 -0.0759028 1.23231
-0.244214 -0.0598164 1.22729
-0.330136 -0.00584704 1.19342
-0.344892 -0.0366676 1.16746
-0.123104 -0.0594857 1.22759
-0.266472 0.0278376 1.25832
-0.333519 0.072626 1.28294
-0.343482 0.103139 1.36099
-0.264684 0.0692195 1.30436
