ply
format ascii 1.0           
element vertex 21
property double x           
property double y           
property double z           
end_header
-14.8852 -4.82766 64.7318
-11.8468 -2.00118 65.5435
-10.5288 -2.40844 64.2152
-14.1819 0.0907281 65.3625
-6.74919 -1.38573 66.1542
-9.80326 -1.45842 66.7337
-12.8357 -6.67266 63.0539
-18.5475 -3.13554 66.2449
-3.25354 -2.5324 66.8623
-11.5975 -4.00804 63.5232
-4.13864 -1.62606 67.5045
-14.38 -6.30654 64.0793
-13.0969 -1.20297 64.8685
-15.4857 -0.56173 67.6049
-8.38226 -1.4342 66.1598
-19.0176 -4.26191 65.0529
-16.9345 -1.31887 66.7338
-8.68921 -3.08579 64.5649
-12.4254 -5.16092 62.8488
-7.95006 -2.89794 65.8449
-4.23452 -3.63671 66.4596
