ply
format ascii 1.0           
element vertex 21
property double x           
property double y           
property double z           
end_header
-13.0996 -4.8321 61.7583
-4.99871 -1.40805 64.665
-11.9221 -5.67767 61.24
-10.0244 -1.44267 64.0648
-6.0223 -2.27901 63.3152
-7.2976 -1.47492 63.4241
-10.1432 -4.06633 61.6477
-4.58193 -3.00341 64.1945
-8.83749 -1.59497 62.9825
-8.51224 -5.41982 60.7411
-2.52873 -1.72826 65.2818
-10.0744 -0.589361 65.5703
-9.41772 -2.89975 62.3929
-8.6977 -4.19593 62.0278
-7.85049 -2.42075 62.051
-13.2364 -3.04654 62.9233
-3.37604 -2.55034 64.9155
-10.0724 -8.21938 61.7898
-7.24717 -4.08095 61.7893
-13.879 -1.60411 65.2554
-10.5655 -5.42215 61.2279
