ply
format ascii 1.0           
element vertex 24
property double x           
property double y           
property double z           
end_header
-11.2751 -2.52388 55.805
-2.1461 -0.851858 56.8157
-2.79336 -1.96209 55.6721
-13.053 -0.360991 57.2827
-14.3743 -0.116782 57.5919
0.376114 -2.53627 57.4053
-15.476 -3.30614 57.8929
-8.47532 -5.4657 54.8722
-9.9002 -1.78324 55.0378
-15.4978 -1.6589 57.5637
-11.0698 -4.20886 55.4856
-13.7539 -4.11451 56.1754
-6.06019 -2.40838 55.5071
-6.7094 -0.903536 56.5246
-5.07845 -1.18564 56.2159
-11.2244 -6.11928 54.6957
-15.5047 0.8302 60.3734
-0.279014 -0.79727 57.6225
-8.62905 -3.84693 55.1615
-3.97797 -1.30433 56.8806
-15.9954 -0.11867 59.2201
-13.2289 -6.08166 55.8918
-12.3037 -1.38567 55.9645
-5.91264 -5.07166 55.5358
