ply
format ascii 1.0           
element vertex 19
property double x           
property double y           
property double z           
end_header
-0.332451 -0.0684587 1.63952
-0.429866 -0.109543 1.64517
-0.140329 -0.0968897 1.68467
-0.205373 -0.110574 1.66139
-0.371452 -0.188208 1.60206
-0.264471 -0.0520454 1.64049
-0.185876 -0.023895 1.6797
-0.111684 -0.0553304 1.69084
-0.140245 -0.0209209 1.69261
-0.219811 0.0181253 1.71202
-0.341632 -0.176501 1.64743
-0.302043 -0.0880702 1.64787
-0.223009 -0.0322785 1.65119
-0.0947704 -0.00568439 1.75819
-0.409532 -0.226651 1.62129
-0.396653 -0.14181 1.62161
-0.172413 0.0140084 1.71082
-0.271588 -0.116968 1.6502
-0.471168 -0.125601 1.62493
