ply
format ascii 1.0           
element vertex 17
property double x           
property double y           
property double z           
end_header
-6.98661 -7.35853 66.7257
-10.1637 -6.03329 66.738
-10.1133 -7.58612 65.1661
-15.1251 -5.70986 67.3281
-8.6641 -8.38544 64.9518
-7.64292 -8.99507 66.9284
-9.9356 -10.8356 65.8316
-11.2481 -10.0235 65.2459
-14.007 -4.42536 66.9181
-11.7091 -4.73207 69.5191
-14.5863 -9.48817 68.2013
-8.93323 -6.73409 66.0839
-12.0285 -8.64102 65.9939
-12.5069 -4.28353 66.6927
-11.6244 -5.93281 66.6634
-12.784 -8.9212 64.4826
-13.8892 -3.85762 69.1215
