ply
format ascii 1.0           
element vertex 28
property double x           
property double y           
property double z           
end_header
-12.8595 -8.06666 58.4894
-15.3158 -1.50035 60.1145
-17.2722 -6.04292 59.4415
-2.79292 -3.70119 61.9303
-14.0449 -5.08528 58.2285
-7.36604 -5.28083 58.9461
-6.20761 -6.33584 58.8993
-14.2365 -8.58831 59.0583
-12.8261 -5.88051 58.7883
-1.2599 -5.43618 62.7437
-8.80747 -5.13096 58.029
-11.5268 -0.979109 60.2246
-12.378 -2.32655 59.719
-10.2322 -0.630866 60.4769
-4.0931 -7.84495 59.7065
-16.124 -7.85364 58.4246
-9.68004 -1.743 59.4545
-8.01651 -2.05443 59.1393
-11.6622 -8.12182 59.5793
-4.85009 -3.47075 59.5114
-11.6629 -4.67904 58.1177
-1.88538 -6.41729 59.9378
-13.6413 -1.18069 60.3635
-9.21848 -3.31868 58.6959
-13.0511 -3.621 58.8519
-8.05415 -6.75284 59.0747
-7.75201 -3.61659 58.2685
-16.3628 -2.83829 59.7794
