ply
format ascii 1.0           
element vertex 20
property double x           
property double y           
property double z           
end_header
-3.92516 4.57939 57.8401
-10.9902 -0.321859 55.9831
-0.893051 -1.11183 57.3854
-9.76969 -1.62688 55.1652
-14.241 4.09953 61.4434
0.063202 2.18862 58.8576
-11.1328 1.75495 58.0044
-9.83665 2.79551 57.117
-4.79364 1.75972 56.3161
-14.7297 1.52702 59.1716
-8.75001 -0.104001 55.1562
-7.0434 -0.678111 55.2343
-3.81229 3.34999 56.5026
-10.658 3.86028 58.3561
-13.4311 3.14687 59.7053
-8.47365 3.86008 57.7898
-5.78529 0.301918 56.0381
-13.1448 1.83927 58.3062
-6.89045 1.83367 55.8705
-9.97895 1.07587 56.501
