ply
format ascii 1.0           
element vertex 23
property double x           
property double y           
property double z           
end_header
-9.6448 0.728175 69.486
-9.81702 -8.2528 64.3245
-10.171 -0.219236 65.6971
-10.5107 0.745661 67.9755
-11.5508 -5.44902 62.8202
-12.2517 -4.08547 62.1118
-7.32459 -0.0720316 70.9014
-10.4201 -1.34044 64.597
-11.3808 -3.29371 65.1225
-8.50511 -0.46661 67.5997
-13.5173 -2.77281 61.3768
-6.11342 0.587825 69.8338
-14.3018 1.51783 65.6557
-12.9876 -4.89423 60.0746
-9.36014 -6.69159 64.2067
-6.36087 -2.51459 69.7095
-4.94514 -0.344301 71.3281
-12.7723 -0.174199 64.0383
-10.4119 -6.51483 62.5899
-15.6739 -0.152631 66.6259
-14.6356 -3.77513 60.4788
-15.2471 -1.54465 65.6494
-11.0758 0.903948 64.7396
