ply
format ascii 1.0           
element vertex 22
property double x           
property double y           
property double z           
end_header
-12.9624 -6.34692 56.7077
-5.73551 -5.05345 56.5867
-12.7395 -4.28972 56.7544
0.0966367 -2.67335 58.7812
-4.67674 -3.59626 56.6104
-16.2349 -6.30428 57.6529
-3.3041 -0.993052 58.2879
-11.714 -3.18827 56.0367
-3.05708 -3.88791 57.1618
-12.0472 0.487036 59.5623
-14.6282 -6.91286 56.7463
-14.0864 -3.06979 58.034
-12.4593 -1.49252 56.0814
-7.81764 -3.19134 56.1536
-9.69487 -0.623191 59.8185
-0.768528 -0.961541 58.7327
-2.05974 -2.18562 58.0404
-5.77349 -2.42687 57.5949
-1.0568 -2.86705 58.4765
-2.26247 -0.59322 59.3386
-10.5456 0.540641 57.377
-6.46345 -3.62306 56.6178
