ply
format ascii 1.0           
element vertex 34
property double x           
property double y           
property double z           
end_header
-13.9797 -1.3262 61.4118
-9.06714 -5.02003 56.8726
-8.32364 -3.59856 56.3895
-8.58582 -2.31291 57.6861
-1.9779 -1.92017 60.1212
-1.76853 -3.18947 59.2019
-12.5808 -3.68041 57.6848
0.176945 -4.32931 59.7996
-4.47789 -3.57906 57.4143
-5.64288 -2.06335 59.1251
-3.18135 -1.60878 59.2274
-2.32928 -5.04752 58.6108
-3.29425 -3.79719 57.8709
-8.25105 -7.68102 56.274
-6.84899 -1.64605 58.9191
-15.2023 -2.74013 59.2885
-7.60767 -5.17903 56.444
-10.6538 -6.18542 56.6295
-4.16743 -2.32107 58.4832
-10.8087 -7.9833 56.5727
-12.5466 -0.195462 61.4157
-4.78732 -5.67692 57.7802
-11.7863 -2.11835 57.3594
-14.5834 -4.17206 59.038
-11.921 -5.87433 57.1611
-2.64481 -2.65447 58.2786
-8.56975 -6.16533 56.6383
-9.61282 -6.7909 56.9341
-9.9686 -2.3349 58.0852
-9.92249 -3.51546 57.2191
-0.521085 -3.01973 59.5498
-10.4398 -4.85148 56.6713
-11.2589 -3.6088 56.9043
-6.56725 -4.00958 56.0159
