ply
format ascii 1.0           
element vertex 19
property double x           
property double y           
property double z           
end_header
-17.6494 -9.70771 59.3421
-20.7782 -8.81541 58.4146
-18.6442 -8.62843 58.3865
-13.1937 -8.44514 60.4672
-12.9925 -6.51567 60.1201
-20.2426 -10.2885 59.3106
-13.6395 -11.5999 63.0547
-15.9417 -10.4696 60.0428
-17.0906 -10.8323 60.3932
-15.1925 -7.42014 60.6485
-18.4897 -10.8386 59.2104
-14.21 -6.51675 60.4883
-16.3356 -7.59941 59.1401
-19.8022 -8.1988 58.0965
-14.6772 -9.56775 60.5812
-17.4605 -8.0837 58.5808
-15.1223 -11.9853 62.0704
-12.6306 -10.7726 63.2548
-16.4175 -9.07501 59.4536
