ply
format ascii 1.0           
element vertex 19
property double x           
property double y           
property double z           
end_header
-8.97144 -8.78056 60.5205
-9.17975 -6.23908 61.0861
-11.7603 -8.67183 60.3708
-10.3867 -9.32918 60.4801
-7.55396 -8.18478 60.6832
-13.183 -10.4688 60.6911
-12.7403 -7.51849 60.6566
-7.65549 -6.87497 60.2594
-13.8693 -9.49462 62.4492
-8.36228 -5.08098 61.4849
-13.9757 -5.54693 62.4133
-12.1665 -5.39756 62.2453
-6.71802 -5.19328 61.5934
-5.60312 -5.80307 61.84
-12.8686 -5.9857 61.216
-12.9402 -8.7448 61.0956
-10.1041 -4.38257 61.5338
-7.00708 -7.85665 67.2017
-15.0503 -5.63263 64.1552
