ply
format ascii 1.0           
element vertex 28
property double x           
property double y           
property double z           
end_header
-4.66843 -4.89483 58.6462
-6.00721 -7.18119 55.6295
-8.27396 -4.47896 56.4763
-8.64792 -6.3491 54.7125
-2.85672 -5.44106 59.6886
-7.84096 -5.85449 55.8125
-4.01614 -5.9277 57.6792
-14.1124 -6.6009 53.9829
-11.9997 -4.89075 53.7244
-9.13917 -9.48961 55.0456
-14.8144 -5.71813 54.9463
-12.85 -5.81992 54.3871
-13.63 -4.57689 54.2235
-12.0766 -2.37485 56.8431
-7.31013 -7.30509 55.1238
-9.72474 -7.07464 54.2709
-14.5653 -4.09771 54.8521
-9.55939 -3.49336 57.5296
-8.85684 -7.93769 54.7691
-10.8887 -7.65565 54.6387
-6.49967 -4.69846 57.42
-12.2566 -7.28212 54.1568
-6.21458 -5.76733 56.4737
-5.25817 -7.70999 57.0893
-7.63651 -8.65007 55.403
-10.5566 -4.53242 56.826
-13.1825 -3.37114 55.033
-10.5589 -3.05444 56.6934
