ply
format ascii 1.0           
element vertex 19
property double x           
property double y           
property double z           
end_header
-9.70303 -2.57771 62.5242
-14.0536 -3.30222 63.4994
-6.04377 -1.85247 63.4147
-4.32869 -7.35463 62.736
-11.1014 -3.33494 62.8921
-6.39622 -4.68925 61.4429
-8.14774 -4.17944 60.7391
-10.6305 -8.39629 61.5788
-12.7786 -5.55765 62.7847
-13.2247 -0.907251 64.7773
-8.21402 -2.54323 61.7798
-6.86934 -3.30029 62.3666
-11.2097 -1.96865 63.9741
-10.0058 -6.98226 61.9398
-9.49219 -1.31561 63.7433
-11.4449 -7.19912 61.3868
-7.87056 -0.939854 63.0808
-11.8126 -4.27034 61.9705
-10.3437 -4.87849 61.6994
