ply
format ascii 1.0           
element vertex 27
property double x           
property double y           
property double z           
end_header
-12.451 -1.18685 70.5765
-11.898 -6.54681 66.7406
-8.84487 -4.08837 66.3737
-3.67102 -6.67814 67.5061
-7.14855 -3.26945 66.5981
-8.22303 -5.81041 65.6524
-14.4105 -7.90497 64.7338
-11.6401 -10.1423 64.658
-10.7327 -3.40469 65.8776
-12.6451 -4.09678 69.5026
-3.02195 -4.81586 67.7138
-13.2084 -10.137 65.2113
-11.0416 -11.4727 64.9765
-9.44053 -11.2894 64.9028
-6.89603 -1.86021 67.4515
-11.6558 -7.73363 62.9602
-8.51161 -8.48241 66.4701
-5.51846 -3.43059 66.418
-13.0915 -5.57137 68.4945
-5.19238 -5.39655 66.0637
-8.37087 -2.16741 66.6074
-5.29403 -2.24978 67.6273
-4.84076 -7.00106 66.2302
-2.46699 -6.21993 68.0778
-8.02225 -9.69746 65.5755
-6.51965 -6.49574 65.9895
-6.83247 -4.63829 65.6964
