ply
format ascii 1.0           
element vertex 22
property double x           
property double y           
property double z           
end_header
-15.5653 -6.66883 57.3809
-16.638 -3.50868 57.1415
-21.3846 -10.2224 55.8068
-22.6711 -8.448 54.4992
-15.1892 -9.94951 57.4659
-13.7151 -7.90001 57.7314
-14.699 -5.4257 57.7879
-21.491 -8.78432 54.8266
-21.5755 -6.9058 55.8577
-17.2974 -12.6903 60.2407
-19.0897 -8.62128 56.4612
-18.1708 -5.06417 56.5922
-12.637 -7.36542 59.7949
-22.5094 -9.77173 55.3748
-16.8208 -7.38539 57.3666
-20.0946 -8.95458 55.2887
-17.407 -11.501 59.3784
-18.4935 -8.05735 57.6285
-17.2222 -3.54893 55.9529
-15.037 -12.5111 61.1209
-14.5718 -10.3651 61.1235
-20.4373 -10.7837 57.0033
