ply
format ascii 1.0           
element vertex 23
property double x           
property double y           
property double z           
end_header
-7.63238 -4.68064 59.4301
-10.3601 -6.21013 59.8448
-9.15896 -5.42234 59.2087
-11.4643 -5.01422 59.9364
-12.6882 -6.56909 59.655
-9.73616 -0.899416 62.3764
-8.36505 -3.80327 60.484
-4.26128 -6.5005 59.952
-13.6933 -7.64784 58.9002
-4.44668 -4.48247 61.3509
-9.79749 -3.90318 60.1112
-9.90141 -8.1777 59.487
-12.5545 -3.68724 60.714
-8.64448 -2.38865 61.4738
-5.8173 -3.77315 61.2377
-3.13478 -6.8236 60.4561
-12.4457 -8.53071 57.7512
-6.31839 -4.7328 60.1315
-5.49477 -6.02461 59.2783
-13.9412 -6.01222 60.7843
-11.1134 -2.90031 60.355
-11.3698 -1.29829 61.4654
-8.12282 -7.4445 59.0453
