ply
format ascii 1.0           
element vertex 14
property double x           
property double y           
property double z           
end_header
-15.5515 1.31815 59.9342
-15.0532 -0.164799 58.4786
-18.1226 0.289207 61.1431
-13.8761 -2.06859 57.1618
-15.1518 -1.66775 57.6255
-16.5821 0.345274 59.6026
-16.0348 -2.65995 58.6005
-16.4899 -0.798453 58.5858
-12.6899 -1.50643 58.2834
-13.7121 0.537377 58.3894
-13.9208 -3.99131 57.7709
-12.6988 -0.0829875 59.2496
-11.5308 -1.42323 59.1728
-15.3383 -4.05174 57.937
