ply
format ascii 1.0           
element vertex 19
property double x           
property double y           
property double z           
end_header
-13.9268 -6.5219 64.8074
-9.65612 -7.80725 61.1477
-16.3079 -11.1268 61.6369
-12.1911 -6.55507 63.009
-7.64656 -9.16044 62.793
-3.81451 -7.74547 65.4696
-8.89266 -8.76068 62.3555
-4.54412 -9.76441 63.909
-6.07841 -8.62862 62.9774
-16.536 -9.39232 61.2984
-14.9987 -11.3478 60.208
-7.32553 -7.24334 63.6369
-10.6838 -9.73618 60.3144
-8.29896 -6.90199 62.6884
-10.8925 -7.8389 60.1344
-16.4197 -10.0643 62.5283
-10.7433 -7.06381 64.2368
-14.4181 -9.08527 61.6965
-12.4108 -7.31633 61.6394
