ply
format ascii 1.0           
element vertex 26
property double x           
property double y           
property double z           
end_header
-9.10839 -4.14991 59.4582
-9.33503 -5.08092 58.1674
-11.2817 -3.80096 58.5685
-14.2023 -1.92 61.0903
-9.8895 -8.20184 57.665
-12.9074 -2.81665 59.929
-12.0845 -1.98408 62.7029
-6.85344 -4.99871 58.4293
-13.3557 -4.63887 57.9133
-4.36901 -4.16461 59.0471
-5.73886 -3.70093 58.9711
-15.4566 -5.96819 58.8523
-11.6171 -3.06079 60.6745
-4.99849 -3.31436 60.2781
-7.92303 -6.24707 57.8577
-14.5845 -3.61918 58.9528
-5.16984 -5.46879 58.6249
-12.44 -5.70412 57.014
-16.1491 -8.66816 58.0325
-9.72117 -6.6156 57.7445
-13.7793 -8.35339 58.2205
-16.6426 -6.54897 59.9515
-14.9554 -7.83054 58.0182
-13.7365 -1.58558 62.7069
-17.4086 -1.40903 64.3406
-8.54156 -7.71088 57.9733
