ply
format ascii 1.0           
element vertex 24
property double x           
property double y           
property double z           
end_header
-3.04637 -7.64431 56.9969
-9.50003 -9.18166 56.8768
-15.4911 -9.69435 55.9069
-12.5288 -13.2255 57.4987
-4.01743 -6.93253 56.0228
-9.96276 -7.20306 55.5637
-5.11845 -3.87201 56.2001
-7.91815 -8.50704 57.312
-14.3752 -10.99 56.4107
-4.98662 -5.54544 56.1516
-8.68554 -9.76749 58.0013
-12.1939 -5.24104 56.4441
-10.4859 -13.2613 57.6235
-12.9161 -5.58188 54.8446
-6.265 -8.61451 56.6787
-13.5906 -12.5551 56.634
-8.51754 -6.38438 55.0837
-1.12071 -7.05028 58.2672
-11.7332 -12.5521 56.4145
-12.8234 -11.0913 56.3045
-5.95212 -9.19941 58.1384
-10.2527 -10.8738 57.5533
-11.5448 -10.2544 57.0066
-4.77557 -8.12427 57.3426
