ply
format ascii 1.0           
element vertex 19
property double x           
property double y           
property double z           
end_header
-11.7194 -5.33543 49.3918
-0.226585 -2.60689 49.8459
0.646892 -4.9329 49.628
-5.98723 -5.68745 50.8021
-11.925 -3.59143 48.4755
4.11024 -5.72586 51.5667
-5.08202 -1.54975 48.4535
-3.50268 -4.99213 49.1772
3.30849 -4.48975 50.4934
-11.3031 -1.78447 47.7428
-1.54763 -1.28269 49.6885
-9.11295 -9.06352 50.5526
5.72491 -4.56499 51.8139
-9.82108 -1.66527 47.1632
1.80052 -5.62437 50.9148
-12.8576 -7.18718 49.2679
-7.61304 -2.0566 48.5176
-9.11642 -6.43679 49.4013
-2.17922 -5.44091 50.1418
