ply
format ascii 1.0           
element vertex 15
property double x           
property double y           
property double z           
end_header
-14.5622 -9.46915 59.0246
-7.7247 -10.3685 61.7847
-5.7012 -10.5649 62.6553
-9.15814 -9.30285 59.9219
-13.9468 -7.9874 58.0064
-13.1666 -11.1363 59.4278
-5.19832 -8.52977 60.496
-10.9456 -11.5351 61.7387
-12.4277 -12.2377 60.6021
-13.3014 -2.26267 60.5566
-3.30151 -9.36271 61.2715
-8.16235 -6.30044 59.3033
-11.1915 -9.04998 58.5844
-7.23221 -9.28758 60.556
-6.85058 -7.515 60.1289
