ply
format ascii 1.0           
element vertex 18
property double x           
property double y           
property double z           
end_header
-14.5125 -4.43046 53.3777
-8.89106 -3.74119 56.1401
-12.5218 -3.3124 54.9581
-16.0879 -3.24322 53.9339
-16.0073 -2.40026 55.119
-15.5048 -5.45505 52.9649
-13.6919 -4.45005 54.4894
-13.7921 -5.86879 53.0256
-11.0942 -4.16846 54.668
-17.8384 -2.38327 55.6491
-8.92728 -5.38475 55.8019
-10.236 -3.10206 55.1835
-12.2913 -6.10488 52.8026
-12.4599 -4.65378 53.7667
-8.49339 -8.76767 54.5297
-7.79118 -7.27877 56.3648
-14.7463 -3.12055 54.3566
-17.2873 -4.23938 53.3641
