ply
format ascii 1.0           
element vertex 17
property double x           
property double y           
property double z           
end_header
-7.95436 -9.42883 51.9509
-2.50789 -9.96537 55.2542
-2.72197 -4.3346 54.1454
-1.24876 -5.0898 54.1695
-9.04114 -11.031 52.9777
-13.268 -3.87965 52.9102
0.560884 -7.61686 56.5004
-2.1521 -8.53775 54.1613
-1.45648 -9.44558 56.4681
-10.2509 -7.78904 52.791
0.0314541 -6.65743 54.716
-12.5544 0.683376 51.6428
-9.021 -3.81646 51.8873
-3.17932 -7.14231 53.2513
-11.4555 -1.754 51.6483
-7.6213 -5.33152 53.3128
-10.142 -2.56885 52.1625
