ply
format ascii 1.0           
element vertex 14
property double x           
property double y           
property double z           
end_header
-1.09091 -6.20824 49.8639
-6.83766 -10.7264 50.0069
-4.28485 -5.05938 49.4926
-1.06055 -4.65447 49.9015
-0.197047 -6.01749 50.9087
-6.16349 -8.03382 48.4687
-4.15608 -7.15029 48.5644
-7.84051 -9.71939 48.7647
-4.01338 -8.2083 50.1174
0.158828 -4.22807 51.92
-8.92963 -6.66598 50.0902
-5.70967 -6.45281 48.9183
-6.18732 -9.10985 49.6095
-2.60258 -7.14834 49.2203
