ply
format ascii 1.0           
element vertex 18
property double x           
property double y           
property double z           
end_header
-7.35872 -7.75146 51.5065
-12.7509 -8.39562 53.9529
-9.6074 -10.0409 54.9442
-4.76636 -7.99092 53.0392
-1.44452 -6.9731 54.8011
-11.7054 -11.2607 53.9509
-2.40119 -6.69518 53.2011
-3.13661 -8.04178 52.8743
-2.5657 -9.2394 54.1204
-10.3065 -11.168 55.1119
-12.1969 -9.9007 54.2343
-11.5209 -7.82588 54.6086
-7.21025 -6.25309 51.7632
-1.05587 -9.10206 54.1923
-5.54332 -5.54184 52.1135
-0.143339 -6.87665 53.7637
-9.011 -8.19898 52.129
-5.70643 -7.02008 51.841
