ply
format ascii 1.0           
element vertex 24
property double x           
property double y           
property double z           
end_header
-11.1501 -5.72954 48.9464
-15.1262 -4.23562 51.4906
-17.8537 -9.15256 47.4079
-11.2881 -9.81794 50.023
-12.4401 -6.249 48.595
-11.5481 -11.4325 48.5648
-15.4243 -2.14677 50.9445
-14.306 -10.3411 48.3353
-18.026 -6.71708 47.2876
-14.3918 -5.72732 49.3244
-20.4485 -7.96589 47.0679
-9.78545 -6.17883 50.671
-16.1193 -3.87688 50.5507
-16.7617 -6.66484 48.0379
-19.6137 -5.7813 49.3008
-19.529 -6.60817 47.2368
-12.3729 -3.99667 50.6434
-12.4037 -10.1853 48.5037
-20.8008 -6.35002 47.2829
-19.1133 -8.2496 46.9566
-14.6226 -2.68692 51.8546
-13.1763 -4.95259 49.6981
-16.5585 -8.64715 47.4779
-21.0979 -5.91833 48.5388
