ply
format ascii 1.0           
element vertex 23
property double x           
property double y           
property double z           
end_header
-12.0799 -6.54391 50.303
-11.8926 -9.49537 48.0534
-20.5395 -3.38741 48.1939
-13.3255 -6.70116 49.7038
-17.0864 -4.98249 48.752
-12.5785 -3.49076 51.4508
-14.1941 -1.99123 50.5172
-11.0629 -5.67335 49.9519
-14.2311 -6.2286 47.6976
-12.1639 -8.10123 49.4379
-18.0643 -3.77134 49.2231
-21.7752 -2.88464 48.1325
-22.5103 -3.99687 47.997
-12.8744 -2.0284 51.4305
-14.2871 -5.59283 49.3404
-20.5816 -4.72999 47.327
-18.2953 -6.54635 47.4444
-11.7005 -4.27322 50.1667
-19.34 -3.44321 48.9558
-17.0002 -7.68836 47.6266
-13.4801 -8.34801 47.5817
-19.413 -7.2942 47.2651
-20.1536 -6.85549 46.3165
