ply
format ascii 1.0           
element vertex 16
property double x           
property double y           
property double z           
end_header
-3.81403 -5.62382 47.8268
-2.1156 -2.27754 29.3338
-5.75921 -6.32879 32.4894
-2.89861 -4.25103 30.4334
-4.29455 -4.5611 25.1548
-3.05148 -2.7315 22.708
-3.76505 -4.16162 25.1071
-0.866468 -3.38949 43.8005
-3.08364 -4.31659 27.6745
-3.78246 -2.76591 23.2438
-2.72954 -5.02616 37.5645
-2.01392 -5.83647 61.0848
-4.15808 -2.67058 20.988
-2.58252 -2.79166 28.7412
-2.90269 -2.15386 30.6467
-1.67535 -2.58949 33.4377
