ply
format ascii 1.0           
element vertex 30
property double x           
property double y           
property double z           
end_header
-2.85003 -7.18594 55.5647
-8.1548 -9.99795 55.5022
-6.71541 -11.7977 55.8778
-2.18045 -10.1624 58.135
-0.976479 -7.41121 56.4081
-4.43019 -5.79535 55.5417
-13.498 -11.5975 56.1279
-5.93054 -4.87338 55.1869
-8.78009 -4.25754 53.7897
-3.78557 -10.7137 57.2381
0.674729 -7.52634 57.2979
-5.66528 -11.3821 57.0539
-8.71538 -7.23027 53.7495
4.54026 -3.68265 57.6084
5.80851 -5.46032 59.1587
-10.6412 -12.5278 55.6144
-14.1556 -4.85373 54.3882
-0.146697 -4.03134 56.1988
4.40428 -5.90148 58.1909
-2.59576 -8.57312 56.8839
-11.7021 -4.85793 53.5194
-8.72864 -9.1215 53.7364
-10.8554 -13.77 56.6322
-13.5743 -9.01362 55.2162
-6.52463 -7.13066 54.6049
-10.6901 -3.52049 54.6255
0.0201057 -5.80969 56.0463
-11.9985 -11.0171 55.1452
-12.305 -13.5575 56.0962
-8.32146 -11.8058 56.5099
