ply
format ascii 1.0           
element vertex 16
property double x           
property double y           
property double z           
end_header
-17.7265 -10.0489 59.3289
-16.5567 -5.01184 58.1268
-7.99049 -8.99704 58.8124
-15.1467 -12.1213 57.9812
-4.10991 -8.7299 56.8255
-0.471042 -8.40508 57.5404
-2.98174 -7.50651 56.3405
-9.12616 -9.047 59.755
-10.5512 -5.93516 57.2223
-12.6489 -6.4934 57.3704
-2.01846 -8.20311 56.961
-1.74737 -11.3725 57.7809
-8.03886 -7.56415 59.1397
-6.1175 -7.56575 56.9809
-13.5261 -9.41816 57.5535
-11.7511 -7.64011 58.2265
