ply
format ascii 1.0           
element vertex 17
property double x           
property double y           
property double z           
end_header
-5.86593 -5.84559 47.8154
-2.47681 -2.80125 50.9422
-9.63085 -3.79245 46.7783
-2.90303 -4.36885 51.8777
-4.18401 -5.45797 48.4521
-9.37925 -5.13867 48.4389
-8.58777 -8.68719 49.9801
-11.0658 -5.28379 49.5508
-5.43802 -6.49786 49.2346
-7.67738 -5.48276 47.8904
-7.55368 -3.575 46.802
-4.42886 -3.62072 48.1863
-3.0447 -3.27652 49.5224
-8.79667 -2.40076 47.3824
-5.80308 -3.888 47.3975
-10.8507 -4.58717 47.9999
-5.01061 -7.28343 50.9154
