ply
format ascii 1.0           
element vertex 18
property double x           
property double y           
property double z           
end_header
-0.177056 -0.171226 2.39947
-0.465992 -0.195037 2.34531
-0.196588 -0.410185 2.41459
-0.67853 -0.406219 2.24269
-0.62842 -0.324607 2.25839
-0.460585 -0.37914 2.39125
-0.0170453 -0.45247 2.46678
-0.444511 -0.27086 2.36904
-0.185848 -0.320587 2.39523
0.414137 -1.8438 9.81742
0.0809959 -0.400698 2.58311
-0.357157 -0.417677 2.41245
-0.709599 -0.470869 2.30189
-0.401008 -0.144081 2.3539
-0.347795 -0.0632706 2.34343
-0.319229 -0.282241 2.3483
-0.67585 -0.0797203 2.35634
0.0470056 -0.489232 2.56613
