ply
format ascii 1.0           
element vertex 17
property double x           
property double y           
property double z           
end_header
-19.5224 -7.54022 48.8125
-11.5823 -7.76729 49.0492
-16.0582 -4.73266 51.4887
-10.7324 -5.96165 48.8884
-18.6259 -6.37355 49.143
-10.2216 -5.51331 50.6754
-11.779 -5.75894 50.1351
-9.91814 -7.69354 48.7478
-11.8217 -4.46429 52.0045
-15.3057 -5.66772 49.1365
-13.1763 -4.87052 49.5528
-13.9627 -7.03096 48.7103
-14.7308 -4.88132 50.4094
-17.11 -4.88598 50.5566
-12.515 -4.18121 50.7048
-17.3562 -5.39188 49.1353
-17.4878 -6.90405 48.1101
