ply
format ascii 1.0           
element vertex 18
property double x           
property double y           
property double z           
end_header
-11.0712 -5.15235 48.3257
-2.01656 -8.04434 52.4038
-6.56417 -7.19432 50.0981
-8.83474 -6.14267 49.7564
-3.3232 -7.5594 51.3394
-10.0673 -5.73806 48.9973
-4.28903 -8.63153 50.5802
-12.8108 -8.55596 50.7306
-7.77554 -4.75205 48.8847
-10.4056 -8.15178 50.541
-7.57583 -2.89598 49.0279
-12.7628 -7.06048 49.5771
-9.18595 -7.55444 50.7163
-10.4182 -1.69959 47.2022
-8.05951 -7.50243 49.8733
-5.72638 -9.44886 51.0708
-5.83386 -4.79098 50.3086
-12.2084 -4.14672 48.3188
