ply
format ascii 1.0           
element vertex 17
property double x           
property double y           
property double z           
end_header
-7.15658 -8.58819 50.0883
-4.82347 -6.56266 48.1111
-8.00279 -7.75831 49.3137
-10.066 -9.9026 51.2759
-4.07208 -3.84306 49.144
-5.85676 -3.93884 49.4006
-1.69047 -5.74775 49.5606
-11.7371 -5.00011 49.216
-0.776205 -6.88163 50.7181
-3.41371 -5.81704 48.8729
-6.40273 -7.1366 48.2818
-11.266 -11.0884 50.1561
-4.73228 -8.46468 50.4709
-14.0614 -5.14971 50.2887
-10.496 -6.94561 48.7683
-5.45 -5.09129 47.3052
-8.95482 -7.25099 48.433
