ply
format ascii 1.0           
element vertex 17
property double x           
property double y           
property double z           
end_header
-15.3541 -8.19098 45.1421
-8.63032 -7.28506 45.9453
-14.257 -5.2921 46.9815
-9.45539 -8.31781 45.7132
-8.50414 -5.34329 49.3635
-10.453 -4.0302 47.3092
-15.8446 -4.67787 46.7263
-15.0261 -4.02674 47.7549
-13.7843 -3.29063 47.5652
-17.3047 -6.41251 45.1323
-13.5746 -6.67136 45.34
-10.8734 -4.95053 45.2771
-10.9854 -8.54352 44.9433
-15.129 -5.72543 45.8081
-17.1471 -4.66058 46.8907
-15.9294 -6.94436 45.1343
-17.9229 -4.95288 45.7323
