ply
format ascii 1.0           
element vertex 26
property double x           
property double y           
property double z           
end_header
-13.549 -12.1668 57.3682
-13.5639 -9.541 55.2046
-2.75693 -2.50772 58.1396
-3.42868 -6.0336 58.5794
-9.97078 -11.851 57.3048
-8.32454 -7.73327 58.6391
-14.479 -10.7777 56.114
-15.6016 -8.64258 56.0836
-8.54639 -4.98503 56.5295
-8.37812 -12.9318 58.424
-5.34304 -4.04885 57.0338
-16.8071 -9.38349 56.8442
-0.193171 -4.90188 61.194
-2.31343 -4.9206 58.898
-6.74789 -3.71466 56.2403
-4.12199 -2.54883 57.24
-3.82024 -5.01909 57.282
-11.915 -9.61655 55.8273
-6.50394 -6.37644 57.3533
-10.5974 -9.76821 57.352
-12.0177 -11.7638 56.5399
-9.62547 -14.4277 59.3209
-10.0913 -7.32034 55.5909
-12.1025 -12.9579 57.8836
-4.99016 -6.42979 58.1463
-11.8524 -6.67014 55.978
