ply
format ascii 1.0           
element vertex 19
property double x           
property double y           
property double z           
end_header
-3.45172 -9.89866 57.0706
-12.1778 -10.6209 55.0552
-7.75035 -5.35188 55.4306
2.68454 -7.02837 58.8149
-3.62909 -8.35831 55.4571
0.977284 -8.5215 57.8799
-8.23649 -10.8914 56.3765
-9.46947 -12.7376 56.0055
-1.88239 -5.93892 56.1538
-6.33446 -4.83576 56.0782
1.37996 -6.3666 57.5794
-6.67366 -7.60668 55.075
2.94954 -8.32855 59.9937
-3.12675 -6.33849 55.2401
-0.183619 -6.52729 55.8748
0.309701 -8.29783 56.6211
-10.8983 -12.0544 55.7143
-11.9334 -8.28414 54.639
-0.488421 -9.48292 58.1304
