ply
format ascii 1.0           
element vertex 14
property double x           
property double y           
property double z           
end_header
-11.3733 -12.8648 57.4577
-4.49903 -6.24216 57.5366
-11.7588 -7.33762 55.7626
-4.38192 -9.81598 57.2764
-6.01715 -6.46181 56.016
-6.07894 -10.1371 57.1103
-10.2651 -11.5686 57.4686
-5.07051 -8.37786 56.3821
-10.3773 -10.2649 56.3925
-3.10693 -9.1485 59.6073
-13.0231 -10.9319 56.4845
-7.53843 -10.1178 56.1586
-7.75819 -6.80562 56.0166
-8.91524 -11.1031 56.6813
