ply
format ascii 1.0           
element vertex 14
property double x           
property double y           
property double z           
end_header
-2.30373 -8.30208 53.8496
1.35312 -10.3115 55.9271
-4.77962 -9.43271 52.9271
-3.6133 -9.75581 55.1495
1.85912 -8.69257 55.6734
-7.28062 -9.37729 52.854
-10.2076 -5.19073 53.4657
-8.82481 -4.05701 52.6537
-3.78578 -7.5189 53.3144
2.50071 -9.23318 57.8742
-6.73491 -5.50458 52.4688
-3.95002 -4.77174 53.5744
-7.62749 -7.70506 52.1579
-9.11664 -11.8022 54.523
