ply
    format ascii 1.0           
    element vertex 28
    property double x           
    property double y           
    property double z           
    end_header
-0.104122 0.106935 1.04304
-0.142197 -0.0402558 1.08943
0.131709 0.0860184 1.06522
-0.266508 -0.0239837 1.03699
0.0121177 -0.00388956 1.06429
-0.036484 -0.0313248 1.04084
-0.350962 -0.0240255 1.07946
0.0877822 -0.0504756 1.10606
-0.410447 -0.0295465 1.12386
-0.460406 0.0171953 1.11568
-0.233015 0.0755986 1.05295
-0.418983 0.00204136 1.0854
0.053331 -0.0459372 1.05388
-0.217203 -0.0286959 1.04604
-0.048659 0.0181288 1.01175
0.133687 -0.0618076 1.12319
-0.106875 0.110448 1.05041
-0.0737003 0.0577791 1.02741
-0.317197 0.0211194 1.06191
-0.195824 0.105582 1.07226
-0.17819 0.061932 1.03119
0.0481701 -0.0952973 1.10218
-0.448528 0.0564443 1.14259
0.106383 0.119965 1.12285
-0.392809 0.0522151 1.07662
0.0262904 0.148625 1.18572
-0.272914 0.0301177 1.02626
-0.0134773 0.0393518 1.01913
