ply
format ascii 1.0           
element vertex 15
property double x           
property double y           
property double z           
end_header
-2.20971 2.4656 33.7976
1.62954 4.07134 35.134
-0.0596092 -5.35232 35.477
1.19062 2.29808 33.0311
-3.78122 1.2835 36.0056
0.481729 -5.85556 34.7971
-2.67692 3.74842 35.9601
0.104155 -3.01672 35.0288
-2.49328 1.03662 34.6633
-0.163488 0.0887429 33.6192
-0.338564 2.56163 33.6359
-1.3073 1.66167 34.359
1.56772 -4.79827 34.8313
-0.0106096 -2.32839 33.9226
2.35999 1.26101 35.4201
