ply
format ascii 1.0           
element vertex 27
property double x           
property double y           
property double z           
end_header
-4.66494 -10.231 48.9263
-0.0193397 -8.20147 48.6399
-7.85662 -9.28243 48.5775
-2.21525 -9.07996 47.4465
-0.808507 -5.87247 48.8126
1.95698 -9.09359 50.6465
-5.49851 -2.1133 49.9029
-3.41056 -10.8683 49.3678
-3.45702 -9.74733 48.1774
-8.30151 -10.6831 49.515
-8.13069 -7.06918 47.6668
-1.96927 -5.52688 48.1732
-9.55793 -4.12888 48.406
1.17079 -8.36151 49.1926
-10.1325 -6.47344 48.6812
2.06203 -7.24101 48.9727
-10.4461 -5.08641 47.9677
-0.712243 -9.79851 49.9529
-7.23032 -11.554 49.4491
-7.00893 -6.07938 46.5956
0.571135 -6.63122 48.7096
-3.8925 -8.29248 47.2445
-7.29401 -2.18955 48.4966
-6.23279 -8.91084 47.8192
-5.7947 -10.5239 49.2149
-6.78937 -7.59708 47.2279
-4.61985 -11.7304 49.584
