ply
format ascii 1.0           
element vertex 18
property double x           
property double y           
property double z           
end_header
-12.4561 -3.65392 54.3862
-3.89731 -7.34556 54.7728
-12.8732 -5.14633 53.8638
-10.5828 -5.83686 52.9628
-13.061 -8.94263 55.0237
-5.77799 -5.00334 53.7006
-8.3767 -6.47235 53.6073
-7.42798 -4.29979 52.8965
-1.62883 -6.48206 56.8132
-12.0255 -8.01071 55.9019
-5.37578 -7.36764 54.122
-11.5501 -9.97851 55.2678
-9.89814 -8.69393 54.3389
-7.07698 -8.76705 55.1972
-2.92364 -5.54411 54.9522
-8.63776 -9.15626 55.286
-9.69475 -4.71528 53.5151
-5.51883 -8.1229 55.4477
