ply
format ascii 1.0           
element vertex 14
property double x           
property double y           
property double z           
end_header
-7.9969 -5.41614 50.3428
-11.0312 -12.0458 53.1572
-9.98283 -3.34781 49.7762
-10.69 -8.50917 50.3996
-3.28949 -6.88473 52.6868
-8.86804 -8.38613 51.3004
-9.61675 -10.1841 51.476
-4.597 -3.5448 50.943
-8.39754 -4.18124 48.981
-2.65035 -3.25982 52.0199
-11.7985 -4.89694 50.8773
-6.58705 -3.77416 50.7439
-10.097 -7.45115 50.0478
-3.84943 -6.42188 51.3254
