ply
format ascii 1.0           
element vertex 15
property double x           
property double y           
property double z           
end_header
-7.73706 -7.07466 51.2662
-6.80711 -9.40435 52.7921
-9.75997 -8.47083 51.629
-9.07454 -9.97767 52.6126
-2.34439 -6.63564 54.2005
-12.3407 -9.23783 51.8137
-8.05362 -3.7306 51.1119
2.1564 -7.84939 57.097
-6.88995 -4.79432 49.3059
-12.5503 -5.42542 50.5775
0.872121 -6.26007 55.5805
-12.4459 -7.76669 51.0564
-5.97949 -9.40448 54.0328
-5.24741 -7.48624 53.8854
-3.3322 -9.11075 54.9095
