ply
format ascii 1.0           
element vertex 15
property double x           
property double y           
property double z           
end_header
-12.1206 -10.636 54.9334
-11.8764 -8.36402 54.4257
0.986631 -8.50887 57.7974
-2.11539 -9.09153 55.9693
-0.132091 -6.48487 55.8343
-7.74006 -5.4105 55.2619
3.00267 -8.18176 60.1232
-3.08416 -6.39482 55.0652
-6.32979 -4.89733 55.9083
1.366 -6.21952 57.7033
0.322855 -8.34853 56.4412
-3.57835 -8.43914 55.2338
-9.39374 -12.7492 55.881
-1.82663 -5.9651 56.0211
-6.57929 -7.66085 54.9007
