ply
format ascii 1.0           
element vertex 26
property double x           
property double y           
property double z           
end_header
3.74844 -8.04928 59.7724
-9.33436 -1.21633 53.1815
-3.17203 -4.60142 54.6276
-4.01225 -7.94139 56.3141
-10.8366 -2.64168 54.414
0.114855 -6.74015 56.0413
-0.848223 -5.40144 55.8334
-12.1082 -4.14693 54.9071
-5.79154 -6.18643 53.9484
-1.99889 -7.97944 56.027
0.384955 -9.85132 57.49
0.890115 -8.23942 56.7706
-1.6979 -9.67822 56.9102
-6.74243 -8.81911 56.4899
-2.60182 -6.33294 55.5321
-11.9885 -2.24974 55.0287
3.1503 -10.6235 58.9907
-9.37745 -5.10828 54.5201
-7.18822 -10.1794 58.7234
-11.64 -5.79144 55.3544
-0.835542 -8.18061 56.8834
2.14351 -9.59109 57.8632
-5.89687 -2.67673 53.4643
-3.93323 -7.05985 54.9203
-7.96295 -5.28173 53.9395
-8.4463 -7.32862 54.1973
