ply
format ascii 1.0           
element vertex 16
property double x           
property double y           
property double z           
end_header
-4.48824 3.80347 39.1661
0.887188 4.67635 37.4655
-3.90627 -2.97584 37.9333
-3.2066 4.89979 39.0567
-5.49797 1.91466 39.2745
-2.23185 3.49737 37.5411
-2.92085 -1.98603 38.2119
-2.66721 -0.040944 38.4838
-0.325634 4.26054 37.0849
-4.33123 -0.664142 37.9413
-1.66749 6.31338 38.0489
-5.48632 0.0612689 38.3033
-2.71896 0.955408 37.5008
-4.63637 1.19905 38.4369
-5.21507 -2.79288 38.1489
-3.33687 2.96925 39.3558
