ply
format ascii 1.0           
element vertex 17
property double x           
property double y           
property double z           
end_header
-0.325182 5.48739 39.9021
1.34888 -4.97083 38.9225
1.42188 1.61553 39.3412
0.977939 1.51022 37.9871
-1.03352 -0.595405 38.3438
0.0634249 3.47006 38.6336
2.38514 -1.86084 39.6452
0.363364 -0.679742 38.3554
0.893084 3.32934 39.8059
0.74582 -2.60779 38.7484
-1.59936 3.71795 39.3892
0.998206 5.20519 40.0352
2.74546 -3.45708 40.8799
1.54616 0.372544 38.5909
-1.61328 -1.70258 37.8958
3.24126 -2.46473 40.4334
1.98834 0.402594 39.9422
