ply
format ascii 1.0           
element vertex 22
property double x           
property double y           
property double z           
end_header
-5.879 -4.32959 57.7255
-12.0031 -8.09978 57.4678
-10.6512 -5.24563 55.1962
2.51057 -5.27532 61.6787
-9.81279 -7.94441 56.7911
-7.17118 -4.99872 56.1903
-1.1703 -6.2514 59.4389
-4.71223 -7.18595 56.793
-11.3173 -6.88746 56.4909
-12.0201 -9.48742 57.8723
0.195728 -6.18527 61.3444
-10.5757 -10.7355 57.4596
-8.01352 -9.79033 56.2711
-2.83494 -6.91941 59.2059
0.851436 -5.49126 60.1783
-3.27429 -5.16091 57.4697
-7.49195 -6.4658 56.0526
-11.8938 -8.55435 56.2037
-4.105 -7.05397 58.3204
-2.32746 -4.68014 58.4852
-6.01668 -9.36496 57.4406
-5.94622 -7.97684 55.9685
