ply
format ascii 1.0           
element vertex 24
property double x           
property double y           
property double z           
end_header
-9.02809 -2.35515 50.6456
-10.1506 -6.68017 50.2299
-7.04925 -6.94119 51.2954
-7.6557 -8.69068 51.8213
-12.875 -12.797 54.5094
-4.15296 -8.69422 53.7643
-12.3957 -12.251 53.1153
-6.72631 -4.38046 50.8371
-10.1932 -8.36068 51.6133
-10.1987 -10.5528 52.0806
-3.22218 -9.18779 54.7073
-12.4637 -9.7144 52.0543
-11.0553 -3.87363 50.3586
-4.94149 -6.6395 51.3749
-5.79059 -8.1259 51.3709
-12.5419 -6.21499 50.4683
-8.95522 -7.92079 50.8161
-10.4783 -11.4393 53.7255
-4.50543 -7.81885 52.612
-5.94577 -5.9506 50.6853
-11.576 -8.3116 51.3444
-11.6498 -11.0972 52.4817
-3.31018 -7.42976 53.2012
-9.13693 -4.0765 51.0768
