ply
format ascii 1.0           
element vertex 14
property double x           
property double y           
property double z           
end_header
-4.78854 -7.31102 50.1369
-6.15638 -4.59831 49.0109
-11.4854 -9.0253 49.2635
-5.72133 -8.81292 50.6422
-7.41164 -7.65817 48.4572
-10.8973 -5.90958 47.1675
-7.26909 -5.95696 48.4933
-5.44 -6.06408 49.0369
-8.81587 -5.62439 47.4426
-6.0796 -7.89604 49.0735
-3.8256 -5.68026 50.7303
-3.98412 -8.66959 52.0573
-3.12406 -7.08761 51.5114
-9.89138 -9.81903 49.3026
