ply
format ascii 1.0           
element vertex 18
property double x           
property double y           
property double z           
end_header
-13.9724 -7.03949 48.7569
-11.6465 -7.80133 49.2513
-10.6747 -5.93161 48.6601
-19.6476 -7.58421 49.1041
-13.0911 -4.84201 49.2897
-18.6717 -6.3881 49.252
-9.87974 -6.68077 53.5574
-10.2324 -5.51339 50.6638
-16.1332 -4.74979 51.6679
-17.3091 -5.37978 49.0223
-9.95656 -7.71065 48.8457
-11.8575 -4.47449 52.0957
-12.4572 -4.16157 50.5016
-11.7811 -5.75885 50.1205
-17.1405 -4.89341 50.6172
-14.7145 -4.87438 50.3536
-15.2582 -5.65408 49.0176
-17.4728 -6.90271 48.1025
