ply
format ascii 1.0           
element vertex 16
property double x           
property double y           
property double z           
end_header
-10.7074 -8.94287 53.3892
-13.5755 -8.0072 55.3936
-9.15842 -9.5527 53.2681
-11.3149 -10.3282 56.5477
-5.12579 -5.71216 55.1359
-3.61019 -5.89643 55.7661
-10.6331 -5.61611 52.9629
-3.20051 -7.46252 56.2141
-12.3243 -11.243 57.4652
-7.35886 -5.78384 53.7265
-2.69894 -8.63192 57.8028
-6.09955 -9.6632 55.9655
-12.0961 -6.25708 53.1485
-4.74478 -8.85207 55.9348
-11.4252 -2.88237 53.3394
-6.5183 -8.84652 54.7363
