ply
format ascii 1.0           
element vertex 27
property double x           
property double y           
property double z           
end_header
-11.3418 -10.1492 57.5114
-14.8826 -7.44589 56.6739
-1.97146 -5.20208 61.2567
-11.2075 -7.75431 56.8182
-15.7158 -10.0244 58.0269
-14.0528 -11.7243 57.7188
-10.7187 -5.37978 57.4654
-9.76989 -9.85294 58.7726
-5.7748 -7.17531 59.6757
-6.5347 -3.95548 58.6328
-11.3853 -6.3892 56.9019
-4.15426 -6.56942 60.9305
-8.21874 -6.53202 58.0739
-7.62021 -5.09323 58.1638
-7.48004 -8.14728 58.1158
-12.4359 -8.38492 57.1422
-5.70949 -5.69308 58.4783
-2.62393 -3.81137 60.1456
-4.39414 -4.61206 59.702
-14.3127 -6.19666 57.4023
-12.9454 -6.46825 56.965
-8.81495 -8.85239 58.0374
-2.78625 -5.84424 60.8525
-13.7391 -9.77436 56.3314
-9.01163 -7.37524 57.4615
-9.39563 -5.7097 57.9216
-12.7332 -10.7834 57.5506
