ply
format ascii 1.0           
element vertex 16
property double x           
property double y           
property double z           
end_header
-6.61856 -8.69912 54.5293
-4.63298 -7.92964 54.3745
-9.51573 -5.77282 54.0369
-4.03832 -9.85278 55.4888
-6.79433 -6.94191 54.6272
-8.32265 -5.79263 54.5407
-7.93575 -7.53565 53.7772
-11.4758 -11.0658 55.189
-9.74263 -8.62915 54.3977
-10.3672 -10.8651 56.0945
-11.1392 -6.28796 55.3197
-5.06593 -6.45221 54.9201
-8.63402 -10.185 55.2854
-11.8592 -9.55623 53.7682
-5.4986 -9.79237 55.1623
-3.30494 -8.55272 54.9858
