ply
format ascii 1.0           
element vertex 25
property double x           
property double y           
property double z           
end_header
-13.5492 -6.33572 49.2721
-21.8519 -6.78211 49.268
-12.6501 -4.68483 49.8018
-16.3498 -3.16199 50.8534
-15.6409 -4.61193 49.0917
-17.6751 -5.45914 49.1252
-10.2268 -6.90498 50.5863
-13.9744 -3.99579 49.7991
-10.4953 -3.89675 50.6269
-12.0514 -1.4356 51.8033
-10.9552 -1.83301 50.9542
-16.957 -4.27041 49.4879
-14.2021 -1.08931 50.8449
-14.4743 -5.09095 49.4169
-11.3662 -0.435196 52.5185
-10.3705 -5.39088 50.533
-20.7752 -6.1674 49.4451
-24.2059 -6.26788 50.4285
-9.77378 -1.15334 52.054
-12.1607 -6.08162 49.3731
-21.6668 -8.84209 48.7186
-9.65073 -2.59332 51.2154
-12.7928 -3.31056 49.8201
-24.3705 -7.77461 49.9732
-20.8452 -7.68475 49.1552
