ply
format ascii 1.0           
element vertex 39
property double x           
property double y           
property double z           
end_header
-10.6161 -10.8113 55.0499
0.0394439 -7.58135 56.7973
-1.38749 -6.76817 55.8936
-1.52002 -7.94293 57.126
-0.234424 -4.71963 55.2007
-6.1463 -5.48747 54.1176
-5.48112 -0.996261 53.1641
0.303774 -6.45462 55.5776
6.22685 -8.48731 58.9136
-8.60542 -7.8594 55.0298
-9.30596 -12.1161 56.5055
3.24712 -6.6278 57.1453
2.61937 -5.0186 56.3875
-1.96635 -4.11635 54.7662
-8.46035 -2.08563 54.6174
1.53924 -6.60272 56.5663
4.39141 -5.02143 57.3358
-5.3024 -10.8197 56.3771
-6.65264 -10.6754 55.4427
-12.1779 -7.31322 55.3265
-2.97908 -6.00089 55.3393
4.409 -8.41017 59.1412
7.42626 -6.73997 58.6419
-5.27958 -12.0151 57.4375
-8.10044 -12.9587 57.3
3.10759 -3.30607 56.5932
-6.69872 -0.305837 54.364
-5.82488 -7.65489 54.8367
-9.16314 -4.06576 56.2556
-12.8777 -8.61505 55.8383
-2.65365 -1.88382 54.1817
-9.58457 -9.8421 55.7345
-8.90444 -5.63055 56.3073
-7.87551 -9.66231 54.648
5.88416 -6.47241 57.9311
4.34359 -6.78863 58.246
-6.51915 -12.9367 55.9847
-5.44059 -14.1237 58.665
-12.4335 -6.01274 54.9529
