ply
format ascii 1.0           
element vertex 17
property double x           
property double y           
property double z           
end_header
-8.88207 -9.4255 51.3838
-3.53933 -6.22088 51.1291
-11.7591 -9.57826 52.4674
-4.76995 -8.74717 52.9649
-7.59637 -8.21124 51.2766
-10.1125 -9.97078 52.4122
-9.70861 -4.06249 50.0775
-12.9354 -9.28446 51.2792
-14.0775 -9.83951 52.1915
-3.37289 -4.56444 50.838
-11.9318 -6.81196 49.4702
-3.32652 -7.3318 52.4968
-8.40136 -7.03099 50.194
-6.39007 -3.74149 50.301
-4.56073 -7.74262 51.6297
-7.28723 -5.07714 50.08
-5.85066 -8.05062 50.6695
