ply
format ascii 1.0           
element vertex 23
property double x           
property double y           
property double z           
end_header
-0.0861374 -0.32268 1.69878
-0.237042 -0.214432 1.59323
-0.0428396 -0.277234 1.67827
-0.274889 -0.423138 1.65558
-0.310537 -0.289796 1.65439
-0.22729 -0.265367 1.59488
-0.135183 -0.347815 1.65222
-0.336458 -0.370983 1.6674
-0.315924 -0.435617 1.65579
-0.0313732 -0.225646 1.68197
-0.113438 -0.280089 1.64719
-0.244309 -0.186344 1.56149
-0.364254 -0.344253 1.63301
-0.10341 -0.202514 1.61845
-0.283222 -0.204768 1.62273
-0.00608231 -0.121538 1.71144
0.0319917 -0.158399 1.67489
0.0835039 -0.150996 1.68343
-0.237233 -0.37852 1.62495
-0.160282 -0.339529 1.61305
0.0381522 -0.0922811 1.72126
0.0311337 -0.210859 1.68546
0.0572751 -0.214854 1.72723
