ply
format ascii 1.0           
element vertex 16
property double x           
property double y           
property double z           
end_header
-0.0122571 -0.246421 1.53015
-0.134438 -0.151201 1.5309
-0.178156 -0.144155 1.49208
-0.039483 -0.203264 1.531
-0.208961 -0.230783 1.52626
-0.228577 -0.225567 1.49918
-0.15566 -0.245081 1.53559
0.00374483 -0.264104 1.57285
-0.218739 -0.148661 1.48663
-0.175813 -0.208974 1.51254
-0.282504 -0.183211 1.53637
-0.117907 -0.203699 1.5111
-0.0763962 -0.183428 1.51597
-0.242422 -0.18115 1.47533
-0.0675319 -0.2438 1.52674
-0.196035 -0.258498 1.55976
