ply
format ascii 1.0           
element vertex 15
property double x           
property double y           
property double z           
end_header
-1.73273 -7.11144 50.6536
-4.4186 -6.74233 48.9975
-8.2655 -7.64603 49.2889
-1.72917 -10.2597 53.6142
-3.89904 -4.60301 49.3743
-5.90939 -6.10071 49.3468
-5.53011 -4.48245 49.5732
-7.98679 -11.2212 51.6906
-10.4134 -4.39909 49.6665
-7.235 -4.82133 49.547
-4.6194 -8.56936 49.214
-10.2441 -5.87819 49.3098
-9.02063 -3.3115 49.1531
-3.08393 -8.72978 50.5012
-8.49468 -10.3317 50.6281
