ply
format ascii 1.0           
element vertex 16
property double x           
property double y           
property double z           
end_header
-6.26368 -6.66534 53.0127
-10.1417 -2.56977 52.1838
-13.2662 -3.87857 52.906
-7.62102 -5.33505 53.3538
-5.9405 -9.95272 52.2221
-1.46374 -9.45816 56.5414
-5.50487 -11.1823 53.6414
-1.25425 -5.09851 54.261
-12.5573 0.68323 51.6437
-2.14849 -8.54998 54.2378
-10.2394 -7.7907 52.8078
-7.93443 -9.43397 51.9849
-9.02124 -11.0345 53.0014
-2.50635 -9.97774 55.3225
-2.72941 -4.34114 54.2268
-9.01706 -3.81782 51.9196
