ply
format ascii 1.0           
element vertex 19
property double x           
property double y           
property double z           
end_header
-8.47461 -6.32845 54.9324
-15.5198 -9.60403 55.8306
-9.48069 -9.22223 56.6428
-12.1619 -5.22619 56.2823
-13.644 -12.4278 56.5857
-6.17747 -8.78986 56.305
-9.92457 -7.24933 55.3319
-1.07331 -7.13175 57.9444
-7.88761 -8.4807 57.1341
-4.74532 -8.13135 57.1116
-5.92092 -9.17042 57.9509
-10.1866 -10.8119 57.437
-12.4703 -13.415 57.1281
-10.4475 -13.1643 57.5462
-8.65328 -9.73936 57.8323
-7.29076 -7.08374 55.4548
-3.93513 -6.76622 55.9421
-9.23723 -12.158 57.4409
-11.5613 -10.1929 56.8806
