ply
format ascii 1.0           
element vertex 36
property double x           
property double y           
property double z           
end_header
-5.80544 -4.73728 48.3633
-4.00984 -6.56411 49.2026
-1.80877 -9.53581 53.0777
-1.1175 -8.21515 51.2229
-2.33119 -4.43905 50.2185
-9.69302 -6.8293 46.3141
-13.3845 -8.62014 49.1146
-9.0575 -7.86638 47.5426
-5.2696 -7.89046 49.4477
-7.13093 -7.86694 49.3228
-6.91904 -10.0388 50.3305
-10.7464 -9.31086 49.3369
-8.67264 -4.81814 46.3039
-2.62178 -8.81527 51.2192
-14.645 -5.84919 47.807
-8.38576 -10.3227 50.9167
-14.9808 -6.67631 49.3138
0.24764 -7.66256 51.5396
-0.922634 -5.76885 50.2717
-11.3767 -7.01003 47.1459
-12.0378 -8.6933 48.3622
-11.2986 -11.0959 50.3552
-8.08924 -6.56378 46.8802
-13.3417 -10.021 50.7365
-5.75888 -9.52049 51.8556
-6.63634 -3.0679 49.0621
-8.21255 -9.13694 49.6297
-13.1605 -4.97708 46.7421
-4.50651 -8.81275 51.0091
-0.589539 -9.38548 55.2081
-1.72457 -7.60151 49.9628
2.10513 -7.39158 54.0442
-13.02 -6.71154 47.6038
-10.1117 -10.895 51.3323
-2.89983 -6.16449 50.0746
-14.8891 -3.55676 47.6662
