ply
format ascii 1.0           
element vertex 17
property double x           
property double y           
property double z           
end_header
-11.9201 -8.94275 51.5261
-11.8937 -4.23264 51.3807
-10.4815 -11.4862 52.7554
-10.687 -7.57601 50.8982
-7.30337 -7.41245 50.8854
-9.36336 -5.91825 50.8049
-3.09641 -5.66229 53.1998
-6.65334 -5.82897 50.8657
0.486675 -4.75565 54.2208
-6.34388 -3.10223 51.2811
-1.63054 -4.86727 52.5861
-9.35265 -10.3081 52.2775
-3.23638 -4.0762 52.2715
-7.83819 -8.4589 52.1451
-4.73732 -1.9857 51.8941
-4.43286 -5.62971 52.5762
-12.2631 -7.25312 51.1442
