ply
format ascii 1.0           
element vertex 16
property double x           
property double y           
property double z           
end_header
-11.6865 -4.36665 56.2444
-13.0493 -8.91014 52.6113
-14.2956 -4.88915 52.36
-14.4051 -3.09771 55.2762
-13.3063 -6.06933 52.842
-11.6845 -6.45667 53.887
-15.5015 -4.47466 53.0485
-18.062 -5.09442 53.0836
-16.8956 -3.14327 54.1399
-18.5816 -3.42591 54.4975
-11.2708 -4.69747 54.6508
-14.696 -3.6166 53.8894
-19.2769 -5.49213 53.0366
-13.4278 -4.43714 53.4312
-16.9416 -4.16731 52.9148
-13.9739 -7.60099 52.6082
