ply
format ascii 1.0           
element vertex 15
property double x           
property double y           
property double z           
end_header
-0.673212 -7.15901 48.6202
-11.0066 -4.90421 46.6036
-10.134 -1.22001 45.1978
-5.95695 -5.56781 46.6121
-2.60863 -3.84036 47.1443
-10.6244 -6.56058 47.6267
1.75377 -4.42104 48.8892
-0.123845 -3.99862 47.4719
0.572301 -5.73637 47.7066
-2.74927 -5.82985 48.4561
-2.22114 -7.25586 49.2672
-10.5426 -4.11605 47.9078
-1.2749 -5.73157 47.6475
-8.87698 -7.26986 47.7041
-8.62896 -4.19601 45.1549
