ply
format ascii 1.0           
element vertex 27
property double x           
property double y           
property double z           
end_header
-4.42702 -5.53527 56.8304
-8.02592 -2.05452 58.0219
-8.74696 -13.8016 60.6587
-5.64186 -10.9511 60.0612
-9.52396 -6.73356 59.1727
-10.1424 -4.63545 58.0865
-3.43783 -6.5091 57.7675
-8.76429 -5.00382 59.0463
-1.83301 -7.186 57.7325
-7.14418 -14.0622 60.5116
-2.85367 -5.06526 57.2995
0.885063 -8.86415 60.7766
-5.27276 -7.22045 57.7214
0.518956 -7.8411 59.6968
-1.89302 -9.01454 58.7308
-8.66907 -8.72034 58.7678
-4.66301 -3.92268 55.8085
-9.09855 -12.9536 59.451
-5.45813 -12.5913 60.2077
-11.468 -10.6344 58.0005
-6.37889 -9.48898 58.9577
-0.680077 -7.88211 58.7626
-8.85026 -11.9417 57.1439
-1.30167 -5.47734 57.8655
-10.6286 -12.3512 59.7181
-0.467159 -9.51828 60.3911
-3.37 -9.62629 59.2599
