ply
format ascii 1.0           
element vertex 19
property double x           
property double y           
property double z           
end_header
-15.9987 -2.39886 55.0881
-10.2298 -3.10072 55.163
-17.2766 -4.23667 53.33
-13.7834 -5.86572 52.9978
-15.4949 -5.4518 52.9337
-12.5147 -3.31083 54.9333
-12.452 -4.6516 53.7417
-7.78903 -7.27688 56.3507
-12.2831 -6.10188 52.7775
-14.7375 -3.11888 54.3275
-17.8299 -2.38184 55.6158
-8.88671 -3.73997 56.123
-11.0876 -4.16671 54.646
-13.6843 -4.44786 54.4626
-14.5032 -4.42803 53.3486
-10.6997 -6.77684 53.4388
-8.92332 -5.38301 55.7848
-16.078 -3.24131 53.9022
-8.4898 -8.76505 54.5138
