ply
format ascii 1.0           
element vertex 18
property double x           
property double y           
property double z           
end_header
-11.3795 -2.81137 54.8168
-4.95937 -7.13376 54.9012
-4.38553 -3.06888 55.8128
-7.9394 -8.98258 54.4479
-8.53398 -5.32997 54.0704
-6.86989 -6.47953 53.3182
-10.0502 -8.24276 55.3353
-11.9988 -8.51147 54.1798
-3.15206 -5.77805 55.002
-9.88177 -10.1115 55.5462
-10.5529 -6.09959 54.6575
-5.76539 -8.61721 55.4293
-2.5294 -7.36274 56.3376
-6.21533 -7.57251 54.5337
-10.5456 -4.07797 54.9576
0.181131 -6.0332 57.061
-8.58451 -10.945 56.0646
-1.01871 -4.17245 56.0043
