ply
format ascii 1.0           
element vertex 18
property double x           
property double y           
property double z           
end_header
-11.5209 -7.82587 54.6085
-2.5657 -9.23939 54.1204
-5.54332 -5.54184 52.1134
-12.1969 -9.90069 54.2342
-5.70643 -7.02007 51.841
-9.01099 -8.19898 52.129
-1.05587 -9.10206 54.1922
-7.35871 -7.75146 51.5065
-10.3065 -11.168 55.1119
-12.7509 -8.39561 53.9529
-2.40119 -6.69517 53.2011
-9.60739 -10.0409 54.9442
-3.13661 -8.04178 52.8743
-7.21025 -6.25308 51.7632
-0.143339 -6.87664 53.7637
-1.44452 -6.9731 54.8011
-11.7053 -11.2607 53.9508
-4.76636 -7.99091 53.0391
