ply
format ascii 1.0           
element vertex 31
property double x           
property double y           
property double z           
end_header
2.71245 -3.67732 56.8397
-8.01454 -4.79158 52.2948
-6.7168 -10.7205 52.6533
-4.47878 -2.58799 55.5782
-12.7228 -5.76905 53.7508
-4.12548 -10.9096 53.0409
-13.2197 -8.66189 55.393
-9.08155 -6.1203 53.5035
-1.08848 -1.16348 55.9519
-6.69359 -4.04146 52.8117
-6.86594 -7.139 51.9402
-11.1652 -9.731 53.5178
-4.52691 -8.82151 52.0973
-11.6272 -10.446 54.9351
1.41964 -0.112357 56.3485
-1.64505 -8.28604 54.2228
0.110127 -2.83252 55.6806
1.9594 -2.35277 57.3256
-5.27198 -7.13572 52.1435
-10.1546 -8.59092 53.4827
-10.4309 -3.01228 54.9584
-7.3852 -1.74674 53.5754
-10.2453 -10.796 55.7406
0.123516 -12.1212 56.6634
-3.8084 -6.3915 52.5296
-8.30665 -11.9464 55.3363
0.502862 -4.17201 56.5518
-13.861 -11.2813 54.8075
0.146002 -5.87244 55.8798
0.731532 -7.31823 55.7117
-5.16089 -3.87202 52.9805
