ply
format ascii 1.0           
element vertex 17
property double x           
property double y           
property double z           
end_header
-10.5358 -3.16329 57.7354
-10.787 -7.85419 55.3235
-13.2557 -3.74644 57.5132
-15.7855 -7.9429 53.2404
-20.056 -4.7983 54.7343
-14.7784 -5.21626 53.8887
-10.0386 -7.0495 56.4993
-20.1218 -7.40598 52.6305
-21.2678 -5.21297 54.3632
-15.7182 -4.97312 55.33
-13.2461 -8.77287 54.931
-14.9028 -8.97206 53.4386
-7.57804 -5.68159 57.2251
-18.9219 -5.1217 55.3539
-21.2949 -5.33782 53.006
-17.0169 -7.22462 52.8316
-11.2973 -6.25138 55.3059
