ply
format ascii 1.0           
element vertex 14
property double x           
property double y           
property double z           
end_header
-12.8138 -8.58248 50.4606
-1.89112 -8.02214 52.0445
-10.3364 -8.20243 50.2294
-3.28431 -7.51354 51.0128
-6.77192 -3.78634 49.9888
-10.0451 -5.76867 48.6924
-7.50295 -2.84399 48.7735
-8.03969 -7.52136 49.546
-5.69272 -9.39801 50.7969
-10.4399 -1.59526 47.0269
-4.25752 -8.60881 50.2433
-8.83148 -6.0209 49.5928
-7.72938 -4.6921 48.6414
-12.8166 -6.97395 49.4276
