ply
format ascii 1.0           
element vertex 23
property double x           
property double y           
property double z           
end_header
-11.2173 -10.5896 55.2761
-7.28252 -10.9348 55.9914
-3.74812 -2.48457 56.632
-3.4592 -5.60809 57.1537
-5.1106 -11.7238 57.3727
-5.40209 -6.8047 54.7043
-7.28172 -12.9543 57.2694
-0.886689 -5.70632 58.5863
-10.4307 -10.2943 53.5353
0.99762 -3.25219 58.4169
-4.86202 -5.15759 54.9187
-8.25559 -11.9683 56.7119
-0.177441 -3.09159 56.9424
-6.54452 -7.9175 56.1838
-5.69786 -4.4161 53.8185
-6.33282 -12.2444 56.3419
-10.0444 -5.53195 55.3851
-7.63792 -5.56694 53.8004
-8.74044 -3.0595 53.7368
-2.97984 -4.65773 56.2282
-7.9126 -10.0276 54.8354
1.38333 -5.29372 58.5354
-9.09624 -9.1265 53.5635
