ply
format ascii 1.0           
element vertex 16
property double x           
property double y           
property double z           
end_header
-5.80252 -3.88662 47.3797
-2.90099 -4.36716 51.8578
-8.58599 -8.68486 49.9665
-5.00864 -7.28094 50.898
-5.43675 -6.49557 49.2173
-5.86521 -5.84352 47.7981
-9.63027 -3.79152 46.7648
-9.37809 -5.13733 48.4256
-4.18324 -5.45583 48.4329
-4.42817 -3.61932 48.167
-2.47533 -2.8001 50.9212
-3.0437 -3.27514 49.5019
-11.0642 -5.28268 49.5396
-7.55318 -3.5739 46.7862
-10.8497 -4.58617 47.9881
-7.67647 -5.48109 47.875
