ply
format ascii 1.0           
element vertex 20
property double x           
property double y           
property double z           
end_header
-4.85986 -5.88278 48.6425
2.49253 -8.38675 54.4649
-1.35577 -6.32862 51.4192
-11.2666 -9.78986 49.3521
-12.5007 -6.63246 50.2016
-3.29915 -8.43217 51.478
-9.5634 -8.87389 50.2819
4.00702 -7.02018 54.3839
0.683241 -8.20867 53.2533
-0.0319222 -6.72921 52.0362
-5.89948 -8.57255 47.9429
-4.98807 -9.36047 49.4828
-6.42666 -6.68882 48.1935
-12.208 -10.5953 50.7823
-0.658989 -8.47838 52.4134
-2.04884 -9.3094 53.2529
-8.83847 -5.27651 48.7701
-4.19894 -7.58233 49.4112
1.87211 -4.96615 52.8944
-8.31 -9.74896 49.7727
