ply
format ascii 1.0
comment Created by Open3D
element vertex 20
property double x
property double y
property double z
end_header
-4.17609 -1.55811 36.9036
-4.37416 -0.765922 37.72
-3.28254 -2.77573 36.417
-5.75004 -1.20446 37.4375
-2.12675 -2.27555 36.2214
-3.7893 -3.72949 36.1834
-3.04425 0.31798 37.8695
-1.74729 -0.994702 36.7373
-1.41761 -3.73941 36.8512
-1.20697 0.0338943 38.302
-3.54076 1.761 38.6696
-2.13759 -4.75734 35.5573
-2.16199 2.45632 38.6299
-6.6997 -6.04369 36.5375
-2.63409 3.75116 36.9292
-3.71744 4.10744 37.479
-1.07083 3.21044 38.1988
-5.69734 -7.33188 38.3529
-1.51312 -6.87827 38.6304
-1.63551 4.55244 38.3351
