ply
format ascii 1.0           
element vertex 30
property double x           
property double y           
property double z           
end_header
-13.934 -9.89005 60.8544
-8.62246 -6.96071 59.3124
-7.92136 -8.60241 59.8786
-12.436 -7.835 59.535
-13.0314 -9.51256 60.0262
-2.17063 -9.05348 62.6292
-3.43389 -7.85329 62.4293
-13.7113 -5.42002 59.7394
-0.3815 -7.35859 62.2458
-6.31444 -8.67495 61.8483
-1.72519 -6.28292 62.263
-14.5245 -8.42566 60.5823
-12.2372 -10.8724 60.932
-12.3044 -5.19836 59.4825
-5.91454 -7.41543 60.9788
-11.3132 -4.046 58.8681
-4.52153 -5.90469 60.6144
-10.7015 -7.15619 58.9997
-10.7318 -11.6151 62.5992
-10.2836 -8.88536 59.3617
-9.74143 -6.10999 59.4855
-10.3811 -5.09602 58.7561
-10.685 -10.8202 61.2877
-5.8979 -4.5706 60.8505
-3.28374 -5.72797 61.3941
-4.18718 -7.47803 61.1149
-7.56613 -4.50993 60.6544
-11.8104 -9.34134 59.6915
-5.06516 -8.04857 62.2733
-6.66401 -6.05314 60.8903
