ply
format ascii 1.0           
element vertex 24
property double x           
property double y           
property double z           
end_header
1.92926 -7.26613 58.4091
-10.6966 -14.7372 56.0124
-6.63822 -7.95178 54.843
-12.3222 -11.6409 55.217
-10.5017 -9.79561 55.9174
2.82465 -5.10762 56.9441
-7.69501 -8.9804 53.9709
-8.26408 -6.30373 52.8235
-4.58702 -11.7742 55.9256
-0.203882 -4.10599 57.8206
-9.57413 -6.92073 54.8433
-3.50023 -6.85229 54.7609
-11.3822 -12.5424 56.3686
-3.84601 -9.47889 55.741
-1.45904 -9.3817 56.7884
-8.03922 -12.8137 55.004
-1.06687 -7.63287 56.8921
-9.31119 -14.3177 56.0151
1.08186 -5.35749 56.6484
1.29276 -3.11691 58.1436
1.04805 -7.13408 57.022
-5.43628 -11.4982 54.6224
-8.01905 -7.25308 53.8892
-2.92656 -10.9169 57.4672
