ply
format ascii 1.0           
element vertex 25
property double x           
property double y           
property double z           
end_header
-0.890641 -5.71368 58.6638
-5.70345 -4.42208 53.8905
-10.0519 -5.53811 55.4456
-7.29294 -12.9674 57.328
-10.4405 -10.3054 53.593
-10.1067 -3.75604 55.2476
-3.46447 -5.61525 57.2269
-6.34337 -12.2577 56.404
-11.2271 -10.6 55.3303
-7.64492 -5.57398 53.8674
0.996995 -3.25671 58.5005
-5.12063 -11.7367 57.4369
-8.74659 -3.06345 53.8031
-0.178689 -3.09598 57.0247
-9.10537 -9.13703 53.6249
-2.98412 -4.66399 56.3039
-6.55247 -7.92673 56.2495
-5.40887 -6.81345 54.7745
1.38153 -5.30095 58.618
-7.92203 -10.039 54.8975
-7.29241 -10.9468 56.0531
-8.26624 -11.9805 56.7699
-4.8676 -5.16444 54.9911
-5.67959 -10.0073 57.0295
-3.75161 -2.48798 56.7074
