ply
    format ascii 1.0           
    element vertex 28
    property double x           
    property double y           
    property double z           
    end_header
-0.0551499 -0.970377 3.8052
0.86747 -0.441918 4.16062
0.481772 -0.534252 4.16828
-0.711263 -0.810354 4.08092
0.824934 -0.612729 3.96935
-0.161654 -1.1697 4.04474
-0.360761 -1.09831 4.05619
0.80143 -1.01413 4.16495
0.135055 -0.445072 4.02675
-0.532191 -0.783257 3.88788
0.932919 -0.827359 3.99845
0.522374 -0.941433 3.89114
-0.392331 -0.91284 3.80463
-0.451801 -0.547568 3.86697
0.17483 -1.1385 4.1462
0.151548 -0.89923 3.89397
0.425867 -0.687755 4.0081
-0.201233 -0.794581 3.71359
0.0144874 -0.28179 4.2147
0.592214 -0.660762 3.88904
-0.527997 -0.270491 4.13799
-0.682892 -0.591155 3.93147
0.329424 -0.883029 4.01847
0.724652 -0.840308 3.96115
-0.184472 -0.220837 4.11845
-0.371304 -0.641425 3.62792
-0.199369 -0.521645 3.71637
-0.730656 -0.393759 4.08397
