ply
    format ascii 1.0           
    element vertex 13
    property double x           
    property double y           
    property double z           
    end_header
-0.3578 0.195171 1.2829
-0.226675 0.583565 1.15107
-0.346981 0.350805 1.20139
-0.36748 0.354814 1.20325
-0.205492 0.522632 1.13611
-0.251153 0.434993 1.12117
-0.312004 0.358142 1.16279
-0.335765 0.482716 1.14443
-0.35347 0.437552 1.17947
-0.142712 0.262587 1.26626
-0.264899 0.590075 1.14192
-0.186138 0.171521 1.36983
-0.1237 0.188229 1.35327
