ply
    format ascii 1.0           
    element vertex 23
    property double x           
    property double y           
    property double z           
    end_header
-0.198548 -0.325184 1.42368
-0.0213379 -0.322657 1.30951
-0.228383 -0.269128 1.37853
0.119269 -0.352334 1.37868
0.253854 -0.199678 1.3303
-0.0558942 -0.382584 1.38396
0.31887 -0.198599 1.36475
0.243486 -0.326073 1.38137
0.0668162 -0.22077 1.33782
-0.174277 -0.261537 1.3302
0.293337 -0.268007 1.3621
0.165555 -0.313523 1.33516
-0.130282 -0.303796 1.30454
0.049242 -0.367112 1.38519
0.129427 -0.225217 1.3481
-0.0690928 -0.266792 1.28291
0.183596 -0.218695 1.31706
0.0984761 -0.28953 1.35414
0.223463 -0.274145 1.33692
0.201033 -0.156806 1.3449
-0.0673469 -0.178031 1.27378
0.357573 -0.245253 1.42711
-0.00157504 -0.251938 1.28821
