ply
    format ascii 1.0           
    element vertex 17
    property double x           
    property double y           
    property double z           
    end_header
-0.197225 -0.488297 2.9898
0.390002 -0.177677 2.6198
-0.0104941 -0.722011 2.58269
1.14078 -0.446871 2.70915
0.527417 -0.320702 2.29397
-0.0739616 -0.621545 2.27424
0.794718 -0.252687 2.44
0.89641 -0.502301 2.4083
0.634411 -0.322572 2.21433
0.764272 -0.650509 2.63643
0.498584 -0.442376 2.22443
0.167292 -0.61358 2.43567
0.270479 -0.711067 2.51777
0.872146 -0.35051 2.33732
0.383765 -0.521117 2.1692
0.604331 -0.674848 2.58617
0.256478 -0.200292 2.33158
