ply
    format ascii 1.0           
    element vertex 16
    property double x           
    property double y           
    property double z           
    end_header
-0.53428 1.61058 2.98955
-0.745966 0.713054 3.28382
-0.885637 0.86268 3.15848
-0.583003 1.42797 2.94495
-0.65831 1.62096 3.00283
-0.431418 1.59457 3.03312
-0.485694 1.35454 2.96192
-0.626436 1.14662 3.04405
-0.722961 1.45391 2.98778
-0.756321 1.70137 3.09758
-0.247291 0.936905 3.35042
-0.597412 1.73042 2.98285
-0.223534 0.755126 3.52734
-0.403988 1.00808 3.09407
-0.882289 0.754985 3.2558
-0.0864961 1.0069 3.28761
