ply
    format ascii 1.0           
    element vertex 15
    property double x           
    property double y           
    property double z           
    end_header
-0.472836 0.477476 2.17087
-0.482433 1.02382 1.94745
-0.685371 0.369461 2.18748
-0.432424 1.1118 1.9851
-0.552822 0.895474 1.92974
-0.559465 1.05332 1.99835
-0.4 0.994119 1.94979
-0.647741 0.918684 1.97342
-0.669402 0.83702 2.05982
-0.284061 0.483995 2.14802
-0.355635 0.602381 1.95044
-0.359549 0.315862 2.33306
-0.242853 0.342376 2.27844
-0.6985 0.557962 2.07896
-0.455371 0.553115 1.99096
