ply
    format ascii 1.0           
    element vertex 17
    property double x           
    property double y           
    property double z           
    end_header
-0.288769 0.494159 1.66033
-0.351058 0.767869 1.57604
-0.499944 0.264107 1.7921
-0.585636 0.363614 1.73934
-0.219873 0.600555 1.71941
-0.286063 0.753702 1.5933
-0.349556 0.619415 1.56313
-0.435768 0.503557 1.61814
-0.473091 0.685395 1.59397
-0.495894 0.61677 1.63747
-0.45186 0.83292 1.6551
-0.373746 0.371419 1.75753
-0.371119 0.843866 1.58907
-0.240927 0.447434 1.58916
-0.249522 0.231984 1.925
-0.157585 0.257513 1.8926
-0.507375 0.404936 1.67257
