ply
    format ascii 1.0           
    element vertex 25
    property double x           
    property double y           
    property double z           
    end_header
1.71489 -1.22181 6.54578
2.94167 -0.970791 8.10462
1.92406 -0.610469 6.97557
-0.693249 -0.258293 7.19992
-0.374949 -2.15002 7.76368
-0.220442 -0.550428 7.57828
2.62 -1.3078 7.43841
1.60198 -0.549989 7.10321
-0.577629 -0.86302 7.30538
0.900563 -0.774295 6.41535
-0.418154 -0.0897484 7.44931
-0.926928 -1.79341 8.29576
-0.434745 -1.52198 5.63238
1.78907 -0.807183 6.63388
2.08892 -1.47288 6.66404
1.46768 -1.01994 6.32349
-0.0761447 -0.265248 7.54787
1.72501 -1.88424 7.49149
1.10771 -1.37556 6.48021
0.155592 -1.8281 7.1351
0.438497 -2.11333 7.52999
2.05068 -1.09139 6.53825
1.18918 -1.76796 6.6385
0.404988 -0.661083 6.53807
0.920606 -0.439794 7.11448
