ply
    format ascii 1.0           
    element vertex 12
    property double x           
    property double y           
    property double z           
    end_header
-0.333527 -0.383907 1.58397
0.270272 -0.497027 1.53051
-0.27888 -0.185309 1.39655
-0.350522 -0.150105 1.47828
-0.0405221 -0.405312 1.29853
-0.247917 -0.301088 1.41279
0.091357 -0.343636 1.34965
0.219688 -0.290728 1.43039
0.155158 -0.315018 1.28081
0.382454 -0.422285 1.51638
0.269054 -0.324091 1.33417
0.0298225 -0.431424 1.27027
