ply
    format ascii 1.0           
    element vertex 23
    property double x           
    property double y           
    property double z           
    end_header
-0.247711 -0.387023 1.68267
-0.0301663 -0.375422 1.49979
-0.282299 -0.31757 1.61926
0.140913 -0.418437 1.6154
0.308297 -0.237517 1.57959
-0.0726639 -0.451783 1.61182
-0.15109 -0.428015 1.61283
0.39355 -0.238166 1.63866
-0.213171 -0.305345 1.54043
0.354723 -0.320244 1.61335
0.194868 -0.370118 1.55396
-0.158739 -0.351659 1.48843
0.0550039 -0.435594 1.6216
0.0466615 -0.351145 1.54959
0.153678 -0.267028 1.59251
-0.0860077 -0.3091 1.46642
0.219844 -0.258533 1.54746
-0.271943 -0.232013 1.56545
0.115275 -0.343677 1.59085
0.267315 -0.324752 1.56575
0.24384 -0.185386 1.608
-0.0854373 -0.206513 1.47545
0.446786 -0.298765 1.73683
