ply
    format ascii 1.0           
    element vertex 17
    property double x           
    property double y           
    property double z           
    end_header
0.0751921 -0.241372 1.84257
-0.25224 -0.479135 2.03405
-0.295056 -0.377181 1.97239
0.225284 -0.503985 1.90174
0.430895 -0.28415 1.90194
-0.0396895 -0.542256 1.89553
-0.135438 -0.513812 1.93037
0.150778 -0.305502 1.91992
-0.210751 -0.350183 1.86344
0.48981 -0.385744 1.92231
0.109371 -0.409632 1.85104
0.319465 -0.30355 1.8454
-0.383109 -0.294593 2.08235
-0.286172 -0.263853 1.92781
0.378084 -0.384318 1.8566
0.6061 -0.389054 2.07844
0.0454541 -0.329892 1.7805
