ply
    format ascii 1.0           
    element vertex 32
    property double x           
    property double y           
    property double z           
    end_header
1.2948 -0.98331 8.29554
2.06534 -1.72577 8.29723
2.94964 -1.25247 8.59253
2.16886 -2.1326 8.03781
2.15596 -0.973285 8.28896
-0.616283 -0.633398 8.35609
-0.910731 -0.418953 8.57327
-0.230484 -2.43387 8.34652
-0.0897885 -0.915019 8.42307
0.651962 -2.03561 8.35857
-0.477148 -1.2553 8.44935
-0.310103 -0.404899 8.36036
-0.731188 -2.06649 8.74991
1.39557 -1.48372 8.176
-0.380328 -1.66009 6.36252
1.60662 -1.10634 8.11386
2.33807 -1.88266 7.9439
1.78884 -1.51857 8.12075
2.90035 -1.97211 8.4508
0.0193538 -0.595804 8.23282
1.8568 -2.2238 8.31372
0.871247 -1.53054 8.21938
1.37147 -1.89819 8.24845
0.556137 -2.42011 8.22367
-0.891083 -0.818097 8.40973
2.39791 -1.54872 8.16179
1.02208 -2.15265 8.15362
1.44073 -2.30316 8.28862
0.563778 -1.09194 8.19557
0.417878 -1.58892 8.0681
1.0542 -0.798881 8.27392
0.670629 -0.747763 8.38816
