ply
    format ascii 1.0           
    element vertex 17
    property double x           
    property double y           
    property double z           
    end_header
-0.169777 -0.301977 1.26975
0.260904 -0.29853 1.10238
0.0880752 -0.208247 1.14459
-0.136804 -0.154075 1.12705
-0.190245 -0.121297 1.16798
0.0585722 -0.349584 1.09181
-0.113483 -0.246921 1.15086
0.16365 -0.271565 1.04568
-0.102414 -0.369484 1.13987
0.222312 -0.271438 1.06402
0.251453 -0.388397 1.19323
0.164005 -0.329526 1.08181
0.0124047 -0.399143 1.1516
0.0545548 -0.429259 1.1885
0.315255 -0.271972 1.09278
0.117047 -0.373766 1.0742
0.0456794 -0.22007 1.07378
