ply
    format ascii 1.0           
    element vertex 19
    property double x           
    property double y           
    property double z           
    end_header
-0.259829 -0.574357 2.4427
0.294609 -0.361544 2.00273
0.477673 -0.53464 1.9785
0.199203 -0.407296 2.21653
-0.0613929 -0.374394 2.17258
0.726056 -0.521815 2.23233
0.433061 -0.347694 2.0903
-0.156542 -0.465902 2.13374
-0.131247 -0.24204 2.22758
-0.249767 -0.697562 2.46388
0.589764 -0.591452 2.03568
0.407003 -0.486924 1.91003
0.763193 -0.610193 2.27405
-0.0362541 -0.286586 2.27049
0.311077 -0.582635 1.93278
0.0600535 -0.707199 2.08183
0.136442 -0.764475 2.18765
0.56796 -0.490082 1.98025
0.112935 -0.408857 1.9434
