ply
    format ascii 1.0           
    element vertex 22
    property double x           
    property double y           
    property double z           
    end_header
-0.563791 -0.332032 3.06845
0.646865 -0.198859 3.04687
-0.149771 -0.615321 2.97369
-0.306802 -0.558734 3.01155
0.818643 -0.23014 3.17468
0.60053 -0.533512 3.05387
-0.422624 -0.275286 2.93363
0.730434 -0.384881 3.06654
-0.315526 -0.351261 2.80326
0.109965 -0.60113 2.97847
0.103233 -0.39549 2.91722
0.325373 -0.255611 3.03955
-0.16192 -0.259862 2.79023
0.466639 -0.216345 2.98534
-0.686896 -0.209333 3.20149
-0.531435 -0.148476 2.9687
0.24196 -0.399327 3.02448
0.552938 -0.368092 2.96148
-0.153836 -0.0527813 2.86957
0.901373 -0.410026 3.28246
0.00366563 -0.240568 2.86505
0.762936 -0.544707 3.23819
