ply
    format ascii 1.0           
    element vertex 22
    property double x           
    property double y           
    property double z           
    end_header
-0.240608 -0.295657 1.77086
-0.0198001 -0.27118 1.61115
-0.279759 -0.207418 1.72904
0.351562 -0.147845 1.70753
-0.0670858 -0.365409 1.69425
-0.145849 -0.335346 1.71074
0.439953 -0.155216 1.74752
0.326145 -0.320006 1.71956
-0.209131 -0.1906 1.6603
0.397165 -0.239398 1.72074
0.22121 -0.27743 1.66212
-0.155042 -0.236528 1.60614
0.069486 -0.360135 1.70277
0.0635649 -0.248679 1.66796
0.183539 -0.170745 1.71053
-0.0767773 -0.190701 1.59442
-0.341573 -0.136425 1.7788
-0.267129 -0.114843 1.68152
-0.069722 -0.0774695 1.61691
0.484289 -0.242007 1.81339
0.0118126 -0.17785 1.61349
0.409613 -0.312331 1.80284
