ply
    format ascii 1.0           
    element vertex 21
    property double x           
    property double y           
    property double z           
    end_header
0.0780054 -0.125891 2.44348
-0.402224 -0.474678 2.63853
-0.0191217 -0.416033 2.34674
0.607197 -0.198296 2.47615
-0.0991686 -0.584331 2.48567
-0.235827 -0.535637 2.51943
0.571239 -0.494918 2.50278
0.189766 -0.226546 2.49601
-0.346317 -0.28572 2.45281
0.69403 -0.358949 2.52424
-0.254835 -0.361752 2.35988
0.134282 -0.567032 2.47473
0.123263 -0.378261 2.44002
0.32876 -0.245738 2.52264
-0.117832 -0.278491 2.32924
0.447343 -0.221266 2.44043
-0.338749 0.0392315 2.69262
-0.452843 -0.158567 2.5146
0.251813 -0.384138 2.48268
0.530095 -0.354594 2.4415
0.495356 -0.107635 2.55819
