ply
    format ascii 1.0           
    element vertex 19
    property double x           
    property double y           
    property double z           
    end_header
-0.362407 -0.513141 2.45975
-0.0476879 -0.465296 2.1709
0.205375 -0.554294 2.33419
0.449867 -0.289466 2.31394
-0.225533 -0.559373 2.34172
0.578879 -0.306009 2.40968
-0.313567 -0.361645 2.27141
0.519649 -0.419732 2.35148
-0.235029 -0.4245 2.18537
0.0658321 -0.440121 2.25569
0.318723 -0.310306 2.26464
-0.513116 -0.293696 2.48369
-0.40146 -0.257761 2.32958
0.16494 -0.437969 2.31387
0.386149 -0.413884 2.26828
0.357015 -0.21407 2.39285
-0.228162 -0.268452 2.16293
0.641098 -0.42007 2.49632
-0.00979698 -0.340632 2.1874
