ply
    format ascii 1.0           
    element vertex 22
    property double x           
    property double y           
    property double z           
    end_header
-0.201248 -0.445875 3.27728
-0.517835 -0.542154 3.49985
-0.0680802 -0.436139 3.18096
-0.585947 -0.357421 3.39291
0.671104 -0.2183 3.39503
-0.162721 -0.650688 3.30868
-0.326973 -0.596447 3.34872
0.626656 -0.568811 3.40636
-0.449988 -0.296879 3.29091
0.771104 -0.413387 3.44851
0.421006 -0.469916 3.29886
-0.338153 -0.378972 3.16637
0.111448 -0.640183 3.32998
0.102652 -0.416318 3.29588
-0.177071 -0.273181 3.15932
0.481091 -0.234882 3.33404
-0.435131 0.0353922 3.55241
-0.568906 -0.155831 3.36769
0.246085 -0.425575 3.3711
-0.328999 -0.132758 3.2178
0.937548 -0.441809 3.62395
0.793805 -0.584287 3.58605
