ply
    format ascii 1.0           
    element vertex 25
    property double x           
    property double y           
    property double z           
    end_header
0.0243664 -0.629452 2.66199
0.37665 -0.34988 2.86571
0.321558 -0.713945 2.81824
0.607621 -0.396893 2.76027
-0.0442447 -0.76776 2.81666
-0.500698 -0.583965 2.99795
-0.177371 -0.721961 2.83334
0.580638 -0.664514 2.84109
0.214566 -0.432723 2.78624
0.0059921 -0.251944 2.76587
0.255662 -0.32187 2.88175
0.67909 -0.54127 2.78388
0.410613 -0.619751 2.72798
-0.194539 -0.59195 2.67021
0.17696 -0.744587 2.86582
0.161022 -0.585792 2.735
0.343836 -0.445701 2.7776
0.456835 -0.427785 2.72252
-0.510869 -0.406442 2.94049
0.537713 -0.54549 2.73909
-0.053818 -0.146079 2.88506
-0.188029 -0.405171 2.58787
-0.0653139 -0.326987 2.64413
0.832705 -0.511971 2.97103
-0.416303 -0.254473 2.90703
