ply
    format ascii 1.0           
    element vertex 20
    property double x           
    property double y           
    property double z           
    end_header
-0.323675 -0.535696 2.36439
-0.026888 -0.504389 2.12901
-0.370663 -0.428254 2.28646
0.21075 -0.581948 2.2681
0.4434 -0.324366 2.23033
-0.184729 -0.17722 2.26156
-0.0875601 -0.623713 2.26555
-0.276603 -0.408139 2.18781
0.285864 -0.507939 2.18327
-0.206496 -0.473842 2.13185
0.0834556 -0.474405 2.19491
0.230898 -0.364979 2.24258
-0.102128 -0.407339 2.08604
0.323323 -0.349295 2.19567
-0.460906 -0.334345 2.36386
0.174922 -0.469132 2.24137
0.38926 -0.448306 2.21828
0.356639 -0.253665 2.28238
0.635112 -0.431044 2.43136
0.00895418 -0.387375 2.10875
