ply
    format ascii 1.0           
    element vertex 17
    property double x           
    property double y           
    property double z           
    end_header
-0.537779 0.436656 2.20027
-0.349193 1.0746 2.02161
-0.331393 0.909659 2.03507
-0.625649 0.5404 2.128
-0.247942 0.81528 2.14356
-0.548754 0.691062 2.06486
-0.447781 1.01843 2.01489
-0.303262 0.98521 2.01399
-0.447626 0.716333 2.0453
-0.501121 0.90876 1.99449
-0.539117 0.823918 2.03189
-0.508197 1.05565 2.04601
-0.294194 0.412115 2.35829
-0.537067 0.595374 2.08968
-0.306814 0.622139 2.07728
-0.627455 0.467164 2.18073
-0.463485 0.795274 2.00085
