ply
    format ascii 1.0           
    element vertex 18
    property double x           
    property double y           
    property double z           
    end_header
1.16664 -0.294282 2.72658
-0.00963003 -0.685829 2.45334
0.0337136 -0.160699 2.45763
0.260035 -0.471218 2.16027
1.04041 -0.410589 2.48594
-0.0925008 -0.274535 2.40718
-0.0436615 0.0146484 2.59874
0.483218 -0.293057 2.09721
0.590367 -0.196995 2.23713
1.07569 -0.528276 2.51785
0.70558 -0.601601 2.43786
0.482058 -0.426043 2.14281
0.159366 -0.58403 2.31863
0.25704 -0.673082 2.38353
0.825685 -0.330101 2.20371
0.373613 -0.506452 2.10836
0.55643 -0.62173 2.38209
0.239944 -0.191184 2.22078
