ply
    format ascii 1.0           
    element vertex 30
    property double x           
    property double y           
    property double z           
    end_header
1.42402 -0.947243 5.45918
2.31667 -0.684911 6.3212
1.69058 -1.41694 5.9893
1.61687 -0.438606 5.83971
-0.49481 -0.183403 5.87207
-0.733782 -0.00837148 6.1145
-0.210772 -1.57601 6.02548
-0.0928814 -0.398 6.02128
1.32905 -0.425868 5.85505
-0.386926 -0.657373 5.95237
0.781406 -0.61451 5.39503
-0.275408 -0.0204935 6.0492
0.946456 -0.784528 5.27782
-0.470235 -1.80064 7.28158
1.49177 -0.612722 5.57774
1.14167 -0.542724 5.49357
1.72545 -1.15122 5.57198
1.24248 -0.816336 5.36572
-0.0155704 -0.158573 6.05493
0.58631 -0.812143 5.32451
0.951259 -1.10318 5.51545
0.182212 -1.37934 5.71196
0.390378 -1.57978 5.92354
-0.75697 -0.330909 6.30222
1.71779 -0.858701 5.52603
0.725954 -1.529 5.70434
0.695426 -1.27105 5.40474
0.382189 -0.520661 5.43803
0.794391 -0.328853 6.013
0.533776 -0.330591 6.45711
