ply
    format ascii 1.0           
    element vertex 12
    property double x           
    property double y           
    property double z           
    end_header
0.0369965 -0.239716 1.03601
0.108242 -0.160849 0.921531
-0.0907939 -0.121947 0.954056
-0.138253 -0.0927299 1.00667
0.38721 -0.239714 0.993877
-0.0666119 -0.204144 0.963743
-0.0530096 -0.0892762 0.985234
0.226263 -0.220489 0.859313
0.266786 -0.336789 1.01905
0.313533 -0.223526 0.892928
0.133711 -0.305454 0.865035
0.203059 -0.3451 0.969062
