ply
    format ascii 1.0           
    element vertex 19
    property double x           
    property double y           
    property double z           
    end_header
-0.0256867 -0.154546 1.79454
0.173578 -0.328283 1.81645
0.370833 -0.117486 1.82113
-0.377371 -0.243642 1.95199
0.458717 -0.132446 1.86566
0.34698 -0.305042 1.83702
0.108733 -0.137245 1.82727
-0.229836 -0.163296 1.80839
0.416939 -0.220457 1.82902
0.237798 -0.255124 1.7896
0.0703612 -0.231765 1.7906
-0.0828526 -0.156206 1.73225
0.270711 -0.127632 1.79262
-0.372995 -0.12205 1.93326
-0.292781 -0.090738 1.83034
0.320102 -0.213652 1.79041
0.0126893 -0.143415 1.7548
0.430369 -0.305371 1.90827
0.253518 -0.338719 1.85485
