ply
    format ascii 1.0           
    element vertex 18
    property double x           
    property double y           
    property double z           
    end_header
-0.521412 1.10573 2.10439
-0.740312 0.398963 2.36259
-0.471347 0.971722 2.12646
-0.596579 0.966983 2.08262
-0.603715 1.13631 2.15557
-0.432626 1.07545 2.11055
-0.529711 0.883663 2.06599
-0.699292 0.991407 2.13022
-0.722831 0.904421 2.2252
-0.656776 1.20344 2.21569
-0.306897 0.522288 2.32067
-0.549417 1.21869 2.12315
-0.479098 0.876867 2.20365
-0.387792 0.34045 2.51809
-0.2637 0.372412 2.4717
-0.747018 0.596542 2.22323
-0.489682 0.594141 2.14109
-0.175404 0.555924 2.24857
