ply
    format ascii 1.0           
    element vertex 18
    property double x           
    property double y           
    property double z           
    end_header
-0.310475 -0.507778 2.17676
-0.355046 -0.402786 2.12713
0.182981 -0.538068 2.08325
0.39786 -0.307338 2.08983
-0.0920977 -0.577202 2.06889
0.506233 -0.317519 2.15449
-0.268347 -0.372694 2.02989
0.462141 -0.415802 2.11467
0.24943 -0.463127 2.02987
0.0627945 -0.437897 2.03531
0.201477 -0.345664 2.10267
-0.106229 -0.365995 1.94055
0.28699 -0.329278 2.04905
-0.439798 -0.317219 2.21181
-0.344703 -0.283197 2.08193
0.315807 -0.239033 2.15215
-0.101001 -0.234666 1.97083
0.566027 -0.416993 2.23949
