ply
    format ascii 1.0           
    element vertex 16
    property double x           
    property double y           
    property double z           
    end_header
-0.605498 2.04984 3.66937
-0.955598 0.807743 4.04535
-0.581225 2.16543 3.68915
-1.12215 1.01274 3.84273
-0.771212 2.04376 3.62614
-0.47945 2.03223 3.76355
-0.917439 1.63178 3.66304
-0.896398 2.08454 3.61544
-0.301494 1.12552 4.2146
-0.27422 1.39046 3.96799
-0.521947 0.765029 4.36872
-0.314501 0.863833 4.4123
-0.453992 1.26498 3.95352
-1.12046 0.852421 3.92356
-0.0694002 1.2362 4.23279
-0.765935 1.60502 3.68827
