ply
    format ascii 1.0           
    element vertex 22
    property double x           
    property double y           
    property double z           
    end_header
-0.350589 -0.555107 4.17724
-0.172486 -0.533383 4.07182
-0.858343 -0.444838 4.37458
0.298786 -0.759253 4.37727
-0.298996 -0.82007 4.24887
-0.514223 -0.753016 4.30288
0.725378 -0.719685 4.44908
-0.668134 -0.365834 4.19204
0.923326 -0.517742 4.54905
0.451919 -0.585474 4.25497
-0.517273 -0.461944 4.01922
0.0533354 -0.807691 4.2912
0.0422992 -0.517119 4.23349
-0.310907 -0.330473 3.99672
0.530259 -0.284311 4.32687
-0.675169 0.062471 4.66367
-1.04754 -0.290285 4.59089
-0.825464 -0.191789 4.29397
0.226977 -0.533951 4.35263
0.656817 -0.482106 4.32538
-0.50059 -0.159467 4.06769
-0.0922595 -0.309758 4.11631
