ply
    format ascii 1.0           
    element vertex 13
    property double x           
    property double y           
    property double z           
    end_header
0.109422 -0.208028 1.26625
0.176973 -0.152325 1.19648
0.147061 -0.27118 1.17134
0.00998474 -0.182392 1.23482
0.33945 -0.193386 1.2268
0.287518 -0.215795 1.14236
0.313974 -0.322956 1.25612
0.252928 -0.284951 1.23071
0.142473 -0.34993 1.25311
-0.0454338 -0.152906 1.47288
0.195021 -0.294502 1.1551
0.197113 -0.336258 1.19276
0.283113 -0.271449 1.16875
