ply
    format ascii 1.0           
    element vertex 21
    property double x           
    property double y           
    property double z           
    end_header
-0.325369 -0.414877 2.47956
-0.0194578 -0.372568 2.24506
0.488569 -0.206679 2.38188
-0.0847879 -0.504925 2.35812
-0.194941 -0.464362 2.38199
0.619821 -0.222816 2.48205
0.456113 -0.445997 2.41026
-0.279005 -0.264876 2.31995
0.556519 -0.337051 2.42856
0.313235 -0.385874 2.33244
0.102494 -0.49751 2.36935
0.0955561 -0.345771 2.33607
0.356522 -0.222771 2.34034
-0.465287 -0.195742 2.49541
-0.359938 -0.162542 2.36104
0.393698 -0.131148 2.44376
-0.191927 -0.171063 2.22942
0.673663 -0.342478 2.55154
0.0238611 -0.2464 2.26289
0.573557 -0.44097 2.5409
0.335445 -0.481494 2.45128
