ply
    format ascii 1.0           
    element vertex 14
    property double x           
    property double y           
    property double z           
    end_header
0.0238612 -0.244525 1.6495
-0.125272 -0.105563 1.52766
0.0843057 -0.302427 1.42479
-0.0989735 -0.20813 1.52986
-0.0775846 -0.0710234 1.57082
0.209951 -0.227688 1.48164
0.330518 -0.190201 1.53657
0.264435 -0.214291 1.41155
0.484434 -0.326989 1.59589
0.314247 -0.384294 1.59624
0.0822051 -0.408513 1.5284
0.146425 -0.318556 1.40552
0.232672 -0.382167 1.53752
0.150994 -0.378299 1.44594
