ply
    format ascii 1.0           
    element vertex 16
    property double x           
    property double y           
    property double z           
    end_header
-0.605844 1.7044 3.07458
-0.864548 0.759403 3.44338
-0.579277 1.84474 3.15448
-0.994299 0.919428 3.27659
-0.87629 1.16762 3.17251
-0.499742 1.6905 3.13986
-0.551861 1.42176 3.04093
-0.705765 1.20632 3.12246
-0.276518 1.14003 3.42027
-0.672994 1.83705 3.06855
-0.321884 0.82793 3.8542
-0.842014 1.00274 3.18788
-0.484937 1.06531 3.21632
-1.0067 0.805158 3.39412
-0.153161 1.09799 3.55902
-0.727203 1.32477 3.03091
