ply
    format ascii 1.0           
    element vertex 22
    property double x           
    property double y           
    property double z           
    end_header
-0.342333 -0.503437 2.1308
-0.0757199 -0.462022 1.93748
-0.386123 -0.406652 2.07503
0.134721 -0.534577 2.05926
0.341269 -0.307093 2.04803
-0.128135 -0.5759 2.03859
-0.223525 -0.543847 2.05138
0.44534 -0.314684 2.12261
0.322393 -0.503722 2.08971
-0.301187 -0.37953 1.99066
0.201058 -0.462899 2.00959
-0.234594 -0.427722 1.9315
0.0286024 -0.556809 2.05931
0.0201262 -0.439836 1.99829
-0.14232 -0.373309 1.90966
0.23407 -0.325904 2.01142
-0.466908 -0.32387 2.14938
-0.373297 -0.292555 2.02628
0.104316 -0.43812 2.04398
-0.139966 -0.244565 1.93792
0.500282 -0.412436 2.19948
-0.0425347 -0.357714 1.9419
