ply
    format ascii 1.0           
    element vertex 12
    property double x           
    property double y           
    property double z           
    end_header
0.0420726 -0.217803 1.85825
0.105508 -0.292292 1.51926
-0.0741215 -0.0169067 1.75363
0.258708 -0.211335 1.60641
-0.106514 -0.447659 1.81431
0.406368 -0.173786 1.68444
0.315902 -0.202498 1.50544
0.585018 -0.339908 1.75612
0.101359 -0.41518 1.65441
0.444432 -0.217946 1.56593
0.175612 -0.313095 1.49056
0.281174 -0.389385 1.67359
