ply
    format ascii 1.0           
    element vertex 22
    property double x           
    property double y           
    property double z           
    end_header
-1.22805 -1.48347 6.84402
-0.231083 -1.26429 5.77702
-1.38526 -1.08177 6.54471
0.575417 -1.61044 6.43501
-0.7431 -0.24874 6.53623
-0.796143 -1.61287 6.43825
1.26043 -1.50559 6.43108
0.284451 -0.830713 6.37094
-0.480563 -0.919399 5.72435
-0.0800975 -0.232106 7.0024
0.920559 -0.804562 6.12311
-1.06753 -0.170631 7.03067
-1.70951 -0.792234 6.98791
-1.35379 -0.665126 6.51997
0.43973 -1.20425 6.24761
1.13675 -1.13714 6.14894
1.06268 -0.521546 6.55962
-0.456777 -0.459298 5.87183
-1.46666 -0.372315 7.05048
-0.108007 -0.867701 5.78745
1.70284 -1.5563 7.06362
0.907865 -1.65017 6.59034
