ply
    format ascii 1.0           
    element vertex 24
    property double x           
    property double y           
    property double z           
    end_header
0.109195 -0.28037 2.13745
-0.239882 -0.517753 2.3337
0.0439432 -0.498933 2.11343
0.274383 -0.564883 2.23975
0.494577 -0.313347 2.18022
-0.0099872 -0.60758 2.23444
-0.115735 -0.573511 2.25075
0.610547 -0.315737 2.25518
0.477952 -0.525089 2.2578
-0.19919 -0.403219 2.16559
0.224553 -0.258455 2.28467
0.344383 -0.488819 2.16193
-0.12801 -0.469945 2.11672
0.163614 -0.586115 2.26493
0.149701 -0.464 2.16907
0.292043 -0.351241 2.18738
-0.0307878 -0.404614 2.07507
0.379229 -0.339488 2.15913
-0.280217 -0.306851 2.2155
0.444954 -0.433283 2.18277
0.412914 -0.242754 2.22183
-0.0264878 -0.26105 2.08492
0.671355 -0.404864 2.35972
0.0778868 -0.382336 2.08886
