ply
    format ascii 1.0           
    element vertex 25
    property double x           
    property double y           
    property double z           
    end_header
-1.4114 -1.00724 8.21938
-0.181003 -0.58433 7.20675
-1.57438 -0.492963 8.08234
1.72032 -0.147879 8.26482
-0.881183 -1.07722 7.72296
1.5787 -1.04069 7.97033
0.440419 -0.199 8.24963
1.04011 -0.730113 7.58653
-0.840126 -0.435011 7.02039
0.255074 -1.18048 7.69563
0.239305 -0.594099 7.65322
0.83658 -0.286003 8.18102
-0.459282 -0.167527 7.25928
1.20108 -0.166654 7.84051
-1.94892 -0.241017 8.55292
-1.57426 0.0954309 8.34172
0.580706 -0.641324 7.7395
1.4235 -0.560154 7.66756
2.41373 -0.854117 8.80723
-0.0235199 -0.145982 7.50663
1.97393 -1.17589 8.34411
1.11267 -1.20947 8.00144
-0.130275 -0.942709 7.47097
0.841537 -1.55218 8.32785
-0.132216 -1.42769 8.6258
