ply
    format ascii 1.0           
    element vertex 24
    property double x           
    property double y           
    property double z           
    end_header
-0.224718 -0.362532 1.54698
-0.0198181 -0.355894 1.39565
-0.260095 -0.296486 1.49313
0.143269 -0.393829 1.49143
0.301151 -0.222926 1.44366
-0.0589957 -0.429738 1.48609
-0.132788 -0.404064 1.49229
0.381405 -0.219946 1.49476
0.289279 -0.366275 1.50398
-0.195545 -0.287184 1.42543
0.342598 -0.304579 1.47189
0.195281 -0.348182 1.43906
-0.144241 -0.332694 1.38646
0.0623258 -0.411038 1.49688
0.154618 -0.250378 1.45915
0.218577 -0.241756 1.42272
-0.320722 -0.225134 1.53445
-0.251373 -0.216527 1.43963
0.119287 -0.32234 1.46703
0.264229 -0.3058 1.4415
0.240027 -0.17028 1.46637
-0.0735772 -0.191291 1.3628
0.426781 -0.277674 1.57392
0.00325374 -0.278 1.379
