ply
    format ascii 1.0           
    element vertex 24
    property double x           
    property double y           
    property double z           
    end_header
0.818367 -0.649721 3.11223
0.373999 -0.428245 3.69341
0.911047 -0.358861 3.27056
1.03255 -0.455519 3.21916
-0.141597 -1.04618 3.45786
-0.0784192 -0.347061 3.41621
0.228692 -0.762324 3.06973
1.22959 -0.676241 3.43388
-0.246488 -0.49221 3.38565
-0.180864 -0.126532 3.49412
-0.381373 -0.896904 3.72818
0.533407 -0.539451 2.99273
-0.212513 -0.851622 2.96443
0.653468 -0.410549 3.12467
0.999502 -0.770881 3.17117
0.697274 -0.560034 3.00136
0.801568 -0.934037 3.40189
0.532122 -0.717052 3.06793
0.219952 -1.03613 3.39167
0.978264 -0.589258 3.11244
0.389131 -0.832264 3.05952
0.609071 -0.960795 3.35585
0.19741 -0.393448 3.0778
0.450397 -0.304874 3.43863
