ply
    format ascii 1.0           
    element vertex 16
    property double x           
    property double y           
    property double z           
    end_header
-0.845644 0.919299 3.94788
-0.573838 2.15194 3.71633
-0.989139 1.07865 3.74737
-0.623719 1.79773 3.58428
-0.869953 1.40366 3.72676
-0.736565 2.01258 3.63217
-0.46475 1.97963 3.69055
-0.673787 1.45589 3.68463
-0.792625 1.80324 3.58141
-0.667845 2.15597 3.64545
-0.258774 1.3859 3.74504
-0.489054 0.923888 4.3497
-0.307485 1.0238 4.42
-0.416257 1.30309 3.80571
-1.00762 0.968181 3.90951
-0.093442 1.33071 4.13758
