ply
    format ascii 1.0           
    element vertex 19
    property double x           
    property double y           
    property double z           
    end_header
-0.0500567 -0.477192 1.968
0.39795 -0.302953 2.10483
-0.106125 -0.585199 2.1258
-0.210171 -0.555255 2.13315
0.517764 -0.306504 2.21019
-0.290535 -0.387552 2.03992
0.463158 -0.416716 2.15044
0.0511007 -0.447627 2.05123
-0.12121 -0.38765 1.92821
0.278642 -0.327002 2.05575
-0.300172 -0.133784 2.2427
-0.473211 -0.316446 2.2393
-0.370861 -0.293332 2.08785
0.141277 -0.441949 2.10521
0.343373 -0.416937 2.07175
0.312739 -0.23382 2.16988
-0.212048 -0.313167 1.92621
0.582639 -0.400712 2.31364
-0.0164318 -0.368517 1.96594
