ply
    format ascii 1.0           
    element vertex 25
    property double x           
    property double y           
    property double z           
    end_header
-1.24086 -2.0166 8.63566
1.92727 -0.872542 8.72249
1.06251 -1.05476 8.47711
-1.40791 -1.55335 8.12593
1.7518 -1.12015 7.86249
2.26104 -1.17807 8.42542
0.532437 -1.24656 7.95377
-0.981457 -1.39333 7.40981
2.03236 -1.60891 8.13576
-0.717332 -1.60021 7.14191
0.409521 -2.30147 8.36828
0.363131 -1.68965 7.64211
0.935934 -1.29197 7.93427
-0.314567 -1.3456 6.83639
0.111708 -0.531523 8.88186
1.25756 -1.1809 7.53872
-1.05884 -0.476291 8.65231
-1.7833 -1.22209 8.61929
-1.33669 -1.07762 7.84605
1.53986 -1.58301 7.76145
-0.322265 -0.392178 8.70954
-0.305615 -0.825783 6.95372
2.63869 -1.67328 9.25041
-1.51826 -0.751625 8.60238
0.0950671 -1.27684 6.97437
