ply
    format ascii 1.0           
    element vertex 20
    property double x           
    property double y           
    property double z           
    end_header
-0.12914 -0.618595 4.19493
-0.895337 -0.500735 4.77895
0.918536 -0.331351 4.74728
-0.275264 -0.922421 4.60809
1.23774 -0.383302 5.17627
-0.668253 -0.423759 4.45956
1.07258 -0.61149 4.87713
-0.411456 -0.583408 4.29187
0.11946 -0.913775 4.66129
0.103697 -0.596808 4.49542
0.634563 -0.352061 4.59074
-0.711241 0.101617 5.33735
-1.13143 -0.313004 5.17861
-0.854579 -0.217891 4.68618
0.309544 -0.617854 4.65481
0.767061 -0.570892 4.55413
0.745995 -0.173155 5.08585
-0.476522 -0.215863 4.22624
1.39051 -0.660887 5.43776
-0.0416089 -0.378435 4.28954
