ply
    format ascii 1.0           
    element vertex 15
    property double x           
    property double y           
    property double z           
    end_header
-1.00684 0.651992 3.6858
-0.652484 1.93313 3.45104
-1.1704 0.871819 3.5636
-0.842935 1.80764 3.39416
-0.566495 1.74696 3.41339
-0.418566 1.2305 3.48996
-0.825286 1.19177 3.36008
-0.931213 1.57849 3.30787
-0.989525 1.42102 3.39521
-0.970698 1.91412 3.52379
-0.370329 0.910698 3.8297
-0.76217 1.93917 3.37173
-0.566379 0.614376 4.15446
-0.98566 0.95818 3.43594
-0.559654 1.00364 3.40518
