ply
    format ascii 1.0           
    element vertex 15
    property double x           
    property double y           
    property double z           
    end_header
-0.451184 0.445205 1.84003
-0.50257 0.521034 1.7507
-0.349912 0.855216 1.72781
-0.394527 0.744194 1.86797
-0.415771 0.843698 1.69117
-0.443027 0.769693 1.71369
-0.446254 0.939978 1.70293
-0.373803 1.02511 1.77244
-0.203682 0.690307 1.85654
-0.237164 0.479564 2.02491
-0.432962 0.586083 1.76028
-0.508995 0.459082 1.78563
-0.140897 0.632174 1.96924
-0.383854 0.763412 1.7304
-0.407495 1.01579 1.75543
