ply
    format ascii 1.0           
    element vertex 17
    property double x           
    property double y           
    property double z           
    end_header
-0.16224 -0.327436 1.42481
0.283048 -0.315193 1.20701
-0.128873 -0.166813 1.25436
-0.183592 -0.133488 1.31419
-0.0585984 -0.463497 1.32542
-0.0461517 -0.209189 1.30163
-0.103629 -0.265366 1.28097
-0.0868669 -0.130032 1.29186
0.185467 -0.291287 1.18138
-0.0982743 -0.403161 1.29511
0.35088 -0.356354 1.23926
0.240597 -0.285099 1.16875
-0.0336662 -0.162167 1.33238
0.180311 -0.343646 1.18967
0.0240634 -0.422279 1.2675
0.341443 -0.288274 1.20575
0.131942 -0.387829 1.18344
