ply
    format ascii 1.0           
    element vertex 15
    property double x           
    property double y           
    property double z           
    end_header
-1.83634 1.05815 6.68886
-1.11541 3.56196 6.43869
-2.18193 1.50729 6.57106
-1.49185 3.31962 6.30612
-0.933325 3.1527 6.2367
-1.68579 2.88433 6.12225
-1.80863 2.57674 6.29446
-1.71109 3.51594 6.54481
-0.662065 1.90077 6.08116
-0.956499 0.909886 7.51692
-0.547126 1.03084 7.40313
-1.81924 1.68036 6.29866
-0.981175 1.7349 6.18559
-2.16667 1.20323 6.65125
-0.182649 1.63832 6.69638
