ply
    format ascii 1.0           
    element vertex 29
    property double x           
    property double y           
    property double z           
    end_header
0.793224 -0.567173 4.86156
1.19159 -0.965372 4.62458
1.90373 -0.758504 5.29549
0.501593 -0.567931 4.79769
-0.378346 -0.357518 4.92388
-0.562945 -0.221101 5.06619
-0.139041 -1.42273 4.82085
-0.0571941 -0.533231 5.01278
0.368654 -1.13432 4.62471
1.75235 -0.99176 5.02529
1.08017 -0.516028 4.85488
-0.284448 -0.719046 4.87862
0.659753 -0.691798 4.61876
-0.196325 -0.228358 5.13612
0.790348 -0.815141 4.4788
-0.303903 -1.54579 5.4733
1.4573 -1.14293 4.74026
1.05168 -0.867227 4.606
1.7881 -1.17057 5.00101
0.0168858 -0.370073 5.25681
-0.492474 -0.614619 5.00902
0.498793 -0.846951 4.53426
0.782894 -1.04958 4.52845
0.171811 -1.28359 4.66534
0.336208 -1.42121 4.76232
-0.569526 -0.490801 5.15438
1.43882 -0.896343 4.69841
0.577094 -1.18674 4.44017
0.327788 -0.614196 4.6388
