ply
    format ascii 1.0           
    element vertex 15
    property double x           
    property double y           
    property double z           
    end_header
-0.488873 0.263225 1.56016
-0.303648 0.780215 1.39404
-0.390141 0.632599 1.36171
-0.221362 0.580745 1.51065
-0.393539 0.740509 1.40544
-0.2808 0.697902 1.36973
-0.457354 0.649044 1.39305
-0.471062 0.590447 1.4496
-0.200717 0.341725 1.51753
-0.357645 0.792098 1.38328
-0.248318 0.419818 1.36239
-0.25398 0.22191 1.64995
-0.17289 0.243182 1.62113
-0.321258 0.389363 1.40483
-0.114624 0.363698 1.46874
