ply
    format ascii 1.0           
    element vertex 27
    property double x           
    property double y           
    property double z           
    end_header
0.102306 -0.511003 3.85165
-0.575988 -0.982287 4.30838
0.907038 -0.437412 4.31082
0.506052 -0.530305 4.22603
-0.663322 -0.783751 4.12567
0.425631 -1.07069 4.17375
0.855037 -0.5887 4.061
-0.317004 -0.323372 4.04839
1.08641 -0.598247 4.26395
0.260933 -0.6405 4.05628
-0.478059 -0.73596 3.87836
0.324512 -0.483625 4.29
0.97673 -0.808682 4.1365
-0.352134 -0.851289 3.79231
0.199499 -1.12154 4.19837
0.177425 -0.860045 3.92675
0.453008 -0.661371 4.04381
-0.154727 -0.73181 3.65435
0.620525 -0.62985 3.94463
-0.495546 -0.261337 4.3319
-0.629469 -0.556309 3.96935
0.746656 -0.807555 3.98687
-0.143118 -0.214897 4.29148
-0.322466 -0.576213 3.58735
-0.150465 -0.472399 3.71107
1.23085 -0.796414 4.52028
0.0515773 -0.696511 3.72511
