ply
    format ascii 1.0           
    element vertex 24
    property double x           
    property double y           
    property double z           
    end_header
-0.327451 -0.597848 2.60296
0.016179 -0.575431 2.33623
-0.388436 -0.477149 2.51703
0.298556 -0.658292 2.49239
0.569423 -0.356819 2.43581
-0.167568 -0.18293 2.48114
-0.0528466 -0.708916 2.49981
-0.17613 -0.664124 2.49301
0.716764 -0.354827 2.56005
0.554613 -0.616238 2.55235
0.6533 -0.497407 2.50966
0.382656 -0.574271 2.38502
-0.193945 -0.536311 2.32673
0.160176 -0.690717 2.52673
-0.0713412 -0.462414 2.27957
0.0677057 -0.159448 2.60928
0.430957 -0.389694 2.40894
-0.27433 -0.145115 2.57561
-0.49333 -0.361682 2.59538
-0.37952 -0.339042 2.47141
0.25633 -0.527467 2.45973
0.509411 -0.50507 2.43526
-0.0560445 -0.117678 2.57567
-0.183238 -0.363441 2.23743
