ply
    format ascii 1.0           
    element vertex 15
    property double x           
    property double y           
    property double z           
    end_header
0.39963 -0.280111 1.61459
0.257492 -0.228279 1.5328
-0.105382 -0.407687 1.56756
0.488562 -0.339433 1.64927
0.339563 -0.239121 1.54973
0.62523 -0.366542 1.8086
-0.0167742 -0.0602359 1.80479
0.256076 -0.315712 1.57254
0.0399489 -0.408685 1.7156
0.103244 -0.465019 1.76036
-0.267305 -0.102267 2.21991
0.473104 -0.249397 1.59301
0.188313 -0.365467 1.56703
0.301769 -0.432106 1.76022
0.0981764 -0.155031 1.60793
