ply
    format ascii 1.0           
    element vertex 15
    property double x           
    property double y           
    property double z           
    end_header
-0.213639 -0.0914553 2.19142
0.183534 -0.45241 1.85202
-0.0890245 -0.300597 2.05589
0.352444 -0.322213 1.78583
0.542457 -0.278641 1.91891
0.622281 -0.45421 1.90896
0.447259 -0.335382 1.80183
0.0385419 -0.144135 2.1424
0.517486 -0.549901 2.06256
0.353076 -0.421918 1.8324
0.109163 -0.543242 1.98283
0.180654 -0.607093 2.04702
0.603174 -0.347503 1.8516
0.407614 -0.568562 2.04489
0.168475 -0.246116 1.88228
