ply
    format ascii 1.0           
    element vertex 22
    property double x           
    property double y           
    property double z           
    end_header
-0.03026 -0.227138 2.74537
-0.49636 -0.182468 2.92125
0.286127 -0.397926 2.8567
-0.122117 -0.437437 2.8326
-0.620803 -0.290598 3.01121
0.582458 -0.372587 2.91299
0.191998 -0.0804231 2.96598
0.701429 -0.241066 2.91002
0.402735 -0.272426 2.8329
-0.272907 -0.176598 2.6996
0.125358 -0.428755 2.86463
0.117992 -0.221678 2.82025
0.322872 -0.109919 2.9429
-0.129973 -0.0780821 2.7448
-0.607175 -0.0932329 3.01979
-0.485935 0.0179323 2.95186
0.538359 -0.212951 2.87219
0.0244253 -0.0680902 2.79745
0.711268 -0.411107 2.99619
0.422144 -0.430702 2.92497
-0.0123079 -0.351875 2.82693
-0.00185179 -0.486871 3.04271
