ply
    format ascii 1.0           
    element vertex 13
    property double x           
    property double y           
    property double z           
    end_header
0.109524 -0.218904 1.84255
-0.0967565 -0.0433524 1.64553
0.173852 -0.319585 1.46417
-0.0635089 -0.186426 1.63391
-0.0281651 0.00978236 1.72034
-0.0593193 -0.491872 1.79994
0.526768 -0.169921 1.63649
0.417065 -0.209839 1.44251
0.733654 -0.360222 1.71671
0.500059 -0.427125 1.73056
0.173092 -0.457594 1.61992
0.567814 -0.225403 1.50593
0.253958 -0.343887 1.43169
