ply
    format ascii 1.0           
    element vertex 25
    property double x           
    property double y           
    property double z           
    end_header
-1.18137 -0.845297 6.93486
-0.149894 -0.499152 6.07896
-1.31818 -0.414523 6.81592
1.44873 -0.125232 6.96031
-0.737126 -0.90839 6.51766
1.32877 -0.877143 6.72055
0.37401 -0.167529 6.95031
0.876021 -0.619184 6.39678
-0.703579 -0.374911 5.92249
0.216814 -0.995968 6.49347
0.203828 -0.503978 6.45313
0.706468 -0.241365 6.89268
-0.383217 -0.148614 6.1202
1.01196 -0.144134 6.60515
-1.63165 -0.198951 7.20966
-1.31726 0.0816001 7.02892
0.490614 -0.543127 6.52533
1.19817 -0.476052 6.46273
2.03154 -0.714197 7.42018
-0.0168662 -0.128772 6.3269
1.66123 -0.987863 7.03476
0.937432 -1.01833 6.74889
-0.107019 -0.797935 6.30362
0.710183 -1.30327 7.02623
-0.106804 -1.19575 7.27716
