ply
    format ascii 1.0           
    element vertex 14
    property double x           
    property double y           
    property double z           
    end_header
-0.125239 -0.10523 1.46785
0.07474 -0.289466 1.33348
-0.0995926 -0.200879 1.45488
-0.0805267 -0.0694875 1.518
0.19178 -0.218732 1.39577
-0.108076 -0.375415 1.66152
0.308129 -0.18166 1.45986
0.457446 -0.307687 1.52911
0.292658 -0.361077 1.52608
0.0714314 -0.384772 1.44746
0.344283 -0.218637 1.37492
0.132174 -0.304593 1.31368
0.214437 -0.359704 1.45786
0.137106 -0.358253 1.35833
