ply
    format ascii 1.0           
    element vertex 13
    property double x           
    property double y           
    property double z           
    end_header
-0.0601667 -0.110119 0.936335
0.00136704 -0.0768481 0.849081
-0.235201 0.0267992 0.915604
-0.0303209 -0.151479 0.881918
0.0752935 -0.0764378 0.909582
0.170504 -0.0540218 0.920385
0.122472 -0.0740069 0.850219
-0.115879 0.00428317 0.931312
-0.0814197 -0.242231 0.993734
-0.0333165 -0.262154 0.936605
0.208749 -0.0876552 0.871304
0.0878187 -0.220005 0.953157
0.116794 -0.141595 0.87853
