ply
    format ascii 1.0           
    element vertex 15
    property double x           
    property double y           
    property double z           
    end_header
0.0358104 -0.302144 1.30871
0.385441 -0.256039 1.46921
-0.139307 -0.210266 1.40522
-0.123932 -0.0789927 1.43088
0.148583 -0.230284 1.37807
-0.153618 -0.378227 1.61049
0.260928 -0.189676 1.43596
0.201185 -0.220403 1.29978
0.235754 -0.35212 1.44299
0.0284749 -0.394097 1.41959
0.299833 -0.226387 1.34654
0.0940967 -0.318289 1.29608
0.169076 -0.367686 1.43394
-0.0636971 -0.305257 1.37356
0.0967395 -0.370576 1.33922
