ply
    format ascii 1.0           
    element vertex 16
    property double x           
    property double y           
    property double z           
    end_header
-0.409047 0.365749 1.67208
-0.266138 0.854226 1.5281
-0.318864 0.719418 1.49988
-0.425193 0.562193 1.57918
-0.343709 0.812501 1.52955
-0.387519 0.727526 1.51743
-0.415394 0.662578 1.54691
-0.389914 0.846063 1.56107
-0.126262 0.515523 1.60103
-0.167476 0.53548 1.52944
-0.214298 0.343478 1.77412
-0.412593 0.48561 1.58881
-0.23556 0.50126 1.5625
-0.479808 0.390488 1.66628
-0.0671016 0.489973 1.63481
-0.358787 0.637425 1.51832
