ply
    format ascii 1.0           
    element vertex 12
    property double x           
    property double y           
    property double z           
    end_header
-0.257973 -0.199341 1.37609
0.127196 -0.203221 1.26214
0.170821 -0.301099 1.35073
-0.233757 -0.0373329 1.25841
-0.278315 -0.00843405 1.30206
-0.204955 -0.342588 1.40986
0.256144 -0.2566 1.32075
-0.123267 -0.302508 1.3596
-0.0755986 -0.31344 1.30265
0.1756 -0.174178 1.21645
0.0510879 -0.297759 1.30003
-0.0826487 -0.107379 1.24822
