ply
    format ascii 1.0           
    element vertex 16
    property double x           
    property double y           
    property double z           
    end_header
-0.269792 1.27683 1.93885
-0.462054 0.574749 2.16769
-0.248818 1.36159 1.96906
-0.564617 0.693199 2.05523
-0.136952 1.10697 2.25216
-0.476853 0.890225 2.00516
-0.365292 1.28747 1.93908
-0.454733 1.06367 1.98385
-0.0240673 0.827857 2.11949
-0.0668775 0.744032 2.25092
-0.318092 1.36826 1.92152
-0.184854 0.554806 2.42418
-0.0570324 0.605014 2.44277
-0.451991 0.767133 2.02384
-0.571573 0.612151 2.14953
0.0654839 0.79534 2.21232
