ply
    format ascii 1.0           
    element vertex 22
    property double x           
    property double y           
    property double z           
    end_header
1.48089 -0.797925 4.60385
2.2982 -0.582025 5.37506
1.63587 -0.332815 4.94706
1.80185 -0.49 4.76204
-0.303253 -0.134523 5.08046
-0.53582 1.49049e-05 5.42336
-0.0198885 -1.50291 5.37755
2.0973 -0.831286 5.01989
1.37219 -0.309213 4.91647
-0.199923 -0.580812 5.0814
0.876735 -0.480331 4.57634
1.53396 -0.486732 4.70716
2.20274 -1.08456 5.16255
0.154926 -0.131978 5.25882
-0.544778 -0.55783 6.48422
1.48304 -1.26496 5.12538
0.783412 -0.75009 5.08921
1.04787 -0.925309 4.65402
0.348306 -1.27542 5.06584
1.73546 -0.693198 4.6321
0.507646 -0.403567 4.68692
0.506143 -0.903788 5.65046
