ply
    format ascii 1.0           
    element vertex 16
    property double x           
    property double y           
    property double z           
    end_header
-0.151719 -0.0448956 1.32469
-0.0957318 -0.360486 1.402
-0.0681892 -0.0934798 1.37665
0.0480764 -0.263523 1.27402
-0.130998 -0.149741 1.35344
-0.105534 -0.010113 1.36317
-0.125157 -0.328779 1.31105
0.232894 -0.186691 1.24309
-0.0521125 -0.0406423 1.41454
0.266436 -0.324732 1.39821
0.164167 -0.24821 1.26039
-0.00627857 -0.318721 1.34684
0.338391 -0.197251 1.28199
0.110505 -0.289308 1.25726
0.195315 -0.33798 1.39214
0.039921 -0.12037 1.25871
