ply
    format ascii 1.0           
    element vertex 19
    property double x           
    property double y           
    property double z           
    end_header
-0.374431 1.15723 2.24633
-0.361421 1.3141 2.21311
-0.565147 0.585465 2.4808
-0.340756 1.38962 2.22795
-0.670232 0.702612 2.35369
-0.396487 1.1702 2.18734
-0.575057 0.916847 2.31521
-0.462904 1.31441 2.20565
-0.277849 1.28858 2.24068
-0.439998 0.946172 2.27815
-0.557769 1.08727 2.27196
-0.537733 1.38428 2.28244
-0.125957 0.876566 2.45649
-0.163297 0.763323 2.53133
-0.408631 1.40062 2.19532
-0.15265 0.881827 2.28913
-0.295143 0.567976 2.6807
-0.674737 0.624953 2.44882
-0.456116 1.04396 2.22197
