ply
    format ascii 1.0           
    element vertex 16
    property double x           
    property double y           
    property double z           
    end_header
-0.226318 0.630486 1.1532
-0.340328 0.230923 1.30929
-0.20344 0.681861 1.17034
-0.195333 0.556751 1.169
-0.259058 0.553962 1.14274
-0.129823 0.493306 1.25203
-0.354247 0.411828 1.21886
-0.275585 0.643256 1.17273
-0.28456 0.424356 1.19255
-0.34434 0.503773 1.18899
-0.127109 0.386482 1.1791
-0.0836042 0.229819 1.38293
-0.346174 0.343118 1.23079
-0.187857 0.354358 1.20751
-0.0247149 0.338042 1.26515
-0.297758 0.48088 1.1642
