ply
    format ascii 1.0           
    element vertex 26
    property double x           
    property double y           
    property double z           
    end_header
0.0427337 -0.345082 2.46511
0.527796 -0.277107 2.6298
0.28898 -0.340021 2.61267
-0.429994 -0.508434 2.59801
0.242087 -0.675317 2.60839
-0.220309 -0.220575 2.5355
-0.09904 -0.727448 2.59903
-0.222355 -0.684695 2.58663
0.628258 -0.377359 2.58808
0.479948 -0.626093 2.6182
0.139541 -0.41956 2.54949
-0.324527 -0.490373 2.50451
0.576145 -0.511427 2.58018
-0.241857 -0.570403 2.45385
0.10399 -0.704651 2.62249
0.0928244 -0.566611 2.5225
0.261124 -0.428208 2.56349
-0.124266 -0.499521 2.42051
0.0108606 -0.186306 2.63144
0.365241 -0.412028 2.49564
-0.529726 -0.390916 2.66037
0.442931 -0.522599 2.53728
-0.111933 -0.150091 2.61324
-0.121756 -0.328236 2.41159
0.705525 -0.476064 2.72411
0.00712244 -0.470906 2.42829
