ply
    format ascii 1.0           
    element vertex 23
    property double x           
    property double y           
    property double z           
    end_header
0.0176878 -0.59564 2.43324
-0.398219 -0.495761 2.6169
0.308536 -0.68187 2.58629
0.587302 -0.370791 2.53135
-0.171066 -0.192219 2.58176
-0.0528302 -0.734201 2.5948
-0.179718 -0.688122 2.58941
0.737987 -0.369938 2.65404
0.571513 -0.638819 2.64502
0.673171 -0.516207 2.60333
0.395283 -0.5946 2.47996
-0.199067 -0.555273 2.42536
0.166261 -0.715491 2.62067
-0.0728024 -0.478516 2.37826
0.0713148 -0.169653 2.70764
0.444959 -0.404446 2.50519
-0.280344 -0.154458 2.67655
-0.505524 -0.37755 2.69648
-0.389449 -0.352994 2.57264
0.265183 -0.54694 2.55566
0.525601 -0.523573 2.53002
-0.0559232 -0.126289 2.67508
-0.188556 -0.37585 2.33756
