ply
    format ascii 1.0           
    element vertex 12
    property double x           
    property double y           
    property double z           
    end_header
-0.0637745 -0.195585 1.06711
0.0924817 -0.136408 1.04668
0.171852 -0.0566449 0.894944
-0.0518053 -0.0164977 0.942013
-0.0979989 0.00942026 0.997391
0.137747 -0.199586 0.860043
-0.0246647 -0.110852 0.951903
0.255609 -0.128464 0.888072
0.368488 -0.0901502 0.920779
0.358588 -0.267946 0.986947
0.144235 -0.299029 0.948158
0.282576 -0.270432 0.944092
