ply
    format ascii 1.0           
    element vertex 22
    property double x           
    property double y           
    property double z           
    end_header
0.588291 -0.56742 3.69355
0.930631 -0.924169 3.61785
1.5378 -0.718963 4.26204
0.419414 -0.728464 4.37474
1.03213 -0.570703 3.82059
-0.380838 -0.425433 3.83722
-0.174586 -1.39201 4.03931
-0.119475 -0.573552 3.94764
1.3933 -0.924035 3.99753
0.853969 -0.54438 3.83502
-0.237801 -0.310765 4.00289
-0.465673 -1.19284 4.35743
0.602442 -0.80816 3.433
0.973689 -0.687476 3.69568
0.733755 -0.644717 3.63438
1.13717 -1.04906 3.67872
0.797465 -0.826521 3.50682
1.46322 -1.10497 4.09651
0.243855 -1.37319 3.959
1.11646 -0.846809 3.62781
0.442931 -1.14806 3.54746
0.652582 -1.22281 3.69965
