ply
    format ascii 1.0           
    element vertex 28
    property double x           
    property double y           
    property double z           
    end_header
1.62779 -1.30117 6.91622
4.06332 -1.46219 13.9551
0.853958 -0.813524 5.96595
1.81499 -0.864981 7.47916
1.74197 -0.960967 6.19202
-0.285163 -0.557345 8.52848
-0.221081 -2.50528 10.6594
-0.0351817 -0.830713 10.66
2.82924 -1.59804 9.84402
1.74895 -0.845753 8.78759
-0.313919 -1.13728 9.59027
1.04274 -0.973896 6.60811
0.0155375 -0.424302 8.11632
1.14518 -1.07417 6.03483
0.392141 -1.12868 4.14293
1.69151 -1.01096 7.03603
1.90999 -1.49738 7.14597
1.38724 -1.11949 6.28091
2.06924 -2.31581 10.7568
0.872542 -1.12713 6.41416
1.17545 -1.37845 6.64365
0.655151 -2.41763 10.1108
-1.01951 -0.736466 11.2687
1.8304 -1.19572 6.76417
0.964762 -1.53741 6.64067
1.45894 -2.08025 9.01568
0.697399 -0.88252 6.53474
0.6184 -1.15262 6.2051
