ply
    format ascii 1.0           
    element vertex 17
    property double x           
    property double y           
    property double z           
    end_header
0.318104 -0.460923 1.66958
0.564625 -0.364407 1.95042
0.423474 -0.34565 1.71507
-0.251351 -0.259484 1.72477
-0.329656 -0.21244 1.7967
-0.140687 -0.313875 1.76177
0.0291043 -0.52799 1.64856
-0.197746 -0.205456 1.79691
0.179435 -0.414753 1.59021
0.409545 -0.512493 1.71262
0.260972 -0.417152 1.61831
0.532696 -0.526471 1.86297
0.178002 -0.499347 1.62989
0.0197446 -0.647437 1.78198
0.396252 -0.42265 1.67182
0.110409 -0.557237 1.61481
0.00871461 -0.347117 1.63553
