ply
    format ascii 1.0           
    element vertex 20
    property double x           
    property double y           
    property double z           
    end_header
0.954003 -0.369045 5.73504
1.52624 -0.941525 5.47821
-0.215037 -0.42333 6.90845
2.52081 -1.09634 6.62699
1.46016 -0.384159 6.13994
-0.564295 -0.712539 6.58771
-0.900895 -1.75679 7.97787
-0.436585 -1.31202 4.89561
1.21209 -0.477768 5.57766
1.26385 -0.740821 5.17973
2.67139 -1.43698 6.79533
-0.095696 -0.158183 7.55619
1.63947 -1.61997 6.54717
0.941283 -1.04837 5.22593
0.133627 -1.52989 6.0219
0.407731 -1.81424 6.41659
1.82266 -0.811551 5.46254
1.2486 -1.69087 6.48544
0.332602 -0.461244 5.54013
0.96978 -0.352583 7.19905
