ply
    format ascii 1.0           
    element vertex 17
    property double x           
    property double y           
    property double z           
    end_header
0.245597 -0.113403 1.66794
-0.17284 0.000341972 1.76909
0.0229111 -0.113373 1.7322
-0.0643515 -0.192402 1.68762
-0.0298745 0.00972424 1.73977
0.355443 -0.215548 1.5424
-0.0537812 -0.43476 1.59056
0.597821 -0.333905 1.60167
0.432902 -0.218685 1.50267
0.749462 -0.368653 1.75645
0.343026 -0.303574 1.52672
0.112279 -0.416352 1.65228
0.181574 -0.477549 1.69079
0.583751 -0.232919 1.55529
0.268163 -0.363601 1.51364
0.397664 -0.444326 1.70258
0.166996 -0.133387 1.54911
