ply
    format ascii 1.0           
    element vertex 15
    property double x           
    property double y           
    property double z           
    end_header
-0.57757 0.695037 2.49901
-0.755626 0.451955 2.57961
-0.486235 1.25205 2.35285
-0.68812 0.539868 2.63193
-0.858147 0.582193 2.47309
-0.586571 1.01048 2.27341
-0.37541 0.936705 2.54729
-0.755081 0.770798 2.40213
-0.438686 1.14067 2.34892
-0.514288 0.958485 2.30484
-0.688668 1.03694 2.30263
-0.730607 0.941442 2.36392
-0.683406 1.23488 2.38785
-0.44516 0.424138 2.82048
-0.315034 0.46385 2.8077
