ply
    format ascii 1.0           
    element vertex 22
    property double x           
    property double y           
    property double z           
    end_header
-0.289484 -0.567851 2.38763
0.271996 -0.363966 2.02002
0.462467 -0.546182 2.00914
0.775098 -0.40984 2.3444
0.172266 -0.417982 2.2514
0.51206 -0.349973 2.11616
-0.231866 -0.306585 2.09655
-0.3244 -0.24597 2.19342
0.111162 -0.630797 1.99711
0.409676 -0.34964 2.09586
-0.281438 -0.691941 2.41055
0.291146 -0.497727 1.91733
-0.174954 -0.672695 2.10196
0.477406 -0.420051 2.03156
0.577021 -0.606964 2.06846
0.392104 -0.498099 1.94932
0.738787 -0.617819 2.26584
-0.0675835 -0.279644 2.21662
0.293409 -0.599082 1.97658
0.107414 -0.779519 2.20255
0.558368 -0.502383 2.01827
0.210856 -0.673893 1.97214
