ply
    format ascii 1.0           
    element vertex 13
    property double x           
    property double y           
    property double z           
    end_header
-0.104226 -0.226196 0.95763
0.0242821 -0.214014 0.921218
-0.0810508 -0.114708 0.839583
-0.120782 -0.0903901 0.871659
0.0647954 -0.261418 0.817393
-0.0627181 -0.184029 0.860679
-0.048959 -0.0861839 0.859308
0.149794 -0.216704 0.828629
0.22966 -0.176294 0.861419
0.333129 -0.253846 0.927392
0.217231 -0.301744 0.927188
0.0634022 -0.322279 0.89561
0.165287 -0.309859 0.890885
