ply
    format ascii 1.0           
    element vertex 31
    property double x           
    property double y           
    property double z           
    end_header
0.730314 -0.80787 6.30383
1.23577 -0.919562 5.95748
-0.24332 -1.7804 6.157
-1.26039 -1.30984 6.33624
-0.549635 -1.67101 6.17218
1.56778 -0.903138 6.13693
1.18749 -1.50717 6.18947
0.34243 -0.99889 6.00421
0.203312 -0.668954 6.05179
-0.149381 -0.595237 5.98129
-0.809596 -1.1974 5.94285
0.434691 -0.731852 6.27488
0.798859 -1.43687 5.93982
-0.614928 -1.41907 5.9139
-0.697202 -0.839936 5.93188
0.26138 -1.72647 6.28741
0.641746 -1.03863 6.05282
-0.312109 -1.22678 5.7326
0.0278391 -0.418274 6.25788
0.915386 -1.01771 5.99051
-0.790118 -0.404817 6.19639
-1.32124 -0.925523 6.30511
-1.03875 -0.898215 5.9732
0.503206 -1.34261 6.10961
1.09364 -1.26512 5.96362
-0.27783 -0.330631 6.16879
-0.581466 -0.999828 5.65465
-0.303833 -0.802767 5.71865
1.76787 -1.14366 6.47852
-1.10475 -0.594721 6.16705
0.0144079 -1.15809 5.7443
