ply
    format ascii 1.0           
    element vertex 24
    property double x           
    property double y           
    property double z           
    end_header
-0.354949 -0.640272 2.82118
-0.0113321 -0.612812 2.59651
0.553747 -0.288418 2.79635
0.31285 -0.349982 2.77471
-0.419074 -0.522308 2.75868
0.267085 -0.691834 2.74914
0.537116 -0.38729 2.70764
-0.078667 -0.745721 2.73575
-0.204863 -0.704421 2.73322
0.667027 -0.388055 2.7794
0.509984 -0.643612 2.77379
0.165099 -0.424842 2.71629
0.107748 -0.282012 2.73861
-0.0351897 -0.257044 2.68027
-0.308608 -0.497371 2.65888
0.198827 -0.321018 2.80039
0.353708 -0.599585 2.68149
0.126958 -0.724476 2.75989
0.115602 -0.571001 2.6652
0.286531 -0.437079 2.70819
0.395761 -0.417721 2.66693
-0.214329 -0.396631 2.53582
-0.0991122 -0.323381 2.58305
0.736198 -0.50279 2.86767
