ply
    format ascii 1.0           
    element vertex 16
    property double x           
    property double y           
    property double z           
    end_header
-0.26788 0.690892 2.06588
-0.35101 0.990195 1.95366
-0.517958 0.418377 2.17997
-0.320058 1.05967 1.97266
-0.306495 0.889104 1.982
-0.606116 0.523405 2.10297
-0.220203 0.803419 2.12124
-0.530075 0.672023 2.03168
-0.422559 1.00497 1.97427
-0.280153 0.970843 1.97158
-0.48112 0.891216 1.95392
-0.516319 0.804388 1.98905
-0.204986 0.650766 2.01168
-0.156601 0.426448 2.32439
-0.292714 0.600282 2.04293
-0.605479 0.449715 2.15812
