ply
    format ascii 1.0           
    element vertex 22
    property double x           
    property double y           
    property double z           
    end_header
-0.198231 -0.513104 3.6654
-0.665518 -0.413284 3.85996
0.386204 -0.705402 3.7497
0.834541 -0.2535 3.83853
-0.155634 -0.759035 3.72411
-0.349151 -0.692062 3.76231
1.05099 -0.299951 4.00531
0.776949 -0.666583 3.83564
-0.491723 -0.336381 3.6858
0.943141 -0.48199 3.87312
0.533767 -0.545814 3.69432
-0.355741 -0.426906 3.49045
0.166689 -0.743595 3.72604
0.159342 -0.480755 3.69073
0.439596 -0.315146 3.85902
-0.167889 -0.308032 3.51276
0.61035 -0.271212 3.75529
-0.632338 -0.170322 3.78721
0.331698 -0.49659 3.80586
0.722675 -0.452526 3.74486
-0.156281 -0.0597725 3.61886
1.16255 -0.527655 4.1545
