ply
    format ascii 1.0           
    element vertex 28
    property double x           
    property double y           
    property double z           
    end_header
-1.44733 -6.10817 30.0341
1.03598 -1.14988 8.21603
1.05486 -1.146 8.2275
1.06802 -1.15999 8.22807
1.18888 -1.21269 8.55372
1.09637 -1.1649 8.2983
1.01962 -1.14122 8.24366
1.01188 -1.13803 8.25992
1.0256 -1.18118 8.2559
1.02963 -1.14664 8.24359
1.04239 -1.16144 8.21707
1.11215 -1.1831 8.32892
1.06852 -1.14926 8.25361
1.02238 -1.15283 8.24114
1.02284 -1.14122 8.28673
1.09008 -1.18042 8.28371
1.05921 -1.15118 8.20411
1.1457 -1.21973 8.42452
1.01384 -1.1511 8.25703
1.08326 -1.19884 8.32399
1.04476 -1.14925 8.19652
1.05366 -1.15858 8.21091
1.03668 -1.16929 8.2289
1.04241 -1.18139 8.25425
1.07508 -1.15772 8.22926
1.04718 -1.15965 8.20062
1.06039 -1.17731 8.24894
1.05138 -1.15874 8.35747
