ply
    format ascii 1.0           
    element vertex 14
    property double x           
    property double y           
    property double z           
    end_header
-1.01263 0.856852 3.99957
-0.74514 2.19319 3.84321
-1.1798 1.05489 3.83453
-0.800714 1.83819 3.70419
-0.915401 2.05945 3.75939
-0.643285 2.06116 3.88787
-0.968318 1.81756 3.64849
-0.382851 1.40911 4.30578
-0.440503 1.20332 4.31775
-0.430089 0.93193 4.52164
-0.99076 1.18682 3.77066
-0.578024 1.29844 3.91124
-1.16517 0.898564 3.88518
-0.218626 1.31697 4.34143
