ply
    format ascii 1.0           
    element vertex 18
    property double x           
    property double y           
    property double z           
    end_header
0.555785 -0.363471 2.15943
0.235832 -0.185575 2.36321
-0.315003 -0.00712457 2.39184
-0.0674434 -0.154171 2.31396
0.144162 -0.443035 2.12182
0.834709 -0.396394 2.34915
-0.136328 -0.00456707 2.3842
-0.159519 -0.528821 2.0474
0.680531 -0.450961 2.19441
0.470205 -0.29818 2.08025
0.86465 -0.501269 2.37914
0.349944 -0.408143 2.09449
0.0456404 -0.545177 2.23708
0.133652 -0.626833 2.28525
0.665027 -0.320031 2.14733
0.252581 -0.478839 2.08337
0.40714 -0.581993 2.29011
0.126025 -0.183268 2.14505
