ply
    format ascii 1.0           
    element vertex 26
    property double x           
    property double y           
    property double z           
    end_header
-1.25926 -1.5765 9.01349
0.0749583 -1.12162 7.80403
1.09529 -1.64094 8.40958
2.16423 -0.554696 8.86899
-0.197151 -1.7894 8.25171
-1.90221 -1.38513 9.29411
-0.667521 -1.655 8.43302
2.68962 -0.703907 9.2436
-1.02416 -0.794662 8.34067
2.40145 -1.11599 8.69502
1.43565 -1.23828 8.25989
-0.680443 -0.954003 7.72201
0.572694 -1.73422 8.23321
0.537965 -1.1038 8.28789
1.19253 -0.741231 8.76801
-0.241313 -0.670124 7.82568
1.59787 -0.605257 8.45677
0.954165 -1.16346 8.59022
1.86091 -1.02703 8.30041
1.74861 -0.325036 9.07991
2.94632 -1.28891 9.47016
2.51814 -1.67074 9.1842
1.5232 -1.75242 8.64313
0.145517 -1.50669 8.22632
-0.309583 -1.19394 8.20085
1.26081 -2.12331 9.22919
