ply
    format ascii 1.0           
    element vertex 22
    property double x           
    property double y           
    property double z           
    end_header
-0.0961534 -0.515089 3.50963
-0.725322 -0.412881 3.87667
0.338088 -0.71658 3.78268
0.799302 -0.253691 3.89946
-0.211459 -0.767429 3.74514
-0.410886 -0.701144 3.8243
1.04184 -0.297364 4.15044
-0.550811 -0.344438 3.7031
0.915258 -0.493176 3.95238
-0.415363 -0.440631 3.5249
0.105761 -0.495593 3.67224
-0.223018 -0.324933 3.47547
0.563551 -0.274467 3.79323
-0.556178 0.0828181 4.20838
-0.896083 -0.259599 4.10481
-0.689956 -0.185786 3.76831
0.280355 -0.502355 3.83506
0.670711 -0.464672 3.74751
1.14304 -0.526455 4.2719
-0.0194005 -0.302087 3.59354
0.962674 -0.700015 4.21329
0.526884 -0.75213 3.93894
