ply
    format ascii 1.0           
    element vertex 14
    property double x           
    property double y           
    property double z           
    end_header
-6.05369 10.764 28.1565
-3.21018 10.8957 21.3953
-2.06849 9.09478 17.0325
-5.9777 3.59837 21.0655
-4.91406 12.1571 26.6531
-3.58879 9.36099 18.609
-5.46725 10.3361 23.0456
-0.36765 6.50752 26.0176
-2.17545 10.5931 34.592
-1.08057 1.07409 19.6873
-6.30647 6.05704 26.0951
-3.75235 8.98658 33.5246
-5.57201 2.35646 20.4605
0.906443 5.66387 25.6715
