ply
    format ascii 1.0           
    element vertex 14
    property double x           
    property double y           
    property double z           
    end_header
-0.959255 0.517305 3.44694
-0.609711 1.65688 3.21378
-1.11703 0.71162 3.3459
-0.748163 1.27071 2.9878
-0.54058 1.47049 3.13596
-0.898143 1.34143 3.11103
-0.949722 1.20908 3.20731
-0.878204 1.64914 3.30276
-0.36861 0.721472 3.47392
-0.444338 0.861491 3.04747
-0.508336 0.459337 3.7984
-0.323292 0.503832 3.71648
-0.965228 0.791682 3.22872
-0.18626 0.763708 3.35074
