ply
    format ascii 1.0           
    element vertex 12
    property double x           
    property double y           
    property double z           
    end_header
-0.0956419 -0.206831 1.07719
0.179752 -0.221493 0.998665
-0.0450356 -0.326872 1.1124
0.0435076 -0.243189 0.964755
-0.0654778 -0.173955 0.996605
-0.0555084 -0.0894989 0.984764
0.145857 -0.192472 0.936364
0.266127 -0.234723 1.03513
-0.0274419 -0.10889 1.00771
0.171234 -0.273765 1.04791
0.207898 -0.193645 0.955112
0.0276716 -0.163064 0.961981
