ply
    format ascii 1.0           
    element vertex 21
    property double x           
    property double y           
    property double z           
    end_header
0.000755506 -0.374211 2.46702
-0.429027 -0.291974 2.73958
0.588431 -0.189716 2.62795
-0.0745602 -0.534339 2.64421
-0.206625 -0.486552 2.68003
0.741294 -0.206728 2.75187
0.556926 -0.463942 2.66375
0.205887 -0.209041 2.65098
-0.307744 -0.254306 2.58616
0.664543 -0.339166 2.66456
-0.214339 -0.325573 2.45399
-0.0888 -0.248201 2.43878
0.4362 -0.205836 2.58272
-0.539439 -0.177102 2.8846
-0.40563 -0.131554 2.66687
0.511247 -0.330128 2.57133
0.484617 -0.0970548 2.72986
-0.082707 -0.0738911 2.50164
0.821299 -0.349333 2.87102
0.703301 -0.465345 2.83737
-0.108544 -0.376241 2.56215
