ply
    format ascii 1.0           
    element vertex 26
    property double x           
    property double y           
    property double z           
    end_header
0.0379743 -0.307839 2.18303
0.476202 -0.242175 2.32505
0.260893 -0.299221 2.30926
0.218268 -0.602335 2.31322
0.457013 -0.33758 2.2495
-0.200286 -0.194099 2.25026
-0.0893715 -0.649942 2.30761
-0.468638 -0.490554 2.41971
-0.201304 -0.613505 2.30245
0.571389 -0.33585 2.30289
0.434558 -0.559109 2.32646
0.126529 -0.372484 2.25447
-0.29332 -0.438116 2.21962
0.521249 -0.455453 2.2867
-0.218586 -0.512308 2.17832
0.0944525 -0.629359 2.32968
0.0825044 -0.503617 2.22407
0.235381 -0.379292 2.26328
-0.111781 -0.446233 2.1347
0.330878 -0.368319 2.21405
-0.481053 -0.345925 2.36581
-0.377228 -0.330792 2.24682
0.399451 -0.464761 2.24031
-0.100049 -0.128183 2.31403
-0.109593 -0.293508 2.13276
0.642561 -0.421937 2.42401
