ply
    format ascii 1.0           
    element vertex 20
    property double x           
    property double y           
    property double z           
    end_header
0.342509 -0.369336 1.46802
0.376967 -0.229463 1.5542
-0.14953 -0.19464 1.51132
-0.214157 -0.151666 1.5716
-0.0637377 -0.540592 1.5976
-0.0528762 -0.238753 1.54933
0.507901 -0.347867 1.59484
-0.176464 -0.45837 1.70647
-0.107402 -0.457788 1.51755
0.357411 -0.282181 1.50928
0.421604 -0.409242 1.50229
0.293922 -0.335812 1.42787
0.529415 -0.40917 1.62256
-0.0342876 -0.172464 1.58794
0.221661 -0.408112 1.44578
0.0352095 -0.492992 1.52471
0.410029 -0.335324 1.46658
0.16405 -0.459772 1.43086
0.253737 -0.501065 1.5574
0.0739961 -0.273829 1.43508
