ply
    format ascii 1.0           
    element vertex 13
    property double x           
    property double y           
    property double z           
    end_header
0.106495 -0.20566 1.25491
0.173385 -0.150843 1.18557
0.144117 -0.268773 1.16148
0.00804524 -0.180754 1.2234
0.33429 -0.190871 1.21623
0.283105 -0.213795 1.13268
0.309327 -0.319007 1.24614
0.248844 -0.281715 1.22057
0.139599 -0.346165 1.243
-0.0473967 -0.14999 1.45877
0.191694 -0.291859 1.14566
0.19379 -0.332925 1.18326
0.278827 -0.268717 1.1592
