ply
    format ascii 1.0           
    element vertex 17
    property double x           
    property double y           
    property double z           
    end_header
0.715148 -0.313482 2.0369
0.170426 -0.258724 1.86516
0.536294 -0.291508 1.73044
-0.177283 -0.168118 1.80793
-0.256028 -0.116426 1.90242
-0.0901142 -0.601394 1.87296
0.641629 -0.404852 1.89009
-0.115367 -0.124143 1.87321
0.267494 -0.342884 1.6158
-0.131296 -0.512687 1.69036
0.515834 -0.464143 1.72601
0.265854 -0.434066 1.65636
0.0328434 -0.535749 1.78274
0.10105 -0.594703 1.83311
0.506441 -0.362166 1.69705
0.190942 -0.489804 1.64738
0.310362 -0.558298 1.83176
