ply
    format ascii 1.0           
    element vertex 15
    property double x           
    property double y           
    property double z           
    end_header
0.0427937 -0.302127 1.31612
0.39504 -0.256273 1.47632
-0.132898 -0.209756 1.41397
-0.117244 -0.0777873 1.43994
0.156517 -0.230052 1.38558
-0.146655 -0.378997 1.6202
0.269744 -0.189388 1.44344
0.209137 -0.220026 1.30666
0.244335 -0.352751 1.45035
0.0357586 -0.394778 1.42751
0.308514 -0.226191 1.35331
0.101353 -0.318386 1.30318
0.177232 -0.368343 1.44146
-0.0570432 -0.305291 1.3817
0.104132 -0.371043 1.34647
