ply
    format ascii 1.0           
    element vertex 23
    property double x           
    property double y           
    property double z           
    end_header
0.439015 -0.161051 2.64327
0.746078 -0.464648 2.59202
1.2843 -0.334474 3.177
0.306781 -0.243391 3.33236
0.847974 -0.17044 2.80698
0.966351 -0.26861 2.7321
-0.38938 -0.0369664 2.86748
-0.158918 -0.167895 2.96077
0.157734 -0.577873 2.56981
1.15327 -0.499013 2.92425
-0.327015 -0.316702 2.91478
-0.267454 0.0515845 3.04215
0.46281 -0.352059 2.47931
0.780971 -0.265315 2.64929
0.58277 -0.223939 2.6336
0.928872 -0.58564 2.65426
0.629003 -0.37011 2.49831
-0.104647 -0.0342148 3.04313
0.73452 -0.757687 2.9074
0.459735 -0.534157 2.52645
0.318956 -0.647975 2.53816
0.543002 -0.784369 2.84981
0.375783 -0.126342 2.97021
