ply
    format ascii 1.0           
    element vertex 18
    property double x           
    property double y           
    property double z           
    end_header
0.107123 -0.130276 1.38147
-0.173612 -0.0509372 1.38391
-0.241136 -0.00869619 1.466
-0.112424 -0.417239 1.44934
-0.0798657 -0.109038 1.44659
0.0578654 -0.301892 1.29723
0.49624 -0.269662 1.45858
-0.151363 -0.172349 1.40893
-0.12019 -0.0178103 1.43015
0.203684 -0.212353 1.29644
-0.144556 -0.372699 1.34146
0.339628 -0.172551 1.34302
0.26955 -0.215855 1.27044
0.306123 -0.381229 1.4507
0.191429 -0.28543 1.28356
-0.00689022 -0.368436 1.38128
0.224483 -0.39686 1.43626
0.0478375 -0.137495 1.29591
