ply
    format ascii 1.0           
    element vertex 13
    property double x           
    property double y           
    property double z           
    end_header
-0.155491 -0.228313 0.972337
-0.129177 -0.124396 0.863187
-0.16902 -0.0994627 0.894202
0.0127465 -0.264807 0.832865
0.25313 -0.220748 0.924689
-0.111954 -0.190248 0.877962
0.0925469 -0.222527 0.845468
0.168152 -0.1838 0.879798
0.131135 -0.211371 0.81635
0.153331 -0.302365 0.944825
0.199347 -0.213262 0.844816
0.054896 -0.283103 0.822107
0.105711 -0.310243 0.9074
