ply
    format ascii 1.0           
    element vertex 30
    property double x           
    property double y           
    property double z           
    end_header
-0.121101 -1.61282 6.36993
0.834515 -0.895677 7.30264
-1.28649 -1.33663 7.0
1.4658 -1.01019 6.91982
-0.66783 -0.521583 6.90418
-0.694552 -1.90104 7.12812
1.90558 -1.01639 7.3354
0.383114 -1.09474 6.88009
-0.182499 -0.609137 6.52492
-0.943426 -1.27545 6.5517
1.68243 -1.3995 7.05434
-0.715068 -1.48684 6.38191
-0.795771 -0.861257 6.43236
0.278628 -2.04221 7.54587
0.225686 -1.48507 6.57785
0.723392 -1.12675 6.80087
-0.359883 -1.27668 6.07061
0.0153385 -0.413949 7.5558
1.03152 -1.08624 6.66084
-0.990541 -0.379328 7.39427
-1.6085 -1.01604 7.36713
-1.23199 -0.949644 6.76657
0.558494 -1.49759 6.95184
1.27503 -1.42226 6.851
1.17001 -0.755567 7.13149
-0.352513 -0.301333 7.29923
-0.647222 -1.01069 5.98183
-0.347537 -0.802644 6.09269
-1.35462 -0.606353 7.19796
0.00423742 -1.20812 6.1901
