ply
    format ascii 1.0           
    element vertex 23
    property double x           
    property double y           
    property double z           
    end_header
-0.912709 -0.608626 4.58773
-0.286963 -0.497701 3.99095
-0.990171 -0.369476 4.36322
0.191504 -0.708955 4.329
0.669834 -0.2059 4.25629
-0.596159 0.12783 4.39556
-0.421195 -0.774564 4.23534
-1.20186 -0.493106 4.6674
-0.643174 -0.697474 4.29785
0.915701 -0.246947 4.48043
0.614687 -0.660628 4.31552
-0.788615 -0.308423 4.13774
0.828129 -0.456953 4.42086
0.342382 -0.540539 4.12435
-0.0657686 -0.46787 4.12608
0.236617 -0.277682 4.25418
0.429503 -0.234357 4.18889
-0.801973 0.181235 4.67234
0.11952 -0.476742 4.24385
0.558098 -0.438902 4.231
-0.405774 -0.0115203 3.97067
1.05683 -0.48317 4.73759
0.391181 -0.74057 4.39916
