ply
    format ascii 1.0           
    element vertex 18
    property double x           
    property double y           
    property double z           
    end_header
-0.571569 -0.450468 3.01882
-0.17077 -0.343858 2.78342
-0.63688 -0.293685 2.94964
0.448525 -0.154704 3.01622
-0.253756 -0.537951 2.87485
0.589202 -0.180556 3.07948
-0.509477 -0.23765 2.85073
-0.403397 -0.297777 2.74255
-0.0202006 -0.525497 2.90616
-0.0308549 -0.328731 2.87046
-0.269431 -0.210345 2.7547
0.29117 -0.165229 2.91663
-0.758136 -0.190928 3.05463
-0.615969 -0.121182 2.89755
0.0886345 -0.337654 2.93811
0.66877 -0.341236 3.18654
-0.120158 -0.190269 2.80388
0.547261 -0.460501 3.13619
