ply
    format ascii 1.0           
    element vertex 27
    property double x           
    property double y           
    property double z           
    end_header
0.84736 -0.364661 4.68649
1.26824 -0.802224 4.54662
2.00122 -0.560227 5.1811
0.575097 -0.377734 4.75454
-0.0994539 -1.29261 4.93123
-0.00431164 -0.324902 4.91893
0.422998 -0.979732 4.60409
1.8271 -0.810323 4.93851
1.17775 -0.353702 4.80447
-0.248437 -0.540849 4.89548
0.733572 -0.525812 4.5581
-0.453539 -1.05631 5.33677
0.869613 -0.672101 4.43837
1.32507 -0.518524 4.64368
1.5264 -0.972245 4.64635
1.12174 -0.697271 4.50611
1.88793 -1.01959 4.97183
0.0685878 -0.122323 5.0458
-0.455403 -0.409408 4.94071
0.563757 -0.69491 4.49162
0.860129 -0.922562 4.5361
0.221898 -1.14673 4.71333
0.402206 -1.31201 4.90805
1.51038 -0.726777 4.59532
0.64789 -1.06904 4.47944
0.394466 -0.443371 4.5819
0.298141 -0.738606 4.50583
