ply
    format ascii 1.0           
    element vertex 22
    property double x           
    property double y           
    property double z           
    end_header
0.0835737 -0.35429 2.7475
0.328376 -0.784494 2.8637
0.648863 -0.415965 2.80926
-0.241427 -0.216783 2.89634
-0.0986958 -0.848377 2.85052
-0.634439 -0.650238 3.1175
-0.254711 -0.796239 2.88156
0.828773 -0.433084 2.93947
0.203549 -0.455774 2.85631
-0.372236 -0.532442 2.77902
0.75488 -0.586642 2.88165
-0.271577 -0.619668 2.65826
0.140217 -0.625547 2.75868
0.350223 -0.472559 2.81892
-0.12469 -0.52253 2.6212
0.478684 -0.45346 2.75648
-0.373927 -0.170835 3.08028
0.578014 -0.588776 2.79726
0.533481 -0.311707 2.9253
-0.114973 -0.315378 2.6431
-0.539675 -0.264217 3.06869
0.036959 -0.495346 2.64226
