ply
    format ascii 1.0           
    element vertex 22
    property double x           
    property double y           
    property double z           
    end_header
-0.321247 -0.503814 2.20328
-0.0491461 -0.492497 2.03081
0.167593 -0.546722 2.15058
0.376875 -0.310659 2.09981
-0.200056 -0.18597 2.09559
-0.104149 -0.590941 2.14648
-0.20256 -0.557645 2.13796
0.480347 -0.31252 2.16031
0.360881 -0.512116 2.17836
-0.280819 -0.399246 2.06005
0.43878 -0.419736 2.14946
-0.215266 -0.463218 2.02286
0.0490458 -0.458157 2.07404
0.182209 -0.350257 2.11846
-0.0189809 -0.160131 2.19008
0.269618 -0.339561 2.07839
0.134592 -0.44795 2.11496
0.33176 -0.427155 2.10709
0.294298 -0.246326 2.13242
-0.114352 -0.130102 2.16214
-0.207545 -0.328337 1.95465
0.543053 -0.393611 2.27584
