ply
    format ascii 1.0           
    element vertex 23
    property double x           
    property double y           
    property double z           
    end_header
0.0601111 -0.292765 2.80566
-0.115795 -0.749509 2.86364
-0.594216 -0.549711 3.03592
-0.25528 -0.700866 2.89626
0.735571 -0.369633 2.89323
0.557948 -0.655612 2.89955
0.172663 -0.389927 2.86401
0.676101 -0.519761 2.88173
-0.276732 -0.542188 2.76337
0.119173 -0.733833 2.87135
0.110667 -0.554704 2.81334
0.30914 -0.412379 2.85273
-0.140174 -0.456119 2.73423
0.0245028 -0.139935 2.99463
-0.602198 -0.357217 3.00007
-0.480472 -0.322982 2.90311
0.517388 -0.520467 2.82238
0.469178 -0.259658 2.89665
-0.108368 -0.0866247 2.97118
-0.263664 -0.337682 2.71423
-0.130186 -0.257627 2.74363
0.80861 -0.50717 2.98256
0.0157461 -0.430053 2.74197
