ply
    format ascii 1.0           
    element vertex 18
    property double x           
    property double y           
    property double z           
    end_header
-0.157638 -0.0800477 1.23956
-0.0902105 -0.393035 1.30913
-0.0743949 -0.127448 1.2894
0.421275 -0.239333 1.31791
-0.134212 -0.183127 1.2678
-0.113768 -0.0433344 1.27918
-0.133883 -0.318668 1.2958
0.230006 -0.20247 1.17406
-0.0603159 -0.0763273 1.32479
0.164186 -0.265747 1.18936
-0.00363755 -0.347392 1.26042
0.0442374 -0.385799 1.29503
0.333364 -0.209651 1.21416
0.11328 -0.309776 1.18271
0.194004 -0.35982 1.30734
0.0349538 -0.142814 1.18566
-0.0554175 -0.291274 1.26086
0.11717 -0.36663 1.2271
