ply
    format ascii 1.0           
    element vertex 17
    property double x           
    property double y           
    property double z           
    end_header
0.280647 -0.204827 1.2126
-0.119037 -0.0409083 1.23745
-0.0670999 -0.337509 1.32135
-0.0406795 -0.0867168 1.28389
0.0652823 -0.246156 1.20814
-0.100003 -0.138666 1.26986
-0.0749032 -0.00976273 1.26585
0.345861 -0.250927 1.24347
0.437266 -0.26915 1.33164
-0.0246647 -0.0386897 1.31064
0.270439 -0.304662 1.31192
0.174607 -0.231806 1.19394
0.0152434 -0.298499 1.27288
0.0592977 -0.338711 1.30044
0.123901 -0.270991 1.19449
0.204023 -0.317059 1.30847
0.0577106 -0.110429 1.1851
