ply
    format ascii 1.0           
    element vertex 17
    property double x           
    property double y           
    property double z           
    end_header
0.293429 -0.252863 1.86872
0.790744 -0.345505 2.23519
0.194704 -0.28357 2.05117
0.592794 -0.315472 1.89613
-0.186175 -0.184273 1.99373
-0.272706 -0.129707 2.10177
-0.0893276 -0.659097 2.05605
0.299548 -0.369699 1.77055
-0.134907 -0.557822 1.8541
0.571218 -0.503362 1.88795
0.738505 -0.529495 2.10235
0.298323 -0.469863 1.81372
0.0448796 -0.584593 1.95499
0.119869 -0.649972 2.00954
0.560287 -0.391733 1.85784
0.21682 -0.53062 1.80342
0.34848 -0.609326 2.00634
