ply
    format ascii 1.0           
    element vertex 24
    property double x           
    property double y           
    property double z           
    end_header
0.0241131 -0.269786 1.91636
-0.296652 -0.482372 2.09271
-0.0337609 -0.467144 1.90109
-0.339524 -0.395767 2.02309
0.175671 -0.521859 2.02603
0.374968 -0.295112 1.96966
-0.179859 -0.175557 1.9815
-0.086001 -0.564521 2.02701
-0.182946 -0.53415 2.02532
0.096704 -0.325899 1.97821
-0.257757 -0.381023 1.94639
0.434551 -0.398329 2.01258
0.241749 -0.459873 1.95434
-0.193791 -0.440603 1.901
0.0612722 -0.436073 1.94864
0.190168 -0.330751 1.98016
-0.103202 -0.384264 1.8658
0.271361 -0.322213 1.9472
-0.41918 -0.307917 2.08542
-0.329879 -0.291929 1.97797
0.330121 -0.405525 1.9731
0.297131 -0.232587 1.9986
-0.186343 -0.31194 1.83497
0.535825 -0.373545 2.13875
