ply
    format ascii 1.0           
    element vertex 23
    property double x           
    property double y           
    property double z           
    end_header
0.673783 -0.618155 2.4406
1.09541 -0.474048 2.90332
0.744901 -0.379721 2.5864
-0.0665713 -0.934771 2.73138
-0.0318657 -0.389138 2.68221
0.220739 -0.717147 2.41559
0.996948 -0.6167 2.72268
-0.160398 -0.506375 2.66229
-0.116993 -0.214768 2.74315
-0.266692 -0.811551 2.98634
0.452691 -0.546549 2.32197
-0.139934 -0.769994 2.55622
0.701256 -0.457223 2.48739
0.819279 -0.704728 2.49921
0.581801 -0.552903 2.35742
1.04032 -0.734756 2.78078
0.00792702 -0.274954 2.76113
0.45577 -0.677379 2.40396
0.216691 -0.920954 2.67932
0.799425 -0.565951 2.45055
0.346597 -0.770709 2.39087
0.513417 -0.858271 2.61477
0.37961 -0.348094 2.69176
