ply
    format ascii 1.0           
    element vertex 22
    property double x           
    property double y           
    property double z           
    end_header
-0.00607703 -0.503222 2.04626
0.441309 -0.321179 2.09027
-0.152945 -0.183514 2.12154
-0.0582143 -0.611008 2.13561
-0.400509 -0.463758 2.23293
-0.158117 -0.573349 2.1435
0.424395 -0.53135 2.16487
0.505775 -0.435504 2.13634
0.293405 -0.494675 2.09051
-0.178538 -0.468509 2.055
0.11194 -0.59261 2.15934
-0.0780494 -0.408864 2.01577
0.330761 -0.347406 2.08092
-0.411195 -0.32601 2.21306
-0.322856 -0.309529 2.1304
0.395 -0.440059 2.10429
0.359592 -0.250621 2.13646
-0.0603787 -0.131839 2.1733
-0.0707257 -0.263409 2.01573
0.609202 -0.419308 2.22805
0.0326209 -0.386292 2.02728
0.526916 -0.510184 2.24097
