ply
    format ascii 1.0           
    element vertex 21
    property double x           
    property double y           
    property double z           
    end_header
-0.542355 -0.569687 3.50526
-0.041256 -0.434081 3.14397
0.358233 -0.634105 3.30498
0.780319 -0.218916 3.40737
-0.775143 -0.486045 3.56583
-0.330146 -0.623893 3.34034
-0.463227 -0.284481 3.2858
0.875654 -0.430088 3.4048
0.495497 -0.483149 3.26261
-0.335974 -0.364257 3.11906
0.155112 -0.674452 3.3075
0.149075 -0.422981 3.27652
0.408926 -0.273947 3.41586
-0.158905 -0.252145 3.13403
0.568742 -0.228471 3.31958
0.301535 -0.433794 3.32902
0.671987 -0.398465 3.30793
1.0745 -0.484598 3.64417
0.037869 -0.239054 3.19549
0.905168 -0.631564 3.56716
-0.187187 -0.448758 3.24532
