ply
    format ascii 1.0           
    element vertex 21
    property double x           
    property double y           
    property double z           
    end_header
0.0596606 -0.192559 1.47043
-0.184887 -0.356806 1.60475
0.0145799 -0.345094 1.44966
0.176597 -0.389034 1.53742
0.335048 -0.216609 1.51472
-0.0238514 -0.42018 1.53602
-0.0960037 -0.395967 1.54558
0.41487 -0.215822 1.55939
-0.15591 -0.277755 1.48312
0.226398 -0.339227 1.49333
-0.104561 -0.322066 1.4389
0.0974544 -0.403541 1.55421
0.0883304 -0.32138 1.49498
0.190108 -0.24533 1.52822
-0.0374804 -0.280001 1.42346
-0.276714 -0.222798 1.59224
-0.211343 -0.20834 1.50567
0.296017 -0.298213 1.50118
-0.0349024 -0.179188 1.42834
0.458536 -0.277031 1.63122
0.0379 -0.265475 1.44025
