ply
    format ascii 1.0           
    element vertex 17
    property double x           
    property double y           
    property double z           
    end_header
-0.254501 -0.439927 1.88149
-0.294349 -0.348169 1.82873
0.181846 -0.471064 1.79452
0.374766 -0.269393 1.80435
-0.0614485 -0.504601 1.78168
0.470995 -0.275058 1.85526
-0.217754 -0.326348 1.74391
0.428817 -0.362574 1.8176
0.0747091 -0.382804 1.74217
0.198335 -0.299822 1.80129
-0.0749638 -0.323343 1.65814
-0.370072 -0.270489 1.91088
-0.284773 -0.24483 1.78553
-0.070953 -0.208058 1.69254
0.529608 -0.362249 1.94559
0.0168736 -0.309847 1.6792
0.4504 -0.43964 1.92466
