ply
    format ascii 1.0           
    element vertex 19
    property double x           
    property double y           
    property double z           
    end_header
-0.52056 -0.674269 2.87965
-0.574454 -0.524922 2.79164
0.155124 -0.711271 2.78182
0.44585 -0.394364 2.79955
-0.216277 -0.76059 2.73187
-0.353564 -0.718593 2.7593
0.597333 -0.417627 2.93258
0.421511 -0.673922 2.84894
-0.452886 -0.483257 2.67325
0.250085 -0.606344 2.7104
-0.355559 -0.552467 2.56547
-0.00509932 -0.569443 2.6956
-0.226774 -0.467784 2.54886
-0.700764 -0.416436 2.92398
-0.56035 -0.364759 2.74615
0.110773 -0.572807 2.7614
-0.345273 -0.36795 2.55233
0.674187 -0.556387 3.05066
-0.0905055 -0.451213 2.59981
