ply
    format ascii 1.0           
    element vertex 18
    property double x           
    property double y           
    property double z           
    end_header
-0.344484 -0.492919 2.35836
-0.0435378 -0.45674 2.13207
0.431181 -0.274892 2.1997
-0.216851 -0.544158 2.27402
0.547375 -0.287615 2.26147
-0.00678708 -0.330109 2.12744
-0.302888 -0.352376 2.21697
0.298878 -0.541965 2.28226
-0.23107 -0.419679 2.16252
0.0678438 -0.426693 2.18685
0.216564 -0.317637 2.21714
-0.124444 -0.348842 2.11584
0.310898 -0.298028 2.17781
-0.48988 -0.281524 2.3805
0.161659 -0.421583 2.22601
0.377402 -0.400422 2.19242
0.341151 -0.201848 2.2567
-0.116633 -0.198018 2.12504
