ply
    format ascii 1.0           
    element vertex 13
    property double x           
    property double y           
    property double z           
    end_header
-0.805758 0.701501 3.54739
-0.501085 2.24133 3.1894
-1.04068 0.915767 3.37202
-0.630636 1.86003 3.15954
-0.705598 2.30042 3.48201
-0.345027 2.22463 3.45406
-0.843409 1.82672 3.12526
0.0219962 1.29199 3.51338
-0.0315563 1.08028 3.63727
-0.832122 1.32908 4.10363
-0.3163 1.23477 3.42319
-1.00969 0.742568 3.45383
0.226797 1.19383 3.56721
