ply
    format ascii 1.0           
    element vertex 18
    property double x           
    property double y           
    property double z           
    end_header
0.0200316 -0.280819 1.13838
0.158085 -0.315309 1.20641
0.290698 -0.166189 1.17604
-0.011538 -0.343972 1.21039
-0.22577 -0.257048 1.28431
0.279817 -0.290598 1.2174
0.107569 -0.184774 1.18659
-0.126104 -0.223674 1.16891
0.326162 -0.234266 1.19584
0.200365 -0.273163 1.16934
-0.0816834 -0.262414 1.13295
0.0915007 -0.32784 1.22087
0.0833628 -0.25865 1.17185
-0.0248903 -0.225381 1.11598
0.22016 -0.181642 1.15699
-0.173742 -0.163528 1.18499
0.258381 -0.236703 1.17067
0.0401951 -0.211952 1.12745
