ply
    format ascii 1.0           
    element vertex 13
    property double x           
    property double y           
    property double z           
    end_header
0.0317105 -0.271554 2.26648
0.186268 -0.147728 1.87964
-0.2843 -0.00719169 2.18805
0.11871 -0.357209 1.68849
0.71022 -0.336216 2.0212
-0.146511 -0.217907 1.95883
-0.115279 -0.00746172 2.12601
-0.157457 -0.566221 2.16832
0.380596 -0.251595 1.67032
0.477664 -0.497342 2.0675
0.114682 -0.514294 1.89023
0.542417 -0.272058 1.75782
0.343137 -0.484466 1.91877
