ply
    format ascii 1.0           
    element vertex 17
    property double x           
    property double y           
    property double z           
    end_header
-0.191277 0.650715 1.18001
-0.291846 0.245376 1.31692
-0.357354 0.312804 1.26939
-0.305751 0.431124 1.24338
-0.248394 0.65388 1.18387
-0.277433 0.583066 1.18449
-0.297619 0.525548 1.21844
-0.286396 0.689522 1.22437
-0.0516304 0.385871 1.24258
-0.218861 0.702365 1.1755
-0.135364 0.227802 1.38402
-0.0651208 0.256256 1.37916
-0.130434 0.380806 1.23163
-0.354854 0.267019 1.31425
0.00340704 0.366834 1.2779
-0.244113 0.504831 1.19247
-0.249738 0.71216 1.19261
