ply
    format ascii 1.0           
    element vertex 12
    property double x           
    property double y           
    property double z           
    end_header
0.284951 -0.284789 1.56321
-0.261523 -0.0438966 1.64171
0.0221588 -0.297773 1.41339
-0.173028 -0.190534 1.54458
0.160817 -0.228344 1.48423
-0.184623 -0.434127 1.67965
0.294234 -0.195623 1.55948
0.218882 -0.220624 1.41128
0.455185 -0.348702 1.64414
0.0103022 -0.410692 1.5387
0.334561 -0.237866 1.46412
0.0869311 -0.321845 1.38673
