ply
    format ascii 1.0           
    element vertex 18
    property double x           
    property double y           
    property double z           
    end_header
0.0231538 -0.208929 1.44627
-0.230805 -0.372728 1.59048
-0.0209691 -0.369639 1.44955
-0.267436 -0.304867 1.53532
0.147003 -0.405588 1.53603
0.306549 -0.227295 1.47221
-0.0612323 -0.444136 1.53589
0.387724 -0.223499 1.5188
0.296234 -0.374974 1.5397
0.0856275 -0.246952 1.48426
-0.202496 -0.297536 1.47684
0.201182 -0.358549 1.48191
-0.151472 -0.348661 1.45298
0.0647534 -0.424068 1.5443
0.157706 -0.255876 1.49125
-0.0781143 -0.303133 1.41658
0.223614 -0.24811 1.46033
-0.0753297 -0.197 1.40351
