ply
    format ascii 1.0           
    element vertex 21
    property double x           
    property double y           
    property double z           
    end_header
-0.218342 -0.403064 1.77866
0.00271142 -0.383799 1.59932
-0.256756 -0.325083 1.72522
0.183296 -0.438104 1.70067
-0.0405391 -0.470308 1.7019
-0.120303 -0.444265 1.7069
-0.186336 -0.310611 1.64403
0.408468 -0.333429 1.70598
0.239016 -0.38544 1.6413
-0.131705 -0.358109 1.58923
0.093536 -0.455451 1.70801
0.198427 -0.276761 1.68676
-0.0546327 -0.312216 1.56853
0.267597 -0.264727 1.64448
-0.247916 -0.232756 1.67411
0.15714 -0.355548 1.68679
0.316177 -0.337428 1.65613
0.293936 -0.190527 1.70594
-0.0538423 -0.202178 1.58346
0.504092 -0.320207 1.81766
0.0293621 -0.297652 1.59106
