ply
    format ascii 1.0           
    element vertex 18
    property double x           
    property double y           
    property double z           
    end_header
-0.831605 -0.807816 4.94584
-0.107904 -0.634759 4.35759
0.477524 -0.883739 4.63699
1.04002 -0.269581 4.59908
-0.287457 -0.8153 4.52117
-0.514323 -0.896609 4.64647
1.32157 -0.323429 4.80091
0.273251 -0.327018 4.62573
-0.716829 -0.426297 4.53414
1.21818 -0.567147 4.70683
0.175066 -0.944242 4.53536
0.529404 -0.372111 4.64762
0.750676 -0.304475 4.52718
-0.710016 0.122796 5.08212
-0.915578 -0.207582 4.67538
0.391495 -0.609287 4.5912
-0.267148 -0.0491233 4.4243
1.48356 -0.607795 5.00054
