ply
    format ascii 1.0           
    element vertex 29
    property double x           
    property double y           
    property double z           
    end_header
1.8423 -1.44309 7.63055
4.60305 -1.65523 15.7326
0.953658 -0.874083 6.52626
2.05612 -0.940795 8.28309
1.98072 -1.04759 6.80076
-0.370855 -0.585581 9.43476
-0.313368 -2.83115 11.8751
-0.0950174 -0.907307 11.8658
0.80864 -1.72438 8.19368
3.21077 -1.79761 11.0102
1.96994 -0.922679 9.78143
-0.410782 -1.25543 10.649
1.1677 -1.06203 7.2675
-0.0233263 -0.431583 8.96965
1.28978 -1.17655 6.60987
0.429181 -1.23208 4.41942
1.91592 -1.10794 7.77085
2.16718 -1.67156 7.89817
1.56842 -1.23041 6.8967
2.32238 -2.62392 12.0324
0.971815 -1.23814 7.04165
1.32026 -1.5303 7.30974
0.696563 -2.73374 11.2672
-1.22201 -0.799254 12.5292
2.0785 -1.3213 7.45948
1.07627 -1.71339 7.30277
1.63073 -2.34696 10.0325
0.769162 -0.955326 7.17703
0.679268 -1.26628 6.79744
