ply
    format ascii 1.0           
    element vertex 12
    property double x           
    property double y           
    property double z           
    end_header
-0.176521 -0.208497 0.89919
-0.142843 -0.100652 0.790015
-0.181529 -0.076069 0.819636
-0.00279562 -0.248883 0.762338
-0.128513 -0.16961 0.8046
0.160912 -0.169694 0.818425
-0.0819571 -0.0967784 0.84027
0.138199 -0.290133 0.887098
-0.0117969 -0.313207 0.837516
0.192516 -0.200857 0.782825
0.0399747 -0.266434 0.754361
0.088894 -0.300608 0.841796
