ply
    format ascii 1.0           
    element vertex 20
    property double x           
    property double y           
    property double z           
    end_header
-2.78668 11.1282 17.2699
-3.95112 4.03337 18.7123
-2.20693 10.2749 15.0382
-6.12362 6.41683 21.7835
-0.296519 4.37393 9.58873
-5.35272 8.71866 21.294
-3.31669 12.5562 23.3261
-4.92605 11.1012 25.2963
-4.94682 9.88253 19.5027
-3.57892 9.43731 14.1551
0.168449 4.60173 13.0143
-0.0483301 3.75206 13.1927
-3.13006 11.4855 16.3945
-1.25379 10.0809 24.4488
-0.479996 1.77785 11.662
0.223095 2.08093 11.5946
-2.32445 8.74965 23.5456
-4.93914 4.28652 18.4396
0.884433 3.79135 12.0358
-5.42683 12.916 25.7864
