ply
    format ascii 1.0           
    element vertex 23
    property double x           
    property double y           
    property double z           
    end_header
-0.432433 -0.768499 3.246
-0.508702 -0.611375 3.18638
0.661633 -0.464465 3.09745
-0.236597 -0.25478 3.15271
-0.254386 -0.838448 3.14505
0.834373 -0.480799 3.20892
0.640939 -0.79211 3.21037
-0.373058 -0.57318 3.05502
0.769314 -0.642224 3.18608
0.436912 -0.720015 3.06162
-0.274584 -0.667371 2.96073
0.157739 -0.877589 3.16507
-0.122866 -0.570398 2.93079
0.490938 -0.502606 3.0546
-0.63934 -0.473531 3.3076
-0.499516 -0.435154 3.16397
0.592766 -0.64297 3.10238
0.543077 -0.359981 3.21804
-0.0989894 -0.175449 3.30583
-0.11087 -0.358217 2.94793
0.934579 -0.637609 3.36645
0.0424781 -0.543078 2.94868
0.802077 -0.778821 3.35402
