ply
    format ascii 1.0           
    element vertex 21
    property double x           
    property double y           
    property double z           
    end_header
0.310161 -0.404113 2.23688
0.517843 -0.602183 2.21899
0.892543 -0.461683 2.67789
0.204902 -0.467113 2.53513
0.580231 -0.390563 2.3675
-0.0917002 -0.415021 2.41134
0.131404 -0.691511 2.19311
0.465265 -0.389757 2.33882
-0.198399 -0.519578 2.37882
-0.168495 -0.265798 2.46647
-0.304746 -0.774478 2.7275
0.326739 -0.5465 2.09944
-0.181217 -0.739567 2.32017
0.536508 -0.465754 2.25275
0.647815 -0.671135 2.29788
0.438162 -0.548113 2.14214
0.843857 -0.692229 2.56553
0.330375 -0.657483 2.17188
0.12939 -0.86391 2.46024
0.624616 -0.555265 2.23421
0.239547 -0.737579 2.1631
