ply
    format ascii 1.0           
    element vertex 27
    property double x           
    property double y           
    property double z           
    end_header
-0.113929 -0.748258 3.6062
0.0314077 -0.325513 3.74527
0.847508 -0.60095 3.38267
-0.42151 -0.12691 3.68985
-0.576034 -0.028547 3.88154
0.186819 -0.729852 3.36658
1.30739 -0.637491 3.75965
0.415782 -0.37517 3.33518
-0.273744 -0.0244838 3.81181
-0.496364 -0.934265 4.21988
0.519457 -0.473812 3.23205
0.891262 -0.381395 3.46723
0.655079 -0.33152 3.40784
1.04466 -0.728897 3.42596
0.716904 -0.500771 3.29879
1.37521 -0.814016 3.82331
-0.098967 -0.118893 3.83336
0.818728 -0.907121 3.66743
0.284245 -0.499453 3.27114
0.53618 -0.698191 3.39222
0.0345443 -0.897119 3.52518
0.174256 -1.01669 3.61715
-0.583663 -0.242618 3.96771
0.387221 -0.968339 3.46417
0.363279 -0.800931 3.30376
0.585828 -0.901461 3.47677
0.15333 -0.322565 3.38202
