ply
    format ascii 1.0           
    element vertex 25
    property double x           
    property double y           
    property double z           
    end_header
0.433456 -3.02796 24.5999
4.62792 -1.81259 25.5042
7.16196 -4.60036 24.2994
12.6783 -3.25693 31.2603
-2.87463 -0.302031 26.307
-4.08119 0.652691 27.0732
-1.50827 -7.52938 26.7894
1.87613 -5.60585 24.5612
10.9807 -4.79047 27.9313
6.91029 -1.77647 27.3048
-2.35797 -2.79359 26.712
3.7531 -2.79035 23.5949
-1.70644 0.557229 27.0847
4.63094 -3.72469 23.18
7.58679 -2.83681 25.0858
5.78176 -2.44545 24.6891
9.084 -5.85291 26.2174
6.19729 -3.8994 23.6235
11.6736 -6.28783 29.1931
-0.333105 -0.119303 28.4996
2.7516 -3.81938 23.3949
4.57472 -5.28033 24.0004
0.576694 -6.61098 25.1797
8.70049 -4.15493 24.6675
3.21648 -6.11234 23.2754
