ply
    format ascii 1.0           
    element vertex 27
    property double x           
    property double y           
    property double z           
    end_header
0.327122 -1.10205 12.3428
3.53574 -3.04303 12.1915
1.11717 -1.02714 11.0051
-1.14051 -0.46188 11.5194
-0.543265 -3.50672 12.7076
0.723133 -2.39847 10.4168
4.39898 -2.11354 12.2561
-0.92533 -1.42977 11.7825
-0.695265 -0.151856 12.5753
-1.57956 -3.24266 15.5992
1.66364 -1.57089 9.37181
-1.1216 -4.301 17.0386
2.92946 -1.33584 10.74
3.51753 -2.46858 11.0899
-0.122184 -0.43512 12.3467
-1.46304 -1.10712 11.8579
1.75628 -2.24254 10.2157
0.281705 -2.9714 11.4536
0.766414 -3.45065 12.319
-1.7068 -0.799517 12.9242
3.27964 -1.77353 10.3315
1.34688 -3.14897 10.9396
1.22038 -2.5607 9.89096
2.01292 -2.98616 11.1067
0.397521 -1.80844 9.9144
1.54845 -0.734075 11.899
1.05621 -0.713047 13.4222
