ply
    format ascii 1.0           
    element vertex 20
    property double x           
    property double y           
    property double z           
    end_header
-0.166999 -0.400324 2.77825
-0.652824 -0.296963 3.03705
0.498241 -0.193071 2.97603
-0.38368 0.0430732 3.03635
-0.261855 -0.577766 2.975
-0.410263 -0.522447 3.01283
0.671216 -0.212439 3.14372
0.459304 -0.504071 3.02286
-0.514641 -0.258952 2.88374
0.590119 -0.365335 3.04583
-0.00907258 -0.56585 2.97281
-0.0161519 -0.370282 2.8892
-0.264945 -0.256941 2.73865
-0.515516 0.0916595 3.22855
-0.781231 -0.165168 3.19641
0.413385 -0.354302 2.92788
0.759359 -0.374172 3.28027
-0.106918 -0.235972 2.78748
0.627057 -0.50865 3.25898
0.303567 -0.5565 3.0827
