ply
    format ascii 1.0           
    element vertex 32
    property double x           
    property double y           
    property double z           
    end_header
0.122078 -1.00923 7.24874
-0.29486 -1.54419 7.47714
0.0662499 -1.25498 6.86476
1.06368 -1.00682 7.19431
2.66247 -1.20579 7.68414
1.89868 -2.01974 7.03779
0.612509 -0.995067 7.03748
1.85718 -0.976705 7.29437
2.21932 -1.23624 7.3085
-0.698182 -0.741681 7.39763
-0.980352 -0.5418 7.64863
-0.316926 -2.33153 7.24396
-0.206131 -0.98918 7.50823
2.45423 -1.57612 7.3378
-0.545633 -1.26754 7.28467
0.852698 -1.19856 6.81798
-0.806413 -2.13929 8.15852
1.04498 -1.38713 6.61614
1.73601 -1.19605 7.051
2.09633 -1.90556 7.12983
1.41634 -1.41748 6.71481
2.53551 -1.86158 7.3624
1.55431 -2.08715 7.22307
0.607161 -1.41427 6.6493
1.0445 -1.73907 6.7125
0.12627 -2.04862 6.84608
0.398158 -2.30544 7.11445
-0.981494 -0.922938 7.70734
1.98218 -1.44581 6.83662
0.720803 -1.90122 6.49003
1.11481 -2.0415 6.73751
0.357255 -1.0907 6.85562
