ply
    format ascii 1.0           
    element vertex 16
    property double x           
    property double y           
    property double z           
    end_header
-0.5198 -0.722062 3.05484
-0.0943897 -0.623701 2.56739
-0.581606 -0.566594 2.92458
-0.175716 -0.799007 2.80926
-0.324288 -0.76594 2.84752
0.623574 -0.556809 2.82853
-0.333829 -0.576244 2.58141
0.247177 -0.462291 2.82689
-0.194955 -0.498067 2.52955
0.366907 -0.426869 2.71979
-0.722124 -0.454891 3.11112
-0.561284 -0.396042 2.83815
0.172638 -0.590263 2.77327
0.456531 -0.550882 2.72117
0.81164 -0.565903 3.12302
-0.0464581 -0.475247 2.58514
