ply
    format ascii 1.0           
    element vertex 17
    property double x           
    property double y           
    property double z           
    end_header
-0.266906 -0.478598 2.03365
-0.308995 -0.377059 1.97179
0.209055 -0.504392 1.90572
0.414565 -0.285743 1.90767
-0.0549469 -0.541906 1.89735
-0.150333 -0.513375 1.93131
0.135148 -0.306529 1.92325
-0.224623 -0.35037 1.86391
0.473052 -0.38711 1.92845
0.0939569 -0.410176 1.8542
0.303594 -0.304902 1.85031
-0.396845 -0.294708 2.0806
-0.299729 -0.264318 1.92741
0.361838 -0.385488 1.86194
0.588553 -0.390597 2.08533
0.0307485 -0.330664 1.78334
0.501853 -0.473698 2.05828
