ply
    format ascii 1.0           
    element vertex 19
    property double x           
    property double y           
    property double z           
    end_header
-0.027811 -0.520682 2.45829
-0.446119 -0.453262 2.72241
0.257468 -0.629122 2.6429
0.532673 -0.330942 2.63157
-0.228028 -0.636009 2.65919
0.676102 -0.352095 2.72989
-0.328198 -0.409854 2.58607
0.607451 -0.476392 2.65575
-0.238981 -0.472561 2.46669
0.0996829 -0.496961 2.55826
0.277796 -0.380607 2.64329
0.38585 -0.352209 2.57467
-0.556811 -0.346835 2.86329
-0.427132 -0.295649 2.66026
0.21344 -0.498991 2.63149
0.460639 -0.468119 2.5703
0.430174 -0.24856 2.71933
-0.115008 -0.231914 2.50184
0.0147051 -0.382388 2.48596
