ply
    format ascii 1.0           
    element vertex 26
    property double x           
    property double y           
    property double z           
    end_header
-0.377199 -0.469859 2.66932
-0.00174701 -0.361495 2.39957
0.301538 -0.504263 2.5052
0.608183 -0.181429 2.57019
-0.0802031 -0.548623 2.50167
-0.558445 -0.41012 2.71646
-0.216016 -0.510631 2.54013
0.746042 -0.213443 2.64469
0.571994 -0.474188 2.54574
0.200881 -0.212535 2.57085
-0.32535 -0.256013 2.50137
0.680408 -0.342556 2.55469
0.402311 -0.388716 2.46966
-0.228314 -0.31072 2.39687
0.150728 -0.538217 2.51383
0.14061 -0.349019 2.48774
-0.0959282 -0.225258 2.39239
0.449895 -0.197084 2.50008
-0.423893 -0.149103 2.55717
0.254732 -0.354106 2.52104
0.529788 -0.322601 2.49309
0.826258 -0.375028 2.72712
0.0517912 -0.209281 2.43844
0.704618 -0.488808 2.67735
0.427721 -0.528941 2.56955
0.024129 -0.463471 2.49915
