ply
    format ascii 1.0           
    element vertex 23
    property double x           
    property double y           
    property double z           
    end_header
-0.286498 -0.460262 2.13115
-0.000578626 -0.432982 1.94353
0.462989 -0.249849 1.99442
-0.0594804 -0.552792 2.04925
-0.421803 -0.400842 2.1747
-0.165892 -0.514163 2.06685
0.577661 -0.26055 2.04787
0.443294 -0.473448 2.04646
-0.25208 -0.32932 2.01627
0.189216 -0.197502 2.08933
0.528551 -0.370776 2.02772
-0.182987 -0.395618 1.96614
0.116988 -0.536169 2.03868
0.108768 -0.401131 1.98967
0.254271 -0.291279 2.00314
-0.0801529 -0.328559 1.93239
0.347329 -0.274691 1.98295
-0.332774 -0.228306 2.05374
0.41166 -0.374255 1.9957
0.375526 -0.17733 2.03479
-0.0729748 -0.178378 1.92489
0.0363794 -0.30852 1.93724
0.546111 -0.457168 2.12621
