ply
    format ascii 1.0           
    element vertex 19
    property double x           
    property double y           
    property double z           
    end_header
-0.0174834 -0.308918 1.21141
-0.223379 -0.254849 1.28357
0.12347 -0.340395 1.28912
0.260797 -0.193501 1.25336
-0.0511237 -0.371691 1.28532
-0.113869 -0.349735 1.29175
0.327906 -0.188995 1.28432
0.249742 -0.316274 1.29866
-0.169243 -0.248295 1.2323
0.297103 -0.26345 1.27279
0.168136 -0.301063 1.24445
-0.124702 -0.28837 1.2018
0.0541038 -0.356224 1.29726
0.133862 -0.216174 1.25974
-0.0649837 -0.25339 1.18413
-0.275096 -0.192465 1.31153
-0.063607 -0.165529 1.17921
0.366506 -0.238387 1.35131
0.00259819 -0.24044 1.1927
