ply
    format ascii 1.0           
    element vertex 22
    property double x           
    property double y           
    property double z           
    end_header
-1.39469 -1.27137 8.36401
-0.263143 -1.02514 6.91587
-1.54945 -0.807569 7.85039
-0.812144 0.109563 7.74387
-1.95405 -1.05532 8.61233
-0.902103 -1.4209 7.83072
-0.579095 -1.03022 7.14921
1.4104 -1.32146 7.58853
-1.18037 -0.68066 7.33965
0.512346 -0.297074 8.14151
1.73299 -0.942011 7.53986
0.150709 -0.962495 7.26016
0.684938 -0.594797 7.22581
-0.0599187 0.121475 8.31342
1.02738 -0.532046 7.24057
-1.18566 0.227551 8.51308
-1.91515 -0.47553 8.42461
-1.51609 -0.33174 7.89293
0.49112 -0.973175 7.35178
1.26301 -0.906246 7.25119
-0.495421 -0.133476 6.92741
-1.65367 0.0128826 8.62266
