ply
    format ascii 1.0           
    element vertex 21
    property double x           
    property double y           
    property double z           
    end_header
-0.297054 -0.469309 1.98583
-0.0510608 -0.432281 1.80975
-0.33787 -0.378677 1.93435
0.148248 -0.498387 1.9156
0.341973 -0.287279 1.91099
-0.0989391 -0.537299 1.89911
-0.187098 -0.508155 1.91412
0.438041 -0.292091 1.96918
-0.260754 -0.353513 1.85625
0.397264 -0.386755 1.9331
0.208661 -0.431605 1.8701
-0.198817 -0.399284 1.80301
0.0400983 -0.411593 1.86597
0.163764 -0.326408 1.91377
-0.113342 -0.349134 1.785
0.243102 -0.306412 1.88345
-0.412417 -0.299604 1.99628
-0.328096 -0.272307 1.89047
0.266072 -0.227018 1.95064
-0.108875 -0.226793 1.80461
0.488169 -0.382178 2.03557
