ply
    format ascii 1.0           
    element vertex 14
    property double x           
    property double y           
    property double z           
    end_header
-0.170625 -0.171832 1.05718
-0.151674 -0.0229311 0.942072
-0.192627 0.00487592 0.977434
-0.119482 -0.303522 1.09623
0.00547193 -0.199803 0.926658
0.297338 -0.171297 0.994947
0.105884 -0.140726 0.947646
0.200108 -0.107797 0.969828
0.150947 -0.136007 0.89485
-0.0758529 -0.0231049 0.992066
0.172332 -0.249722 1.00216
0.233422 -0.145885 0.919815
0.0547335 -0.221322 0.916432
0.117339 -0.261082 1.00232
