ply
    format ascii 1.0           
    element vertex 19
    property double x           
    property double y           
    property double z           
    end_header
-0.171064 -0.323196 1.37061
0.0228412 -0.307406 1.22728
-0.205732 -0.255098 1.32516
0.1822 -0.351414 1.30497
0.334212 -0.180428 1.28215
-0.0144049 -0.382216 1.30879
-0.0842787 -0.360451 1.3154
0.32388 -0.323191 1.32461
0.125764 -0.200151 1.28345
0.379302 -0.256973 1.30703
0.230291 -0.305406 1.25712
-0.0957959 -0.285455 1.21788
0.104217 -0.368798 1.31656
-0.0286106 -0.244346 1.20076
0.256114 -0.199257 1.26428
-0.264086 -0.19016 1.36186
0.297277 -0.262006 1.26831
-0.0282008 -0.145276 1.20352
0.045133 -0.229818 1.21551
