ply
    format ascii 1.0           
    element vertex 17
    property double x           
    property double y           
    property double z           
    end_header
-1.03476 0.664684 3.81932
-0.662841 1.99911 3.59319
-1.20425 0.891529 3.69221
-0.862478 1.87 3.5355
-0.573138 1.80898 3.5625
-0.650407 1.49192 3.42261
-0.846201 1.23263 3.51276
-0.956017 1.6346 3.453
-1.01675 1.46724 3.53585
-0.994448 1.97267 3.65272
-0.372644 0.934461 3.97385
-0.777578 2.00809 3.51482
-0.578646 0.624631 4.27629
-1.01395 0.9859 3.58054
-0.567762 1.03844 3.56805
-1.21086 0.731245 3.77741
-0.157306 1.01933 3.88988
