ply
    format ascii 1.0           
    element vertex 24
    property double x           
    property double y           
    property double z           
    end_header
0.514998 -0.236727 3.48807
-0.22212 -0.0986678 3.73481
-0.0150914 -1.05759 3.78314
0.0514691 -0.246361 3.76611
-0.148019 -0.431743 3.78346
0.644552 -0.353292 3.36627
-0.0639247 0.0215048 3.80545
0.742229 -0.450428 3.22214
-0.154636 -1.21688 4.44987
1.13396 -0.360964 3.48593
0.952656 -0.481626 3.30791
1.62248 -0.797537 3.80067
0.113663 -0.0969961 3.87475
-0.323295 -0.329618 3.8216
1.04271 -0.889697 3.60534
0.508265 -0.484793 3.29342
0.750346 -0.661678 3.3286
0.400377 -1.04967 3.71711
-0.385318 -0.227364 3.98971
1.26716 -0.506889 3.3819
0.605392 -0.968816 3.45394
0.579287 -0.785593 3.27041
0.81912 -0.910838 3.49102
0.3697 -0.292618 3.40173
