ply
    format ascii 1.0           
    element vertex 23
    property double x           
    property double y           
    property double z           
    end_header
2.20969 -0.556335 5.15981
1.36389 -0.278093 4.12822
1.45534 -0.398164 3.85282
-0.0207533 -1.25074 4.47316
0.0610977 -0.296694 4.53516
0.407723 -0.739537 3.38998
1.86125 -0.734119 4.44646
1.13331 -0.259404 4.08174
-0.162044 -0.487353 4.27404
-0.0851854 0.0294827 5.18983
-0.355942 -1.14578 5.17146
0.760761 -0.462038 3.30557
-0.100128 -0.796767 2.91385
1.19744 -0.381505 3.68025
0.960899 -0.486421 3.34115
1.99166 -0.975281 4.65528
0.146087 -0.120742 4.84031
1.27059 -1.08104 4.38328
0.780325 -0.687935 3.46168
0.460878 -1.20503 4.26765
1.35344 -0.541947 3.61595
0.606622 -0.823669 3.42813
0.975783 -1.0879 4.16906
