ply
    format ascii 1.0           
    element vertex 21
    property double x           
    property double y           
    property double z           
    end_header
0.060982 -0.0941387 1.58987
-0.227876 -0.301251 1.73802
-0.000483427 -0.271014 1.55194
0.381673 -0.140154 1.63007
-0.0476063 -0.369909 1.64098
-0.338269 -0.25362 1.77452
-0.129797 -0.340389 1.66523
0.358746 -0.319193 1.65474
0.128417 -0.155562 1.64485
0.429454 -0.234646 1.64972
0.250031 -0.276079 1.59984
-0.14034 -0.236664 1.554
0.0949175 -0.362837 1.64382
0.0881402 -0.247912 1.61218
-0.0591633 -0.187849 1.53555
0.282655 -0.153213 1.59931
-0.258921 -0.111717 1.64818
0.331454 -0.233646 1.60381
0.523063 -0.238147 1.74915
0.0327836 -0.174432 1.55705
0.446395 -0.311109 1.73905
