ply
    format ascii 1.0           
    element vertex 27
    property double x           
    property double y           
    property double z           
    end_header
0.00205648 -0.671092 2.7129
0.690777 -0.293718 2.94146
0.403516 -0.361957 2.9294
-0.479185 -0.55698 2.93387
0.340943 -0.771095 2.89353
-0.0780885 -0.829682 2.89404
-0.593648 -0.621138 3.08605
-0.22632 -0.778292 2.8942
0.833402 -0.406721 2.95555
0.639354 -0.715095 2.93854
0.222082 -0.450417 2.8546
-0.348497 -0.531327 2.78734
0.754596 -0.572563 2.88285
0.43942 -0.667227 2.75847
-0.248902 -0.627619 2.71665
0.173273 -0.807331 2.92298
0.159262 -0.623785 2.7929
0.366623 -0.466143 2.84412
-0.102372 -0.536665 2.65429
0.495505 -0.44631 2.77945
-0.344584 -0.159497 2.9991
-0.606282 -0.418693 3.0218
-0.465338 -0.386397 2.84909
0.288566 -0.61207 2.84529
0.585319 -0.580936 2.79684
-0.0839204 -0.125164 2.96473
-0.0999582 -0.330077 2.67801
