ply
    format ascii 1.0           
    element vertex 18
    property double x           
    property double y           
    property double z           
    end_header
-0.020319 -0.348507 1.36672
0.139023 -0.382765 1.44955
-0.0570026 -0.418843 1.44843
-0.303971 -0.314453 1.52064
-0.12746 -0.394363 1.45661
0.280726 -0.355701 1.46054
0.0822913 -0.234944 1.41182
-0.190081 -0.280582 1.39284
0.333772 -0.296043 1.43019
0.188051 -0.338854 1.401
-0.140388 -0.325877 1.35814
0.0613457 -0.400936 1.46004
-0.0731933 -0.286129 1.33713
0.213111 -0.236398 1.39131
-0.244553 -0.211457 1.40622
0.255182 -0.297454 1.40293
-0.0714061 -0.186679 1.32998
0.00187596 -0.271709 1.34788
