ply
    format ascii 1.0           
    element vertex 12
    property double x           
    property double y           
    property double z           
    end_header
0.320443 -0.599013 1.88177
-0.288552 -0.280363 1.66001
-0.0313237 -0.490482 1.49712
-0.25649 -0.395693 1.67273
0.106931 -0.431691 1.57763
-0.28781 -0.647409 1.96323
0.249707 -0.377651 1.71444
0.17021 -0.399249 1.48288
-0.190728 -0.269371 1.84612
-0.0450359 -0.610952 1.70235
0.29357 -0.406553 1.56652
0.0409038 -0.511775 1.46014
