ply
    format ascii 1.0           
    element vertex 27
    property double x           
    property double y           
    property double z           
    end_header
-2.83503 -1.88383 15.7526
-0.187958 -0.89603 12.9088
-3.10125 -0.781501 15.0573
1.6625 -1.96615 14.2027
3.90945 -0.0207844 16.3044
-0.755303 -2.17393 13.8217
4.82084 -0.37243 16.7164
3.51196 -1.87937 15.1119
1.10427 -0.169971 16.0545
4.23067 -1.0847 15.2672
2.337 -1.21371 14.0073
-1.57175 -0.560256 12.7353
0.704272 -2.16156 14.3977
0.644262 -0.908068 14.0031
-0.764103 -0.0660229 13.1143
2.72433 -0.0500588 15.0963
-3.99741 -0.297106 16.6264
1.45338 -1.08907 14.8689
5.58277 -1.60408 18.0453
0.104806 -0.0149893 13.8886
4.4403 -2.2238 16.2867
2.52892 -2.24714 15.0783
-0.116331 -1.66766 13.9759
-0.915897 -1.03883 13.6078
1.94099 -2.98494 15.7163
0.929288 -3.17132 17.496
-4.11395 -2.32183 18.9796
