ply
    format ascii 1.0           
    element vertex 18
    property double x           
    property double y           
    property double z           
    end_header
0.114305 -0.133291 1.41346
-0.170142 -0.0534789 1.41698
-0.238387 -0.0111481 1.50045
-0.10732 -0.424579 1.48164
-0.0749296 -0.112388 1.47998
0.0645192 -0.306852 1.32761
0.508834 -0.27402 1.48998
-0.147317 -0.176491 1.44178
-0.11598 -0.0200113 1.4638
0.212023 -0.215898 1.32677
-0.140228 -0.379112 1.37265
0.349745 -0.175517 1.37374
0.278665 -0.21922 1.30026
0.316486 -0.387331 1.48207
0.199715 -0.289876 1.31348
-0.000714417 -0.374692 1.41264
0.2338 -0.403257 1.46759
0.0540536 -0.140378 1.32694
