ply
    format ascii 1.0           
    element vertex 18
    property double x           
    property double y           
    property double z           
    end_header
-0.459229 1.62764 2.95382
-0.650421 0.784756 3.26351
-0.779964 0.919117 3.12949
-0.493388 1.46225 2.92453
-0.277693 1.35999 3.18356
-0.571318 1.62525 2.94289
-0.358423 1.59781 2.96911
-0.532521 1.19226 3.01482
-0.668774 1.36204 3.02111
-0.666523 1.68089 2.99251
-0.189243 1.00966 3.32559
-0.518277 1.72044 2.91121
-0.194466 1.14176 3.03533
-0.326586 0.781344 3.5225
-0.648234 1.01879 3.10191
-0.320092 1.07662 3.09727
-0.781253 0.816776 3.22193
-0.556348 1.30751 2.94966
