ply
    format ascii 1.0           
    element vertex 21
    property double x           
    property double y           
    property double z           
    end_header
0.0211357 -0.0987808 2.63095
-0.0719995 -0.353277 2.52843
-0.499911 -0.282622 2.75032
0.223613 -0.479391 2.68611
0.523378 -0.176699 2.71621
-0.149292 -0.523188 2.6499
-0.280764 -0.477979 2.68655
0.664275 -0.200808 2.80103
-0.379576 -0.240276 2.60875
0.607371 -0.326059 2.74589
0.315292 -0.379181 2.60708
-0.286813 -0.307059 2.49025
0.0714302 -0.515459 2.66433
0.255447 -0.223855 2.72438
-0.159742 -0.229916 2.48798
0.375026 -0.194232 2.67243
-0.610089 -0.173796 2.86623
-0.476836 -0.126397 2.67432
0.444518 -0.314609 2.64425
-0.149512 -0.0556224 2.54395
0.741366 -0.343399 2.91291
