ply
    format ascii 1.0           
    element vertex 18
    property double x           
    property double y           
    property double z           
    end_header
2.29308 -2.23725 8.72064
0.571602 -0.955372 5.54718
0.996439 -3.38011 11.0487
1.87597 -1.24644 8.24886
3.6297 -4.77784 19.2236
2.17751 -1.56824 8.16388
1.89997 -1.73836 9.13178
2.18755 -1.93092 6.95279
3.15809 -3.24605 13.3464
1.25571 -1.63349 5.28829
2.19784 -3.45216 11.9163
0.318119 -2.39781 7.22839
0.440185 -1.9879 5.7493
2.7365 -2.07274 8.80083
2.00887 -4.59305 13.8909
1.1481 -1.99462 6.01712
0.860603 -2.2336 11.2307
0.591235 -0.62961 4.74358
