ply
    format ascii 1.0           
    element vertex 12
    property double x           
    property double y           
    property double z           
    end_header
-0.152968 0.218222 0.871008
-0.103826 0.528501 0.852165
-0.179916 0.258068 0.819951
-0.102976 0.442922 0.818606
-0.141495 0.436498 0.798566
-0.175893 0.441964 0.903472
-0.0184658 0.348366 0.938742
-0.0415623 0.31076 0.970298
-0.0910975 0.22758 0.994693
-0.0569514 0.325972 0.878181
-0.185003 0.224719 0.841148
-0.147768 0.535403 0.837903
