ply
    format ascii 1.0           
    element vertex 20
    property double x           
    property double y           
    property double z           
    end_header
-0.289652 -0.479761 2.11108
-0.0261089 -0.449639 1.90061
-0.33161 -0.382064 2.03695
0.188234 -0.520814 2.02808
-0.079172 -0.555655 2.01657
-0.249501 -0.363603 1.95051
0.255725 -0.455818 1.95986
-0.184471 -0.419537 1.89187
0.0726832 -0.424685 1.9657
-0.0924476 -0.362957 1.86386
0.289259 -0.312581 1.96915
-0.247744 -0.133699 2.09693
-0.411626 -0.298573 2.1039
-0.322601 -0.272968 1.98933
0.156344 -0.420916 2.0102
0.347653 -0.400161 1.98292
0.321003 -0.228404 2.05563
-0.177946 -0.291209 1.85761
0.571455 -0.388256 2.18535
0.00628908 -0.34718 1.89352
