ply
    format ascii 1.0           
    element vertex 22
    property double x           
    property double y           
    property double z           
    end_header
0.313396 -0.300856 1.80422
0.739216 -0.346547 2.03888
0.226434 -0.341226 1.99471
0.521367 -0.290616 1.87595
-0.0202854 -0.664192 1.9718
0.171718 -0.532725 1.78521
0.431579 -0.288195 1.8653
-0.0855715 -0.383357 1.91087
-0.0606612 -0.18731 1.9369
-0.155224 -0.56938 2.11606
0.327267 -0.419894 1.72272
0.489705 -0.352723 1.80977
0.570296 -0.517183 1.83181
0.414201 -0.42196 1.74373
0.709245 -0.520538 1.99913
0.464117 -0.589722 1.9542
0.328188 -0.505016 1.77776
0.166256 -0.657052 1.93751
0.256286 -0.569788 1.77284
0.364891 -0.615895 1.90364
0.148443 -0.342895 1.75819
0.272162 -0.266842 1.93679
