ply
    format ascii 1.0           
    element vertex 23
    property double x           
    property double y           
    property double z           
    end_header
0.675964 -0.310747 4.57825
-0.291682 -0.129577 4.90499
-0.0201379 -1.38486 4.95372
0.0676065 -0.323266 4.94201
2.04731 -0.809071 4.89909
-0.194322 -0.566563 4.96468
0.845783 -0.463621 4.41746
-0.0837034 0.0282408 4.99622
0.973806 -0.591018 4.22794
-0.201738 -1.58965 5.81311
1.48705 -0.473185 4.5692
1.24935 -0.631483 4.33723
0.149442 -0.127257 5.08378
-0.424393 -0.43266 5.01635
1.36455 -1.16368 4.71547
0.666747 -0.636236 4.32221
0.983543 -0.867289 4.36298
0.523826 -1.37338 4.86341
-0.505332 -0.298278 5.23502
1.66098 -0.664133 4.43078
0.792498 -1.26833 4.52171
0.759082 -1.0298 4.287
1.07224 -1.19194 4.56848
