ply
    format ascii 1.0           
    element vertex 26
    property double x           
    property double y           
    property double z           
    end_header
0.224998 -0.443902 3.7383
1.92287 -0.484583 4.49235
-0.241046 -0.106727 4.03575
-0.423433 0.000376791 4.29893
-0.0171427 -1.15133 4.11822
0.0556317 -0.271986 4.15678
1.73617 -0.685424 4.1492
-0.156297 -0.465741 4.08418
0.68658 -0.376717 3.58967
-0.0710038 0.0239097 4.23293
0.790009 -0.479843 3.43265
-0.181811 -1.43057 5.23133
1.22761 -0.390842 3.77536
1.01808 -0.515035 3.53743
1.80348 -0.886307 4.22346
0.130323 -0.110026 4.39795
-0.35497 -0.36321 4.21363
0.542857 -0.518647 3.52341
0.79748 -0.703939 3.54129
0.260617 -0.957027 3.79879
0.431616 -1.13498 4.01909
-0.429215 -0.251285 4.40142
1.36966 -0.547712 3.65315
0.61806 -0.837604 3.48692
0.888308 -0.989271 3.79175
0.39276 -0.311467 3.62065
