ply
    format ascii 1.0           
    element vertex 26
    property double x           
    property double y           
    property double z           
    end_header
3.89156 -2.77147 11.246
3.65211 -0.741749 11.0676
-0.672591 -0.299952 11.3654
-1.17118 0.00120719 11.9048
-0.050886 -3.16628 11.3252
0.153406 -0.75386 11.5208
1.2679 -2.30281 10.5595
4.74605 -1.87449 11.37
-0.444798 -1.31496 11.5276
1.90016 -1.0421 9.93272
2.22096 -1.34796 9.63993
-0.640284 -5.06743 18.5317
3.42191 -1.08881 10.5256
3.99636 -2.23517 10.7113
2.85013 -1.44057 9.88482
5.00443 -2.45955 11.7224
0.373189 -0.310116 12.4004
-1.01631 -1.02931 11.9243
1.52733 -1.45388 9.87471
2.22876 -1.96352 9.87373
1.19188 -3.13419 11.1001
-1.20227 -0.708604 12.4347
3.80617 -1.5233 10.1587
1.74346 -2.35661 9.80769
1.0939 -0.870151 10.1172
0.871192 -1.57026 9.81497
