ply
    format ascii 1.0           
    element vertex 22
    property double x           
    property double y           
    property double z           
    end_header
0.489518 -0.527621 2.33609
-0.353979 -0.526686 2.24871
-0.0642612 -0.488197 1.98644
-0.39589 -0.42032 2.15514
0.166469 -0.566579 2.15266
0.393738 -0.325116 2.13269
-0.121142 -0.60594 2.12105
0.516732 -0.332997 2.24476
-0.304805 -0.397161 2.05362
0.459117 -0.441768 2.18109
-0.233357 -0.452677 1.98694
0.0406633 -0.464705 2.0662
-0.133769 -0.394939 1.94802
0.273065 -0.345331 2.08207
-0.307284 -0.154423 2.24862
-0.488827 -0.328481 2.25525
-0.383272 -0.302888 2.10223
0.132105 -0.461936 2.12336
0.336715 -0.436963 2.10068
0.31001 -0.254453 2.20286
-0.224488 -0.318204 1.94611
-0.0274436 -0.37835 1.98881
