ply
    format ascii 1.0           
    element vertex 14
    property double x           
    property double y           
    property double z           
    end_header
-0.318009 -0.208507 2.53705
0.0652518 -0.137321 2.0774
-0.172862 0.152591 2.49649
0.271247 -0.00997745 2.3349
-0.307038 -0.300961 3.11299
0.335648 -0.0249356 2.09883
0.665649 -0.266963 2.34962
0.414573 -0.321857 2.4077
0.153763 -0.158154 2.03232
0.157877 -0.260479 2.06885
0.322602 -0.135207 2.09097
-0.306121 0.00685821 2.43046
0.566309 -0.322776 2.61434
-0.335395 -0.416399 2.63133
