ply
    format ascii 1.0           
    element vertex 31
    property double x           
    property double y           
    property double z           
    end_header
0.8105 -0.57591 4.93269
1.21454 -0.980239 4.69252
1.94085 -0.771274 5.38222
0.514328 -0.576412 4.8661
-0.378182 -0.362598 4.99268
-0.565481 -0.224143 5.13786
-0.135516 -1.44273 4.88989
-0.0524569 -0.54085 5.0845
0.379268 -1.15066 4.69028
1.78601 -1.00816 5.10563
1.10188 -0.524195 4.92662
-0.282942 -0.729142 4.94698
0.674586 -0.702179 4.68399
-0.193603 -0.231595 5.21052
0.806859 -0.827318 4.54157
-0.302777 -1.56817 5.55714
1.29042 -0.728244 4.89159
1.48512 -1.16117 4.81317
1.0724 -0.880483 4.67271
1.8225 -1.19001 5.0818
0.0228017 -0.375391 5.3349
-0.493902 -0.623088 5.07942
0.511175 -0.859364 4.59753
0.799474 -1.06524 4.59332
0.179659 -1.30187 4.73165
0.346541 -1.44197 4.83216
-0.57212 -0.497445 5.22766
1.46593 -0.910524 4.76883
0.337844 -0.623267 4.70338
0.244176 -0.914037 4.58686
0.449744 -0.455763 5.27187
