ply
    format ascii 1.0           
    element vertex 16
    property double x           
    property double y           
    property double z           
    end_header
0.406867 -0.364669 1.45382
-0.0721593 -0.591674 1.63068
-0.0600636 -0.23557 1.6487
0.630589 -0.36054 1.64939
-0.138404 -0.313445 1.59528
-0.119769 -0.115808 1.67041
0.267613 -0.331161 1.41827
-0.129141 -0.504106 1.58949
0.426443 -0.262108 1.50408
0.507757 -0.420042 1.50617
0.345236 -0.31905 1.40015
0.26199 -0.404976 1.4142
0.11202 -0.575047 1.59308
0.489299 -0.325663 1.45998
0.194371 -0.464764 1.39325
0.315577 -0.542335 1.58721
