ply
    format ascii 1.0           
    element vertex 14
    property double x           
    property double y           
    property double z           
    end_header
-0.48904 0.268308 1.29796
-0.304743 0.873621 1.22003
-0.391067 0.693712 1.1453
-0.306412 0.717374 1.20394
-0.464119 0.696127 1.14944
-0.159534 0.478825 1.30063
-0.245961 0.241939 1.48635
-0.304258 0.450082 1.22054
-0.075907 0.443517 1.36383
-0.362958 0.880147 1.20407
-0.211375 0.645137 1.33412
-0.500919 0.502833 1.19874
-0.152092 0.28341 1.47686
-0.123897 0.567623 1.32666
