ply
    format ascii 1.0           
    element vertex 24
    property double x           
    property double y           
    property double z           
    end_header
-0.313012 -0.527067 2.47217
0.523085 -0.296255 2.33181
-0.0626931 -0.63152 2.3862
-0.463606 -0.460477 2.52011
-0.178689 -0.587195 2.39937
0.648452 -0.306555 2.38716
0.500401 -0.546414 2.39953
0.177212 -0.324336 2.35117
-0.275677 -0.384041 2.34872
0.216525 -0.236257 2.43282
0.598307 -0.432186 2.37905
0.352028 -0.494915 2.33603
-0.200387 -0.459852 2.30106
0.135187 -0.6163 2.38721
-0.0845959 -0.385916 2.26504
0.394174 -0.324798 2.32336
-0.471934 -0.300663 2.49305
-0.371337 -0.273026 2.4106
0.467477 -0.436034 2.33861
0.426235 -0.215773 2.39073
-0.0760677 -0.218653 2.26146
0.713339 -0.421466 2.4745
0.045739 -0.363203 2.26988
0.616253 -0.52664 2.4868
