ply
    format ascii 1.0           
    element vertex 24
    property double x           
    property double y           
    property double z           
    end_header
-0.600125 -0.756334 4.35195
0.00435447 -0.550995 3.79074
0.481301 -0.782925 4.04298
0.983873 -0.281812 4.28194
-0.118581 -0.851874 3.97177
-0.895035 -0.666902 4.48065
-0.333814 -0.7967 4.09123
0.912716 -0.745557 4.13074
0.331734 -0.330192 4.26432
-0.498895 -0.397921 4.03858
1.09022 -0.540584 4.18078
0.636225 -0.599196 3.98054
0.243208 -0.83874 4.01736
0.225287 -0.540121 4.01244
0.529795 -0.369358 4.23267
-0.139791 -0.34267 3.80659
0.715521 -0.306749 4.08007
1.35428 -0.619371 4.55731
0.087826 -0.321263 3.92057
1.14369 -0.793999 4.40495
0.682807 -0.835525 4.16108
0.0422093 -0.723027 3.96416
-0.16786 -0.579223 3.95131
0.562531 -1.00251 4.42688
