ply
    format ascii 1.0           
    element vertex 19
    property double x           
    property double y           
    property double z           
    end_header
-0.22391 -0.311244 1.94419
0.251046 -0.343701 1.82019
0.465617 -0.111879 1.84432
-0.351669 -0.264387 1.97861
0.562723 -0.126898 1.89352
0.178609 -0.138619 1.85011
-0.191056 -0.171748 1.80969
0.13581 -0.239206 1.78268
0.353981 -0.124384 1.80773
-0.3502 -0.131963 1.96563
-0.260747 -0.0949279 1.84424
0.22212 -0.238457 1.83628
0.408743 -0.217754 1.80666
0.618338 -0.2348 1.96332
0.0711071 -0.145503 1.75525
0.533078 -0.316427 1.93184
0.339518 -0.354368 1.86474
0.0561893 -0.323711 1.80602
-0.038839 -0.256118 1.79409
