ply
    format ascii 1.0           
    element vertex 18
    property double x           
    property double y           
    property double z           
    end_header
0.320821 -0.371366 2.08829
0.516538 -0.558133 2.06643
0.218853 -0.421878 2.31594
-0.0594502 -0.384374 2.26188
0.787258 -0.549556 2.34786
0.470349 -0.358402 2.18627
-0.161654 -0.480765 2.21718
-0.132344 -0.24345 2.32001
-0.262123 -0.730213 2.56687
-0.144674 -0.686823 2.15627
0.637715 -0.620993 2.13107
0.440325 -0.50553 1.99082
0.827386 -0.645767 2.3943
0.336308 -0.607509 2.01279
0.614559 -0.511106 2.07066
0.250677 -0.674303 1.98087
0.393583 -0.761911 2.24001
0.12547 -0.420013 2.01992
