ply
    format ascii 1.0           
    element vertex 24
    property double x           
    property double y           
    property double z           
    end_header
2.71424 -0.776909 7.07053
-0.117372 -1.76873 7.08756
0.549642 -1.12949 5.88214
2.43334 -1.05374 6.60799
1.53572 -0.402547 6.27325
-0.289284 -0.64596 6.66911
0.941746 -0.56719 5.83591
-0.148713 0.036434 6.98191
-0.59551 -1.47848 7.72227
1.72903 -0.604208 6.09703
1.34922 -0.513285 6.00146
1.96898 -1.18307 6.0409
1.42045 -0.78084 5.7359
2.55523 -1.36578 6.76687
0.14742 -0.12636 7.0279
-0.685976 -0.651953 8.55517
0.833902 -0.894442 6.5079
1.11372 -1.08743 5.90357
0.322118 -1.48472 6.54742
0.566897 -1.72849 6.76803
1.92839 -0.851241 5.91609
0.527739 -0.467884 5.95266
0.524115 -1.08476 7.29029
0.980007 -0.295165 6.43046
