ply
    format ascii 1.0           
    element vertex 18
    property double x           
    property double y           
    property double z           
    end_header
-0.209554 -0.43698 1.89218
0.254758 -0.261474 1.55631
0.409436 -0.409775 1.5546
-0.162258 -0.215215 1.66103
-0.0582953 -0.616133 1.73625
0.122896 -0.482783 1.54393
0.611544 -0.398401 1.72802
0.26733 -0.370427 1.4687
-0.108433 -0.517665 1.63479
0.506108 -0.45846 1.59623
0.638471 -0.469614 1.75945
-0.0226908 -0.202276 1.74253
0.270037 -0.450922 1.51677
0.120568 -0.601025 1.69815
0.486778 -0.373392 1.54491
0.20267 -0.510856 1.49947
0.311704 -0.565951 1.65795
0.219114 -0.235157 1.72068
