ply
    format ascii 1.0           
    element vertex 18
    property double x           
    property double y           
    property double z           
    end_header
-1.07742 -1.44737 6.35393
-0.0380584 -1.12919 5.33841
0.809947 -1.47942 5.84547
-0.241991 -1.63081 5.76947
-1.5976 -1.28769 6.62454
-0.613155 -1.53463 5.91139
0.515796 -0.716813 6.01346
-0.924996 -0.86163 5.77942
1.84696 -1.0315 5.96508
-0.655624 -0.999525 5.37436
0.336442 -1.08366 5.65137
-0.314399 -0.777805 5.36006
1.17992 -0.650776 5.74571
1.40441 -1.00146 5.74738
-0.306187 -0.3159 5.62984
0.0809801 -0.729659 5.4618
1.95579 -1.43105 6.42498
1.15101 -1.5372 6.02841
