ply
    format ascii 1.0           
    element vertex 28
    property double x           
    property double y           
    property double z           
    end_header
0.149039 -0.912237 7.00903
1.13151 -0.604231 7.09739
1.77719 -1.28233 6.92433
2.39393 -0.945576 7.52559
-0.633427 -0.303527 7.42207
-0.917527 -0.0986721 7.60145
-0.148381 -0.561152 7.39882
0.497573 -1.50436 6.88235
2.63428 -1.34402 7.54668
1.63435 -0.596866 7.33072
-0.503595 -0.878798 7.37077
0.924255 -0.805481 6.7001
-0.35764 -0.151958 7.83549
-0.801087 -1.76975 8.18137
2.22874 -1.59638 7.25269
1.51087 -1.06604 6.68147
2.78122 -1.69591 7.72017
-0.00533044 -0.34473 8.1396
-0.840684 -0.703495 7.58797
0.687001 -1.04808 6.64035
1.13785 -1.40694 6.74758
0.190713 -1.76697 7.02156
0.44038 -1.97553 7.13567
2.12417 -1.15409 6.93146
0.811235 -1.60231 6.5952
1.24576 -1.83802 7.01688
0.430756 -0.692196 6.81164
0.656458 -0.519312 8.14707
