ply
    format ascii 1.0           
    element vertex 19
    property double x           
    property double y           
    property double z           
    end_header
-0.0833975 -0.179184 2.13904
-0.383813 -0.343256 2.25813
0.166063 -0.400853 2.15033
0.411546 -0.134341 2.12603
-0.524206 -0.284464 2.28978
0.518887 -0.154538 2.17465
0.381317 -0.369795 2.15359
-0.342826 -0.187562 2.15425
0.472313 -0.26567 2.15093
-0.270465 -0.249363 2.10458
0.0366368 -0.276441 2.11672
-0.156101 -0.18147 2.08056
0.291306 -0.147363 2.1176
-0.518899 -0.131916 2.26569
0.354172 -0.257137 2.11773
-0.265046 -0.0732435 2.11261
-0.145271 -0.0277366 2.09126
0.567512 -0.274236 2.21956
-0.0338048 -0.16492 2.09029
