ply
    format ascii 1.0           
    element vertex 25
    property double x           
    property double y           
    property double z           
    end_header
-0.041493 -0.556839 3.87752
-0.711128 -0.505768 4.20924
0.415803 -0.775354 4.07794
0.884519 -0.293453 4.27716
-0.159141 -0.845422 4.0172
-0.365007 -0.786332 4.09086
1.09828 -0.351169 4.3641
0.827573 -0.736812 4.15276
0.266152 -0.336044 4.20702
1.0001 -0.541605 4.20759
0.564713 -0.598258 4.02766
-0.379561 -0.482197 3.83635
0.187021 -0.829816 4.05294
0.167399 -0.543518 4.05498
-0.183658 -0.353672 3.8773
0.647618 -0.323093 4.16534
-0.879885 -0.369489 4.37622
-0.673939 -0.255777 4.09435
0.345064 -0.557828 4.11397
0.692339 -0.192477 4.34401
-0.171504 -0.0907518 4.00769
1.03516 -0.779563 4.37553
-0.00547813 -0.722015 4.01931
-0.207291 -0.584781 4.01277
0.480203 -0.972856 4.36198
