ply
    format ascii 1.0           
    element vertex 20
    property double x           
    property double y           
    property double z           
    end_header
-0.381373 0.853423 1.71735
-0.541913 0.348984 1.91552
-0.350775 0.922284 1.74702
-0.345264 0.757921 1.73942
-0.62106 0.444912 1.8499
-0.428635 0.746075 1.68935
-0.262653 0.688428 1.86759
-0.549313 0.580575 1.79615
-0.31742 0.838888 1.73781
-0.46499 0.588767 1.75291
-0.500196 0.768645 1.71635
-0.530037 0.701369 1.76591
-0.490033 0.912578 1.78073
-0.21377 0.527773 1.85487
-0.267902 0.537882 1.74814
-0.309095 0.325742 2.07354
-0.214648 0.350145 2.05146
-0.543266 0.490855 1.80594
-0.617388 0.38013 1.90311
-0.136908 0.485797 1.88645
