ply
    format ascii 1.0           
    element vertex 25
    property double x           
    property double y           
    property double z           
    end_header
0.192518 -0.232637 2.98798
0.876259 -0.473252 2.72923
1.37353 -0.346002 3.20632
0.967179 -0.196466 2.92278
-0.17611 -0.0782046 2.9598
-0.30707 0.000260078 3.11761
-0.0120916 -0.840217 3.00563
0.0404645 -0.197511 3.01852
0.808403 -0.183326 2.89719
-0.117609 -0.341893 2.99674
0.518647 -0.284475 2.71087
-0.050283 0.0173745 3.0643
0.601691 -0.365008 2.61079
0.909936 -0.289764 2.79909
0.76774 -0.388792 2.67084
1.29724 -0.637324 3.0367
0.0927007 -0.0787436 3.14772
-0.258907 -0.262184 3.03855
0.602328 -0.531276 2.67254
0.19455 -0.71191 2.82559
0.32206 -0.842085 2.98202
1.02281 -0.409768 2.73514
0.469842 -0.636861 2.65123
0.659019 -0.734838 2.81674
0.296691 -0.234565 2.72646
