ply
    format ascii 1.0           
    element vertex 15
    property double x           
    property double y           
    property double z           
    end_header
-0.422365 0.897436 1.70423
-0.377407 0.97071 1.73199
-0.484248 0.784322 1.69061
-0.268715 0.698131 1.83922
-0.615418 0.586069 1.80095
-0.490193 0.922653 1.75024
-0.350038 0.870277 1.7076
-0.43033 0.719018 1.67808
-0.565883 0.802378 1.7238
-0.234916 0.501523 1.79533
-0.247279 0.420043 1.87025
-0.312674 0.275054 2.03017
-0.211552 0.299818 1.98191
-0.604764 0.483598 1.79969
-0.396081 0.481803 1.73133
