ply
    format ascii 1.0           
    element vertex 18
    property double x           
    property double y           
    property double z           
    end_header
-0.38093 -0.585265 2.46189
-0.429342 -0.470877 2.37763
0.418431 -0.346352 2.32201
-0.127916 -0.65286 2.31959
-0.240414 -0.625409 2.34108
0.537576 -0.357934 2.40196
-0.330413 -0.435933 2.2604
0.255176 -0.524409 2.24715
-0.249074 -0.487343 2.16546
0.0450137 -0.499841 2.2541
0.196839 -0.390731 2.33588
-0.145951 -0.422878 2.14214
0.290454 -0.367099 2.26366
-0.530334 -0.381102 2.48789
-0.417347 -0.340014 2.32375
0.139327 -0.492842 2.30072
0.358131 -0.463214 2.27337
-0.0308682 -0.406172 2.17443
