ply
    format ascii 1.0           
    element vertex 22
    property double x           
    property double y           
    property double z           
    end_header
0.0525491 -0.221486 1.68425
-0.208434 -0.398339 1.81379
0.00527576 -0.389617 1.67814
-0.246739 -0.327992 1.76288
0.176593 -0.434628 1.75858
0.341649 -0.244683 1.71552
-0.0369171 -0.470444 1.76124
-0.116064 -0.443246 1.76659
0.329157 -0.403598 1.77134
0.112389 -0.268171 1.72956
-0.179201 -0.316499 1.70925
0.387893 -0.331978 1.7448
0.232002 -0.380991 1.71605
-0.125734 -0.367781 1.67788
0.0922088 -0.450374 1.77436
0.0839085 -0.361031 1.71325
0.189469 -0.274876 1.72491
-0.0518841 -0.319194 1.65348
0.257011 -0.265836 1.7053
0.277303 -0.190795 1.73644
-0.0486986 -0.207124 1.64414
0.466756 -0.309249 1.82971
