ply
    format ascii 1.0           
    element vertex 26
    property double x           
    property double y           
    property double z           
    end_header
0.251592 -0.306737 3.93982
-0.24939 -0.64524 3.95658
1.14263 -0.616927 3.55895
-0.230535 -0.102483 3.88127
-0.406199 0.000112258 4.10906
-0.0143938 -1.09315 3.91081
0.433723 -0.784898 3.59865
1.05375 -0.239185 3.77935
-0.154258 -0.453376 3.97359
0.66747 -0.365837 3.48614
-0.0658186 0.0223644 3.95287
-0.308343 -1.00574 4.53963
1.17474 -0.373693 3.60926
0.982598 -0.497294 3.41562
1.68757 -0.829316 3.95162
0.123059 -0.103121 4.12413
-0.336918 -0.343035 3.97702
1.09502 -0.93363 3.78304
0.529551 -0.505565 3.43472
0.781245 -0.689344 3.4677
0.412598 -1.08186 3.83119
1.30943 -0.524102 3.49624
0.637951 -1.01946 3.63457
0.613371 -0.831817 3.46292
0.875496 -0.974732 3.73579
0.382304 -0.302542 3.51684
