ply
    format ascii 1.0           
    element vertex 12
    property double x           
    property double y           
    property double z           
    end_header
-0.118325 0.0794154 0.59055
-0.0432747 0.399944 0.581728
-0.159684 0.122473 0.541482
-0.0686673 0.30597 0.532756
-0.117998 0.296073 0.612503
0.0546327 0.20459 0.640827
0.0409835 0.159674 0.674574
-0.00721032 0.0787887 0.715051
-0.0107047 0.183416 0.581815
-0.158711 0.0880052 0.564567
0.0981116 0.189182 0.679942
-0.0905705 0.405497 0.568767
