ply
    format ascii 1.0           
    element vertex 20
    property double x           
    property double y           
    property double z           
    end_header
0.0210134 -0.190105 1.31592
-0.019225 -0.339115 1.32991
0.134221 -0.369492 1.39927
0.277201 -0.206252 1.33646
-0.0546009 -0.405969 1.40383
-0.291199 -0.301675 1.45924
-0.124473 -0.381555 1.40922
0.351154 -0.202139 1.37324
0.268823 -0.341014 1.40035
-0.1847 -0.272811 1.35413
0.098549 -0.1626 1.39319
0.317796 -0.282476 1.36504
0.182605 -0.327342 1.35314
-0.138225 -0.319772 1.33261
0.0594598 -0.386719 1.40819
0.143595 -0.232176 1.35302
-0.0718883 -0.279025 1.30398
0.203304 -0.226306 1.33227
-0.237715 -0.205189 1.36451
0.246492 -0.286892 1.353
