ply
    format ascii 1.0           
    element vertex 13
    property double x           
    property double y           
    property double z           
    end_header
0.0349719 -0.217585 1.73377
-0.110294 -0.0701653 1.59592
0.0893084 -0.280728 1.46542
-0.0893889 -0.17564 1.5909
-0.0592739 -0.0426024 1.64104
-0.0985135 -0.406952 1.71897
0.353511 -0.186806 1.59407
0.27682 -0.207928 1.4493
0.505784 -0.332763 1.66188
0.325505 -0.377602 1.66608
0.0823937 -0.387394 1.58131
0.387995 -0.226107 1.49721
0.149896 -0.303996 1.43675
