ply
    format ascii 1.0           
    element vertex 21
    property double x           
    property double y           
    property double z           
    end_header
-0.382972 -0.621059 2.63872
0.00187503 -0.584617 2.27793
-0.441892 -0.487861 2.50865
0.305505 -0.674859 2.53127
0.594919 -0.344358 2.44272
-0.206076 -0.17168 2.45642
0.577931 -0.624147 2.57345
0.191245 -0.385909 2.45858
0.237617 -0.273336 2.6144
0.686327 -0.496542 2.51607
-0.227958 -0.542879 2.29903
0.155278 -0.70768 2.53946
0.137873 -0.541876 2.38315
-0.0935275 -0.463623 2.211
-0.558707 -0.365558 2.61523
-0.426235 -0.340832 2.442
0.528941 -0.502477 2.42718
0.487369 -0.251356 2.52003
-0.0904735 -0.0961438 2.70212
-0.470786 -0.212056 2.58837
0.0475512 -0.43437 2.24772
