ply
    format ascii 1.0           
    element vertex 20
    property double x           
    property double y           
    property double z           
    end_header
-0.560899 -0.714047 3.04837
-0.616934 -0.553014 2.95405
0.163979 -0.756127 2.94942
0.476936 -0.418206 2.9742
-0.233737 -0.806653 2.89139
-0.380895 -0.761245 2.91988
0.638161 -0.444984 3.11918
0.449094 -0.718045 3.02486
-0.485222 -0.507968 2.82797
0.266874 -0.643548 2.87415
-0.380177 -0.581605 2.71219
-0.00621895 -0.602643 2.85591
-0.241708 -0.491447 2.69634
0.313269 -0.443291 2.88492
-0.753255 -0.437315 3.09653
0.117298 -0.607397 2.92805
-0.368159 -0.384036 2.69979
0.719007 -0.595129 3.24632
-0.0962117 -0.474804 2.75278
0.59435 -0.724178 3.20849
