ply
    format ascii 1.0           
    element vertex 13
    property double x           
    property double y           
    property double z           
    end_header
-0.180961 -0.223506 1.26733
0.0124227 -0.23178 1.11803
0.309415 -0.189429 1.19929
-0.126408 -0.0401933 1.17395
0.110014 -0.158131 1.15884
0.205042 -0.127148 1.1816
0.155796 -0.153048 1.09598
0.186303 -0.278536 1.19535
-0.0416339 -0.304834 1.2605
0.241624 -0.159739 1.12244
0.0638708 -0.24626 1.10808
0.131011 -0.29146 1.19636
0.0682513 -0.295926 1.13959
