ply
    format ascii 1.0           
    element vertex 25
    property double x           
    property double y           
    property double z           
    end_header
0.0312098 -0.280425 1.94095
0.430808 -0.220427 2.07451
0.198981 -0.545175 2.06425
0.411763 -0.306311 1.98474
-0.0811825 -0.59255 2.04926
-0.431567 -0.447848 2.16659
-0.182751 -0.559495 2.06645
0.398588 -0.505772 2.07697
0.114944 -0.334593 2.01116
-0.271066 -0.399493 1.98282
0.147342 -0.243735 2.08822
0.469439 -0.417607 2.01826
0.267794 -0.479922 1.98384
-0.200229 -0.463561 1.93172
0.0873623 -0.57064 2.07795
0.213632 -0.345467 2.01324
-0.104019 -0.405563 1.8953
0.300416 -0.334262 1.96776
-0.350629 -0.303755 2.01976
0.363146 -0.421957 1.98971
-0.0929107 -0.111757 2.08457
-0.192366 -0.32985 1.86572
-0.101642 -0.2655 1.89167
-0.374782 -0.201075 2.08566
0.00409919 -0.383087 1.90024
