ply
    format ascii 1.0           
    element vertex 21
    property double x           
    property double y           
    property double z           
    end_header
0.309074 -0.328983 1.92522
0.494213 -0.504725 1.92234
0.543161 -0.312766 2.01485
-0.18321 -0.267923 2.01558
0.152603 -0.590582 1.9072
-0.142154 -0.427846 2.057
-0.221403 -0.642599 2.30441
0.327406 -0.460895 1.83031
-0.122491 -0.630062 2.00977
0.509274 -0.381963 1.93791
0.607998 -0.563247 1.97374
0.426846 -0.460236 1.85967
0.760455 -0.571777 2.15267
-0.0202118 -0.250878 2.09848
0.483119 -0.6567 2.0821
0.330844 -0.557906 1.89101
0.149708 -0.73245 2.09564
0.58778 -0.464023 1.91946
0.249626 -0.633294 1.88009
0.373368 -0.685384 2.03197
0.261091 -0.291475 2.0848
