ply
    format ascii 1.0           
    element vertex 20
    property double x           
    property double y           
    property double z           
    end_header
0.365512 -0.418357 1.83928
-0.280049 -0.424224 1.80305
-0.0570884 -0.392449 1.62397
-0.315902 -0.342296 1.74876
0.122338 -0.45139 1.72672
0.298512 -0.263204 1.718
-0.180904 -0.460097 1.73177
0.281754 -0.426588 1.75294
-0.246147 -0.321936 1.67469
0.177172 -0.39274 1.68228
-0.189199 -0.36306 1.62001
0.0333261 -0.471381 1.73402
0.0258507 -0.373935 1.67817
0.136261 -0.296621 1.71883
-0.112134 -0.318712 1.60056
0.206232 -0.278085 1.68178
-0.385815 -0.270723 1.81449
-0.307022 -0.248272 1.70906
0.43594 -0.349444 1.84894
-0.0271778 -0.3049 1.62494
