ply
    format ascii 1.0           
    element vertex 18
    property double x           
    property double y           
    property double z           
    end_header
0.0410157 -0.226224 1.72067
-0.247164 -0.429496 1.85973
-0.285315 -0.341289 1.80941
0.359006 -0.266497 1.78858
-0.0620097 -0.492346 1.76478
0.451866 -0.272 1.83794
-0.211795 -0.320627 1.72848
0.410821 -0.35636 1.80161
0.228805 -0.398067 1.72511
0.0776845 -0.481627 1.78347
0.188799 -0.295574 1.78504
-0.0745625 -0.31816 1.64666
0.259849 -0.282116 1.72612
-0.357727 -0.266217 1.88802
-0.275961 -0.241928 1.76843
-0.0703085 -0.207005 1.67997
0.508179 -0.35598 1.92519
0.0138947 -0.305232 1.66721
