ply
    format ascii 1.0           
    element vertex 22
    property double x           
    property double y           
    property double z           
    end_header
1.12429 -0.367622 5.75949
1.68151 -0.92289 5.57919
2.85308 -0.719128 7.01047
2.01557 -0.565444 5.56435
-0.467004 -0.133649 6.56438
-0.110418 -1.8908 7.02456
2.46233 -0.998293 6.17546
1.5679 -0.356435 6.0113
-0.603773 -1.58645 7.4461
-0.203026 -1.17956 4.48271
1.71588 -0.560926 5.58643
1.4212 -0.742781 5.25222
2.66618 -1.33428 6.54784
0.108985 -0.148171 6.71396
1.76636 -1.55593 6.51881
0.871921 -0.903773 6.37224
0.343238 -1.54926 6.37571
0.617079 -1.79761 6.58956
1.95161 -0.798786 5.49552
0.895279 -1.28037 5.536
1.23384 -1.42233 5.65944
0.995102 -0.266391 6.22407
