ply
    format ascii 1.0           
    element vertex 14
    property double x           
    property double y           
    property double z           
    end_header
-0.105604 -0.117856 1.48117
0.0821642 -0.308081 1.36954
-0.0845452 -0.212881 1.48051
-0.059668 -0.0852646 1.52944
0.203184 -0.247103 1.42574
-0.0890686 -0.420902 1.60501
0.319096 -0.216446 1.48416
0.252399 -0.239079 1.35339
0.463422 -0.34246 1.55522
0.298129 -0.389841 1.55235
0.0770578 -0.403744 1.47689
0.354458 -0.251816 1.39932
0.138619 -0.327278 1.3467
0.219372 -0.385095 1.48855
