ply
    format ascii 1.0           
    element vertex 17
    property double x           
    property double y           
    property double z           
    end_header
-0.201056 -0.410739 1.72328
0.03025 -0.375014 1.50931
-0.239758 -0.321814 1.66695
0.215264 -0.434633 1.62598
-0.0169359 -0.46959 1.62013
-0.101804 -0.442217 1.64014
0.490721 -0.246156 1.68489
0.150376 -0.259915 1.63974
-0.168636 -0.299734 1.58204
0.112282 -0.350599 1.57434
-0.314128 -0.24919 1.7522
-0.232598 -0.223715 1.63096
0.189101 -0.351657 1.61746
0.351002 -0.330762 1.59787
0.549822 -0.329856 1.77437
0.0553358 -0.283067 1.5232
0.47211 -0.402676 1.74699
