ply
    format ascii 1.0           
    element vertex 21
    property double x           
    property double y           
    property double z           
    end_header
0.0495752 -0.101815 1.66482
-0.236749 -0.305499 1.81029
-0.00944623 -0.274491 1.61774
-0.27708 -0.213169 1.76176
0.36807 -0.149453 1.71175
-0.0573738 -0.372989 1.71128
-0.139985 -0.342663 1.73068
0.342047 -0.324717 1.72594
0.117328 -0.163594 1.72541
0.413135 -0.242286 1.72439
0.236194 -0.281524 1.67041
-0.148656 -0.239849 1.61792
0.0825 -0.366306 1.71317
0.0754634 -0.251865 1.67466
-0.0674295 -0.192853 1.60408
0.268899 -0.161462 1.67807
-0.344909 -0.141583 1.83025
-0.265558 -0.117878 1.71969
0.152617 -0.256805 1.70891
0.50727 -0.247991 1.83506
0.429084 -0.318329 1.8145
