ply
    format ascii 1.0           
    element vertex 25
    property double x           
    property double y           
    property double z           
    end_header
0.562811 -0.766129 4.22419
-0.572036 -1.02665 4.32318
-0.0171899 -0.928622 3.80675
0.934179 -0.483346 4.39186
-0.662674 -0.814407 4.15199
0.441617 -1.10793 4.18148
0.869466 -0.614183 4.08267
-0.315331 -0.345117 4.12898
1.10207 -0.633311 4.28633
0.273843 -0.666662 4.09974
-0.485776 -0.760263 3.95059
1.00282 -0.847725 4.19057
-0.34639 -0.861748 3.81233
0.213052 -1.15934 4.20084
0.189238 -0.886577 3.95957
0.46749 -0.695842 4.06961
-0.153059 -0.741364 3.72096
0.0547858 -0.331927 4.42989
0.641805 -0.655816 4.00626
-0.64546 -0.588785 4.09256
0.767965 -0.837776 4.04906
-0.136943 -0.256204 4.37053
-0.142993 -0.47675 3.78366
1.24136 -0.848236 4.51055
0.0565769 -0.705309 3.77537
