ply
    format ascii 1.0           
    element vertex 17
    property double x           
    property double y           
    property double z           
    end_header
-0.0516386 -0.474274 1.96951
0.391267 -0.301756 2.1058
-0.106986 -0.581215 2.12697
-0.209949 -0.551714 2.13436
0.510019 -0.305153 2.21085
-0.289508 -0.385965 2.0414
0.455958 -0.414159 2.15112
0.0483651 -0.445026 2.05242
-0.122049 -0.385878 1.92996
0.273229 -0.325632 2.05688
-0.299515 -0.134986 2.24421
-0.470581 -0.315854 2.24058
-0.369099 -0.292919 2.08936
0.137572 -0.439366 2.1062
0.307057 -0.233467 2.17089
-0.2119 -0.312395 1.92811
0.574576 -0.398292 2.31403
