ply
    format ascii 1.0           
    element vertex 27
    property double x           
    property double y           
    property double z           
    end_header
-0.0136397 -0.67438 2.73096
0.636269 -0.333353 2.99037
0.304999 -0.773614 2.91382
0.602371 -0.436111 2.84299
-0.219296 -0.247786 2.8917
-0.0857122 -0.829382 2.88113
-0.225621 -0.784484 2.91377
0.753865 -0.439897 2.9402
0.190801 -0.473169 2.87146
-0.342752 -0.548364 2.81816
0.689597 -0.592291 2.90129
-0.247244 -0.627674 2.74213
0.14818 -0.808359 2.92887
0.132213 -0.634871 2.80609
0.325243 -0.494551 2.85133
-0.11175 -0.546218 2.68689
0.0400674 -0.22924 3.02919
0.447143 -0.469151 2.81206
-0.582372 -0.449426 3.04276
-0.451273 -0.420756 2.89295
0.533046 -0.593821 2.83549
-0.0915302 -0.179045 3.00157
-0.233048 -0.435219 2.65992
-0.10411 -0.353302 2.71238
0.837489 -0.575002 3.05365
0.0381816 -0.51695 2.70946
0.723496 -0.700571 3.06823
