ply
    format ascii 1.0           
    element vertex 24
    property double x           
    property double y           
    property double z           
    end_header
-0.124761 -0.628866 2.97579
1.22758 -0.343286 3.2286
0.231464 -0.210991 2.86792
0.946349 -0.296682 2.90055
-0.39565 -0.0765931 2.99123
-0.163682 -0.193793 3.01157
0.337808 -0.296243 2.73264
-0.452498 -0.778381 3.45135
0.42441 -0.380006 2.61836
0.919584 -0.621538 2.86931
0.60488 -0.40606 2.69585
-0.114968 -0.0666457 3.09263
0.679656 -0.742547 2.93327
0.220327 -0.40475 2.66181
0.439838 -0.572258 2.73743
0.0059655 -0.754888 2.8834
0.133494 -0.869367 2.99702
-0.525126 -0.172475 3.16295
0.874809 -0.428865 2.77035
0.307845 -0.806036 2.79004
0.285824 -0.660218 2.64999
0.485942 -0.749745 2.81112
0.105815 -0.249125 2.76405
0.347387 -0.15503 3.07793
