ply
    format ascii 1.0           
    element vertex 19
    property double x           
    property double y           
    property double z           
    end_header
0.0630612 -0.228193 2.25851
-0.357944 -0.533201 2.46008
-0.017189 -0.483739 2.17047
0.524886 -0.282895 2.29274
-0.0871654 -0.627802 2.31444
-0.519303 -0.467461 2.53066
-0.208649 -0.58648 2.34592
0.161618 -0.312537 2.31143
-0.307825 -0.370026 2.27767
0.601837 -0.42424 2.32698
-0.224636 -0.438719 2.18435
0.106577 -0.451403 2.24256
0.281472 -0.333662 2.31451
0.38449 -0.307938 2.25219
-0.405921 -0.256167 2.34216
0.218198 -0.448767 2.30345
0.458937 -0.421838 2.25738
0.428526 -0.20157 2.37514
-0.218432 -0.267279 2.16863
