ply
    format ascii 1.0           
    element vertex 23
    property double x           
    property double y           
    property double z           
    end_header
0.495593 -0.197546 2.73782
0.741489 -0.446996 2.6289
1.11856 -0.315111 2.90806
0.936993 -0.297182 2.74366
-0.20392 -0.0795802 2.80516
-0.312635 -0.0059646 2.87409
-0.0140368 -0.188527 2.82657
0.247579 -0.555217 2.62783
1.05253 -0.463666 2.80235
0.684035 -0.188686 2.79815
-0.0948271 -0.00232532 2.86766
0.511494 -0.365551 2.58323
-0.158099 -0.786632 3.02797
0.0310559 -0.0862034 2.91356
0.699034 -0.660782 2.76599
0.328677 -0.383159 2.60257
0.122334 -0.642553 2.64449
0.225643 -0.729011 2.68808
0.883517 -0.401238 2.6555
0.381913 -0.704365 2.5984
0.380098 -0.596505 2.56286
0.532878 -0.662234 2.63526
0.227675 -0.238049 2.6704
