ply
    format ascii 1.0           
    element vertex 26
    property double x           
    property double y           
    property double z           
    end_header
-0.174176 -0.880135 3.76466
0.837321 -0.923767 3.50803
-0.375113 -0.466108 3.62204
-0.526348 -0.36006 3.75864
0.220105 -1.07322 3.51155
1.23275 -0.897726 3.81634
0.746547 -0.576121 3.66217
0.429298 -0.728218 3.43848
-0.245761 -0.354471 3.69857
-0.44712 -1.13714 4.07235
0.537331 -0.831361 3.36755
-0.279925 -1.10498 3.58689
0.872288 -0.709663 3.5732
0.649269 -0.67356 3.50421
0.71624 -0.841174 3.4205
1.2857 -1.04805 3.87105
-0.090414 -0.442631 3.77309
-0.462691 -0.661184 3.70478
0.313196 -0.858276 3.39946
0.536977 -1.01327 3.48506
0.191315 -1.3025 3.71122
-0.534183 -0.54723 3.84348
0.387161 -1.13379 3.4415
0.173663 -0.673092 3.43421
0.115065 -0.897942 3.40996
0.409521 -0.523745 3.73306
