ply
    format ascii 1.0           
    element vertex 16
    property double x           
    property double y           
    property double z           
    end_header
0.277534 -0.316198 1.30909
-0.163004 -0.152662 1.35591
-0.222321 -0.119449 1.41759
-0.092757 -0.477739 1.41751
-0.0752236 -0.206607 1.39854
-0.138825 -0.259862 1.3818
-0.116957 -0.115125 1.3971
0.173547 -0.286827 1.28279
0.349169 -0.363004 1.34247
0.232395 -0.282336 1.26818
0.448172 -0.380359 1.4504
-0.0609707 -0.150648 1.44144
0.166816 -0.346087 1.2862
-0.00307137 -0.431045 1.36302
0.338958 -0.29051 1.30634
0.113773 -0.391647 1.27927
