ply
    format ascii 1.0           
    element vertex 21
    property double x           
    property double y           
    property double z           
    end_header
-0.173895 -0.416151 3.00224
-0.498275 -0.524335 3.24212
-0.04059 -0.403682 2.90902
0.325415 -0.585018 3.0574
0.711783 -0.203973 3.14602
-0.711187 -0.447262 3.29725
-0.304447 -0.575509 3.09125
-0.426455 -0.265502 3.0383
0.79908 -0.397207 3.14553
0.450883 -0.447266 3.01682
-0.310366 -0.340114 2.88621
0.139555 -0.621967 3.06058
0.133885 -0.392165 3.02976
0.371954 -0.254345 3.15519
-0.148327 -0.23733 2.8984
0.517968 -0.21364 3.06627
0.273527 -0.4015 3.07755
0.612471 -0.369282 3.05706
0.981609 -0.44467 3.36465
0.0318795 -0.224691 2.95405
0.826522 -0.579957 3.29602
