ply
    format ascii 1.0           
    element vertex 18
    property double x           
    property double y           
    property double z           
    end_header
-0.103726 -0.221918 2.62383
-0.451925 -0.42859 2.79774
-0.514829 -0.285965 2.73489
0.188817 -0.472753 2.63108
0.442378 -0.43996 2.66843
-0.401491 -0.236234 2.63542
0.280664 -0.362863 2.59141
0.0356453 -0.330465 2.59393
0.217189 -0.216733 2.68904
-0.186396 -0.21864 2.51759
0.330572 -0.180121 2.62518
-0.618912 -0.18813 2.84447
-0.495096 -0.132453 2.67341
0.146889 -0.333283 2.66453
-0.180812 -0.0483351 2.58846
0.678947 -0.341143 2.83453
-0.0482756 -0.200848 2.552
0.567218 -0.449068 2.79497
