ply
    format ascii 1.0           
    element vertex 16
    property double x           
    property double y           
    property double z           
    end_header
-0.290496 0.342759 1.3492
-0.439658 0.238089 1.40277
-0.272622 0.700609 1.25142
-0.274554 0.565662 1.2387
-0.504375 0.321842 1.36054
-0.447672 0.42704 1.30992
-0.352945 0.665574 1.25974
-0.253468 0.630025 1.23642
-0.310936 0.520113 1.2121
-0.408777 0.581335 1.24467
-0.385496 0.704597 1.30128
-0.170532 0.363583 1.30367
-0.182097 0.310532 1.37642
-0.231605 0.205724 1.50296
-0.442155 0.35325 1.31586
-0.289514 0.351724 1.26567
