ply
    format ascii 1.0           
    element vertex 17
    property double x           
    property double y           
    property double z           
    end_header
0.411273 -0.399623 1.57394
-0.192127 -0.164965 1.79359
-0.0304379 -0.585227 1.75127
0.139911 -0.459097 1.55771
-0.0881242 -0.332277 1.70892
0.277362 -0.356503 1.49125
-0.0749617 -0.490935 1.64859
0.432 -0.305672 1.61424
0.498988 -0.450469 1.61167
0.354981 -0.36052 1.51666
0.633659 -0.466873 1.79096
0.0132503 -0.194095 1.78309
0.279054 -0.432643 1.54129
0.0785449 -0.53081 1.66128
0.137757 -0.577762 1.72116
0.482554 -0.364477 1.56336
0.126187 -0.292965 1.56399
