ply
    format ascii 1.0           
    element vertex 26
    property double x           
    property double y           
    property double z           
    end_header
0.901268 -1.07979 13.8751
0.760601 -1.51767 12.7779
3.96678 -2.13984 12.3347
6.2661 -1.57635 14.6647
4.76677 -3.39616 13.7759
4.29309 -0.872472 12.9736
-0.78996 -0.350348 13.2508
-1.37967 0.00287576 14.0779
0.189613 -0.888849 13.5958
1.53082 -2.77139 12.7066
5.67609 -2.24042 13.5808
3.76383 -0.854793 13.4796
2.28887 -1.25571 11.9711
-1.06389 -3.47401 15.6813
2.64251 -1.60566 11.488
-0.572154 -4.48406 16.3961
4.05127 -1.28853 12.4498
3.43303 -1.73615 11.911
-1.20218 -1.21405 14.0424
1.84419 -1.76267 11.9774
2.65434 -2.34232 11.7828
0.881918 -3.27085 12.9818
1.44852 -3.78362 13.3984
-1.40615 -0.825795 14.4813
1.30758 -1.04094 12.1021
1.08531 -1.94285 12.1421
