ply
    format ascii 1.0           
    element vertex 17
    property double x           
    property double y           
    property double z           
    end_header
-0.165673 -0.251031 1.04128
-0.00478796 -0.248338 0.941065
-0.193803 -0.196947 1.00097
0.124593 -0.278374 1.00869
-0.0944545 -0.285833 1.00842
0.312356 -0.135588 1.00693
0.239985 -0.25607 1.02056
0.287694 -0.202732 1.00129
-0.104602 -0.225179 0.934205
0.0600411 -0.293015 1.01526
0.0539419 -0.226182 0.970202
0.134764 -0.162201 0.984834
-0.0472621 -0.194815 0.915121
0.221977 -0.206792 0.974531
0.199428 -0.0954522 0.985709
-0.045584 -0.110618 0.905483
0.0147679 -0.181421 0.926611
