ply
    format ascii 1.0           
    element vertex 21
    property double x           
    property double y           
    property double z           
    end_header
-0.215135 -0.406535 2.97524
-0.0884153 -0.396698 2.8895
-0.587848 -0.325248 3.1041
0.252263 -0.566025 3.06019
0.622854 -0.208997 3.19588
-0.184313 -0.603709 3.01556
-0.338347 -0.552253 3.0548
0.785324 -0.24378 3.2735
0.568558 -0.537582 3.13826
-0.451644 -0.264838 2.99346
0.705165 -0.390208 3.17599
0.370497 -0.43552 3.01162
-0.340628 -0.336442 2.84727
0.0764539 -0.59988 3.05561
0.0699377 -0.383088 3.0091
-0.191594 -0.242315 2.87657
-0.563225 -0.131808 3.06217
0.204785 -0.396899 3.09826
0.875215 -0.430253 3.39753
-0.0238176 -0.228327 2.92855
0.727419 -0.559601 3.32279
