ply
    format ascii 1.0           
    element vertex 18
    property double x           
    property double y           
    property double z           
    end_header
-0.368557 0.790785 1.62101
-0.523907 0.283492 1.83329
-0.608315 0.38434 1.77972
-0.422056 0.680318 1.59154
-0.239004 0.623176 1.77254
-0.303499 0.776724 1.64059
-0.368477 0.638444 1.6028
-0.456094 0.522431 1.65618
-0.515569 0.638801 1.67953
-0.469937 0.860971 1.70579
-0.195575 0.451742 1.73503
-0.388036 0.869466 1.63682
-0.261907 0.463676 1.62774
-0.273959 0.250768 1.97911
-0.528912 0.424141 1.71021
-0.600535 0.319298 1.83206
-0.117053 0.410316 1.76906
-0.467962 0.597208 1.62372
