ply
    format ascii 1.0           
    element vertex 20
    property double x           
    property double y           
    property double z           
    end_header
-0.256539 -0.417253 1.83185
-0.0243458 -0.387405 1.62197
-0.293892 -0.333401 1.77076
0.342231 -0.252233 1.71959
-0.0708499 -0.479344 1.72967
-0.15292 -0.45574 1.74613
0.43354 -0.251791 1.7898
-0.220005 -0.315712 1.68127
0.391262 -0.341639 1.74155
0.217338 -0.391647 1.66882
-0.160524 -0.361024 1.61398
0.0613509 -0.366545 1.68228
0.175935 -0.283795 1.73019
-0.0818253 -0.31407 1.59471
0.246663 -0.269289 1.67961
-0.367051 -0.26097 1.84131
-0.285723 -0.237653 1.72483
0.131207 -0.360994 1.71233
0.295917 -0.343705 1.6877
0.491672 -0.334109 1.87229
