ply
    format ascii 1.0           
    element vertex 16
    property double x           
    property double y           
    property double z           
    end_header
-2.41662 4.55179 8.84974
-1.7679 6.10913 8.93634
-3.25096 2.61881 11.1417
-2.79318 3.1177 11.2488
-1.51552 5.40158 9.1813
-2.34952 6.46563 9.37912
-1.65447 4.79711 8.71458
-2.36991 4.04783 9.19206
-2.66684 5.46355 8.93587
-1.98341 6.81033 9.08694
-1.69513 5.24072 10.0486
-0.91033 3.56372 9.18436
-1.73346 2.81123 13.3805
-0.927012 2.95574 13.1038
-2.96568 3.38692 9.63969
-1.48178 3.33107 9.35102
