ply
    format ascii 1.0           
    element vertex 20
    property double x           
    property double y           
    property double z           
    end_header
0.0701812 -0.138176 2.22391
-0.297176 -0.400069 2.36914
-0.00780425 -0.359101 2.15123
0.473488 -0.196868 2.24387
-0.068139 -0.48607 2.25332
-0.173641 -0.447692 2.27892
0.5952 -0.211612 2.32438
0.444768 -0.424575 2.27495
-0.257291 -0.256221 2.22725
0.537941 -0.320182 2.28437
0.309958 -0.368892 2.213
-0.186862 -0.316705 2.16481
0.110655 -0.477169 2.25523
0.102883 -0.331886 2.22535
0.25939 -0.228713 2.26244
-0.0821367 -0.252612 2.13298
-0.433058 -0.190048 2.38763
-0.335156 -0.157673 2.26531
-0.0714278 -0.104513 2.16413
0.645495 -0.32399 2.38439
