ply
    format ascii 1.0           
    element vertex 18
    property double x           
    property double y           
    property double z           
    end_header
0.668957 -0.187949 3.67879
1.07914 -0.584734 3.57163
-0.194094 -1.20102 4.16046
0.291121 -0.743733 3.53264
1.70181 -0.668722 4.18781
-0.365068 -0.434946 4.13596
-0.296984 0.0569495 4.54195
0.678439 -0.421616 3.3494
-0.282855 -0.901879 3.32721
0.863089 -0.269615 3.6615
0.902298 -0.447913 3.39771
1.77915 -0.885081 4.23943
-0.0561239 -0.0629557 4.5513
1.10894 -1.0163 4.09232
0.680371 -0.66289 3.40943
0.113883 -0.98166 3.81631
0.294265 -1.15246 3.99603
0.838717 -1.04715 3.98851
