ply
    format ascii 1.0           
    element vertex 20
    property double x           
    property double y           
    property double z           
    end_header
-0.322206 -0.435964 1.8522
-0.0896068 -0.40382 1.68672
-0.359814 -0.351095 1.79917
0.094596 -0.466386 1.79389
0.278337 -0.271711 1.7986
-0.136193 -0.501152 1.7734
-0.218675 -0.473894 1.78747
0.367338 -0.274404 1.84839
0.260091 -0.440087 1.82197
-0.286609 -0.330129 1.73097
0.152304 -0.403813 1.74793
-0.227651 -0.372582 1.6781
-0.0058488 -0.384055 1.73999
-0.148019 -0.326953 1.66358
-0.43042 -0.277203 1.85994
-0.349277 -0.252807 1.75799
0.0667231 -0.382242 1.78003
0.416636 -0.360271 1.9206
-0.0599255 -0.31178 1.68643
0.34444 -0.43215 1.90996
