ply
    format ascii 1.0           
    element vertex 23
    property double x           
    property double y           
    property double z           
    end_header
0.146582 -0.178981 3.95864
0.00481404 -0.560426 3.71649
-0.663064 -0.49466 4.11331
0.460049 -0.778253 3.91736
0.934386 -0.301495 4.09893
-0.113329 -0.842571 3.90157
-0.316557 -0.783458 3.94857
1.1561 -0.350944 4.23474
-0.475985 -0.404457 3.87847
0.608402 -0.604655 3.85402
-0.330376 -0.482719 3.69066
0.232455 -0.829076 3.931
0.216054 -0.546973 3.89083
0.51585 -0.381224 4.10354
-0.135283 -0.359592 3.70819
0.69822 -0.32797 4.00403
-0.625533 -0.246601 3.98347
0.39327 -0.558659 3.97302
0.805269 -0.509982 3.92036
0.749544 -0.187692 4.22509
-0.12171 -0.098125 3.83641
1.2711 -0.59578 4.35233
0.0430604 -0.718612 3.91244
