ply
    format ascii 1.0           
    element vertex 26
    property double x           
    property double y           
    property double z           
    end_header
-1.5415 -2.87596 16.6615
0.107051 -0.731023 6.62213
1.05977 -0.50888 7.0202
1.56758 -1.06028 6.47095
-0.647161 -0.207438 7.52659
-0.955967 -0.0142487 7.99094
-0.343686 -2.02913 7.90999
-0.165345 -0.50201 7.75253
0.426207 -1.30893 6.62716
2.82869 -1.43525 8.4463
1.69667 -0.602078 7.93599
-0.531974 -0.810648 7.66713
-0.378665 -0.0336764 7.91565
0.967653 -0.796017 5.98878
1.70255 -0.717566 6.81874
1.27844 -0.606986 6.63888
1.31473 -0.85823 6.15975
3.29011 -2.04805 9.51929
-0.906035 -0.685628 8.33118
0.58331 -0.831024 6.09409
0.994849 -1.18851 6.35032
0.147776 -1.60686 6.97132
0.431972 -2.06785 7.86287
0.68444 -1.32003 6.06723
1.16137 -1.69101 7.00505
0.780372 -0.635238 10.1635
