ply
    format ascii 1.0           
    element vertex 24
    property double x           
    property double y           
    property double z           
    end_header
-0.13196 -0.581468 3.88528
-0.841582 -0.465581 4.42282
0.846251 -0.305165 4.37464
-0.264573 -0.859484 4.26565
1.14322 -0.348023 4.76047
-0.633331 -0.397273 4.12956
0.99012 -0.563932 4.49434
-0.472858 -0.504597 3.86989
0.103375 -0.849897 4.31033
0.0871902 -0.55687 4.15693
-0.269697 -0.378551 3.82247
0.581679 -0.326702 4.23546
-0.665556 0.100859 4.91891
-1.05719 -0.286584 4.78523
-0.80517 -0.203032 4.33505
0.279857 -0.574077 4.30026
0.70532 -0.530773 4.2037
0.686418 -0.154677 4.68074
-0.456882 -0.205519 3.91247
1.28529 -0.60205 4.99827
-0.0500195 -0.355899 3.96829
1.07245 -0.799561 4.90397
0.56715 -0.849591 4.53509
-0.312581 -0.593516 4.08739
