ply
    format ascii 1.0           
    element vertex 15
    property double x           
    property double y           
    property double z           
    end_header
-4.6336 4.0776 20.3691
-1.83081 7.43762 11.2933
-6.28025 6.3394 22.9096
-2.77842 8.00822 12.9026
-3.80973 9.32456 17.0894
-4.05278 7.86835 16.4621
-2.9804 6.98202 10.8251
-0.772554 6.12262 16.7364
-1.66189 1.85509 12.6242
-0.879408 1.94618 11.7877
-4.9563 7.08897 22.2226
-1.76394 5.98912 18.0673
0.00107875 3.4829 12.0392
-3.67051 9.06046 19.5882
-2.09989 6.00773 8.45622
