ply
    format ascii 1.0           
    element vertex 19
    property double x           
    property double y           
    property double z           
    end_header
-0.621157 0.802828 3.03299
-0.744067 0.925594 2.91108
-0.474678 1.47456 2.74614
-0.656384 1.16444 2.86167
-0.554673 1.63838 2.78607
-0.344632 1.60688 2.79849
-0.509081 1.20722 2.82199
-0.606535 1.47186 2.74737
-0.647504 1.35837 2.81494
-0.136273 1.13433 2.99064
-0.189124 1.03291 3.11482
-0.504665 1.73755 2.76944
-0.183933 1.16067 2.84308
-0.318568 0.804824 3.28311
-0.183215 0.871147 3.29185
-0.304423 1.08856 2.88858
-0.748064 0.832716 3.0061
-0.530891 1.32032 2.77452
-0.570124 1.76305 2.80794
