ply
    format ascii 1.0           
    element vertex 15
    property double x           
    property double y           
    property double z           
    end_header
0.33264 -0.246174 1.47869
0.120029 -0.127883 1.55461
-0.0873074 -0.419762 1.60522
0.0721796 -0.303032 1.46767
0.20573 -0.198427 1.41866
-0.121763 -0.369942 1.45383
0.144727 -0.327443 1.4514
0.411775 -0.300182 1.50459
0.28024 -0.207929 1.43164
0.520861 -0.323224 1.60713
-0.0424615 -0.0612496 1.57618
0.205259 -0.28027 1.45243
0.0587756 -0.135348 1.46117
-0.23871 -0.114459 1.8226
0.399436 -0.216896 1.46223
