ply
    format ascii 1.0           
    element vertex 17
    property double x           
    property double y           
    property double z           
    end_header
-1.75898 6.24819 11.4219
-2.62851 2.69246 12.8589
-1.71302 6.96498 11.9724
-3.07852 3.09766 11.8351
-1.80923 4.98257 10.4138
-2.32104 6.51347 11.8135
-1.3101 6.02711 11.3588
-2.3382 5.00383 10.4663
-2.87247 7.31359 12.8289
-0.39955 3.8807 12.1176
-0.640945 3.41401 10.2305
-1.2332 2.95678 15.0662
-0.49085 2.91038 13.9303
-1.10991 3.25251 10.604
-3.00836 2.62688 11.9778
0.0683651 3.50973 11.9313
-2.11598 4.46832 10.738
