ply
    format ascii 1.0           
    element vertex 21
    property double x           
    property double y           
    property double z           
    end_header
-0.0544444 -0.569141 2.34984
-0.444726 -0.478812 2.53408
0.462941 -0.350907 2.45286
-0.236913 -0.200825 2.4847
-0.119256 -0.692412 2.53048
-0.23895 -0.65224 2.51958
0.597274 -0.350132 2.55457
-0.333801 -0.458784 2.41182
0.541963 -0.483448 2.51764
-0.257796 -0.530926 2.36384
0.0644864 -0.527131 2.42411
0.22739 -0.401493 2.47843
-0.138573 -0.463579 2.29826
-0.0129571 -0.164074 2.63767
0.331447 -0.38486 2.4254
0.170177 -0.517183 2.47739
0.4094 -0.491609 2.45556
0.366404 -0.270264 2.52371
-0.131947 -0.12907 2.59676
0.677699 -0.459322 2.69123
-0.0126484 -0.436012 2.32214
