ply
    format ascii 1.0           
    element vertex 14
    property double x           
    property double y           
    property double z           
    end_header
-0.39005 0.464095 1.78379
-0.405469 0.860567 1.63632
-0.520943 0.386657 1.90923
-0.367914 0.758567 1.65954
-0.675264 0.431449 1.82138
-0.596557 0.569453 1.74546
-0.336574 0.836389 1.64194
-0.41718 0.697674 1.62621
-0.543444 0.772417 1.65481
-0.507701 0.928109 1.71379
-0.244983 0.417331 1.85214
-0.423215 0.939724 1.63524
-0.30268 0.511686 1.6608
-0.211129 0.300391 1.97643
