ply
    format ascii 1.0           
    element vertex 16
    property double x           
    property double y           
    property double z           
    end_header
-0.243675 0.516832 0.983587
-0.216289 0.556493 0.99238
-0.310528 0.229577 1.13844
-0.220733 0.455073 0.995679
-0.280541 0.453972 0.979605
-0.201856 0.501701 0.984662
-0.32753 0.464345 0.997802
-0.337653 0.422689 1.03926
-0.137254 0.293806 1.04828
-0.145216 0.247241 1.09796
-0.254363 0.564189 0.983179
-0.181338 0.306982 0.994689
-0.355965 0.285148 1.05913
-0.233212 0.282769 1.0198
-0.402094 0.215748 1.12462
-0.0828238 0.262576 1.0616
