ply
    format ascii 1.0           
    element vertex 18
    property double x           
    property double y           
    property double z           
    end_header
-0.549635 1.25031 2.46485
-0.509753 1.35098 2.50584
-0.7151 0.589531 2.80224
-0.892093 0.628866 2.62693
-0.60853 1.08854 2.41743
-0.389851 1.01912 2.71918
-0.785223 0.831106 2.55244
-0.45657 1.23258 2.5029
-0.531465 1.03506 2.45323
-0.718335 1.11518 2.44642
-0.762296 1.01327 2.51166
-0.7199 1.32885 2.53851
-0.45945 0.47381 3.01214
-0.321714 0.518803 3.00189
-0.483811 0.73075 2.56004
-0.89468 0.53545 2.71431
-0.193013 0.725651 2.76809
-0.676673 0.961844 2.45576
