ply
    format ascii 1.0           
    element vertex 31
    property double x           
    property double y           
    property double z           
    end_header
-0.148542 -1.9443 8.68254
2.47405 -2.56146 8.0566
2.39382 -1.25969 8.21803
2.75825 -1.52413 8.06995
-0.63311 -0.931669 8.60381
-0.943114 -0.714834 8.92977
-0.186412 -2.95174 8.59209
-0.0454605 -1.24273 8.6451
1.99843 -1.18005 8.22046
-0.46958 -1.62177 8.65978
1.19424 -1.49861 7.83684
-0.28724 -0.683082 8.78154
1.40279 -1.71899 7.5343
-0.484085 -2.35685 8.09415
2.27597 -1.50954 8.01881
1.72535 -1.38269 7.89964
2.54438 -2.2183 7.70589
1.86879 -1.78959 7.67882
0.101167 -0.900631 8.84913
-0.846414 -1.41184 8.83312
0.883748 -1.78703 7.68219
1.43935 -2.19331 7.79671
0.346718 -2.66337 8.20545
0.672829 -2.90282 8.33563
-0.943408 -1.17503 9.0305
2.55947 -1.838 7.79464
1.06497 -2.45725 7.70324
1.56863 -2.67389 8.0072
0.602928 -1.36282 7.90854
1.20024 -1.08846 8.37276
0.840272 -1.06735 8.83373
