ply
    format ascii 1.0           
    element vertex 12
    property double x           
    property double y           
    property double z           
    end_header
0.0816509 -0.325467 1.83836
0.389629 -0.362049 1.66733
-0.0720984 -0.164588 1.70617
0.129111 -0.358742 1.52675
-0.0495769 -0.267774 1.68936
-0.0197881 -0.137522 1.76527
0.263668 -0.305912 1.59006
-0.0575571 -0.508443 1.84366
0.315017 -0.285494 1.50716
0.12702 -0.475256 1.65435
0.187862 -0.377719 1.49119
0.287347 -0.457683 1.66553
