ply
    format ascii 1.0           
    element vertex 26
    property double x           
    property double y           
    property double z           
    end_header
0.0811733 -0.116985 2.71629
-0.396764 -0.497391 2.88517
-0.0132957 -0.37483 2.59095
-0.460498 -0.336202 2.81797
0.291856 -0.519107 2.72168
-0.092303 -0.569275 2.70111
-0.231946 -0.527342 2.74569
0.745883 -0.231782 2.88463
0.56344 -0.490549 2.75486
0.193703 -0.226328 2.8294
0.675313 -0.358538 2.77531
0.392733 -0.401192 2.68357
-0.24335 -0.326768 2.57755
0.139876 -0.556683 2.71272
0.125489 -0.360464 2.68271
0.315403 -0.250235 2.80339
-0.109162 -0.239167 2.59448
0.439789 -0.212276 2.73136
-0.57848 -0.245497 2.95485
-0.44123 -0.172524 2.76903
0.827667 -0.402543 2.96819
0.699337 -0.513627 2.88571
0.418628 -0.548429 2.77569
0.0092184 -0.485389 2.69432
-0.12555 -0.389844 2.67026
0.333891 -0.64333 2.89311
