ply
    format ascii 1.0           
    element vertex 21
    property double x           
    property double y           
    property double z           
    end_header
0.453901 -0.352798 2.8005
0.324613 -0.422034 3.11963
-0.0588042 -0.950839 3.07511
-0.0290109 -0.383534 3.10216
0.232773 -0.689304 2.68412
1.07261 -0.618593 3.15354
-0.160588 -0.505876 3.03171
-0.125992 -0.213224 3.26449
0.454803 -0.505406 2.55903
0.56348 -0.406137 2.76669
0.854855 -0.676591 2.8251
1.12853 -0.744491 3.21872
0.0159672 -0.267401 3.33296
0.459616 -0.640546 2.6205
0.129273 -0.824728 2.85877
0.232667 -0.920907 2.98603
0.351495 -0.723094 2.57549
0.547712 -0.857078 2.95421
0.198775 -0.413583 2.72657
0.010136 -0.711219 2.89283
0.582577 -0.659371 2.66626
