ply
    format ascii 1.0           
    element vertex 18
    property double x           
    property double y           
    property double z           
    end_header
-0.346369 -0.567987 2.39676
-0.0413462 -0.530234 2.14707
-0.394293 -0.457188 2.3144
0.203627 -0.609449 2.29763
0.437826 -0.347629 2.24947
-0.204882 -0.20068 2.2881
-0.0507354 -0.529579 2.21125
0.562096 -0.353976 2.3444
-0.298119 -0.43286 2.2162
-0.22595 -0.496469 2.16524
0.0712736 -0.501222 2.2123
0.220342 -0.392866 2.25326
-0.118015 -0.429672 2.10804
0.31557 -0.371897 2.21685
-0.49063 -0.359153 2.41035
0.384541 -0.471185 2.24483
0.3501 -0.273803 2.31461
-0.110485 -0.280264 2.12755
