ply
    format ascii 1.0           
    element vertex 14
    property double x           
    property double y           
    property double z           
    end_header
0.015376 -0.148779 1.23435
0.0746921 -0.0869394 1.17395
-0.0455016 -0.334762 1.29615
0.0592115 -0.20673 1.15958
0.314934 -0.174456 1.21172
0.142142 -0.143203 1.1845
-0.0667818 -0.27725 1.31999
0.18269 -0.131899 1.13757
0.0162342 -0.286025 1.2649
0.25781 -0.140594 1.15678
0.105546 -0.219105 1.15211
-0.0163035 -0.213657 1.19816
0.111559 -0.268148 1.17651
0.182337 -0.19051 1.16022
