ply
    format ascii 1.0           
    element vertex 16
    property double x           
    property double y           
    property double z           
    end_header
-0.754738 2.02944 3.74584
-0.996691 0.838456 3.93092
-0.730769 2.14145 3.78231
-1.15866 1.03253 3.77128
-0.785877 1.7961 3.64864
-0.897006 2.01191 3.70022
-0.632148 2.0122 3.82648
-0.949281 1.77671 3.59349
-0.382334 1.37309 4.22808
-0.439169 1.17275 4.23853
-0.418216 1.3948 3.89171
-0.430692 0.907835 4.43138
-0.973877 1.16084 3.71178
-0.571324 1.26768 3.84962
-1.14499 0.879894 3.82001
-0.222912 1.28227 4.26205
