ply
    format ascii 1.0           
    element vertex 22
    property double x           
    property double y           
    property double z           
    end_header
-0.175152 -0.561754 2.59691
0.422343 -0.358332 2.20097
0.62252 -0.555616 2.1773
0.948281 -0.407336 2.46935
-0.124024 -0.287669 2.28323
-0.21916 -0.221137 2.38732
0.0111055 -0.817886 2.42951
0.566601 -0.338767 2.25934
-0.157113 -0.695883 2.59888
0.436408 -0.503212 2.08261
-0.0630655 -0.687846 2.2884
0.63973 -0.420376 2.199
0.505164 -0.403463 2.16554
0.738864 -0.619831 2.21174
0.546472 -0.50742 2.11814
0.058744 -0.264959 2.36897
0.614671 -0.715752 2.38576
0.315322 -0.54536 2.20896
0.243114 -0.804544 2.37482
0.726262 -0.508354 2.17596
0.352527 -0.69315 2.15954
0.363064 -0.306411 2.2986
