ply
    format ascii 1.0           
    element vertex 19
    property double x           
    property double y           
    property double z           
    end_header
0.265125 -0.295239 1.69561
0.423554 -0.446934 1.69237
0.180565 -0.330634 1.84987
-0.0594117 -0.653243 1.87878
-0.0424774 -0.299973 1.82092
0.627115 -0.431385 1.86691
0.384823 -0.279432 1.76502
-0.126353 -0.377053 1.805
-0.101631 -0.186471 1.84826
-0.197418 -0.56453 2.04327
0.520542 -0.495674 1.73379
0.365119 -0.40837 1.63363
0.656142 -0.504587 1.90394
0.280379 -0.490678 1.6571
0.0603445 -0.591849 1.77239
0.124393 -0.638951 1.84015
0.502548 -0.410639 1.68411
0.321696 -0.606893 1.80658
0.10754 -0.334812 1.65918
