ply
    format ascii 1.0           
    element vertex 21
    property double x           
    property double y           
    property double z           
    end_header
-0.000580544 -0.185132 5.63213
-0.190426 -0.717428 5.1932
-1.15337 -0.633733 5.81871
0.439341 -1.02555 5.54335
-0.364766 -1.11472 5.50686
-0.659911 -1.03132 5.63162
-0.872515 -0.497033 5.49159
1.26196 -0.704094 5.7954
0.645296 -0.779332 5.47122
-0.655777 -0.606042 5.16847
0.0988109 -0.706229 5.4514
0.508222 -0.478581 5.8225
-0.381766 -0.440084 5.17932
0.77259 -0.395428 5.71787
-1.41497 -0.43135 6.15687
-1.09228 -0.278401 5.64756
0.344806 -0.719924 5.63723
0.840998 -0.204129 6.06196
1.57511 -0.784422 6.26834
0.698472 -1.08678 5.75649
-0.141047 -0.946627 5.4401
