ply
    format ascii 1.0           
    element vertex 18
    property double x           
    property double y           
    property double z           
    end_header
0.313706 -0.395905 1.42581
0.0775189 -0.277815 1.50562
-0.228091 -0.218045 1.50906
-0.134578 -0.602819 1.5747
-0.121631 -0.277101 1.57021
0.038963 -0.461581 1.4063
-0.195326 -0.346401 1.53136
-0.175252 -0.167326 1.5814
0.186001 -0.365551 1.38843
-0.187387 -0.522892 1.53408
0.329247 -0.302213 1.46162
0.404121 -0.448059 1.47378
0.258204 -0.353457 1.37639
0.532871 -0.46956 1.63478
-0.106196 -0.211473 1.63758
0.180602 -0.433465 1.38987
-0.0239699 -0.542551 1.49232
0.388307 -0.360198 1.43133
