ply
    format ascii 1.0           
    element vertex 21
    property double x           
    property double y           
    property double z           
    end_header
-0.0321809 -0.509101 3.61694
-0.664373 -0.431097 3.98747
0.403092 -0.717454 3.83184
0.862652 -0.26632 3.98262
-0.147114 -0.772295 3.80697
-0.342341 -0.710251 3.87005
1.07869 -0.311932 4.12327
-0.487416 -0.348331 3.78283
0.54616 -0.554316 3.76776
-0.347805 -0.435598 3.56597
0.183071 -0.763087 3.84058
0.171628 -0.494109 3.79511
0.462728 -0.331744 4.01579
-0.161151 -0.317077 3.60075
0.63842 -0.28594 3.91272
-0.635075 -0.183799 3.92197
0.342071 -0.505566 3.87775
0.740563 -0.463345 3.83987
-0.146085 -0.0676341 3.71182
1.19239 -0.542959 4.26533
-0.187563 -0.526531 3.76322
