ply
    format ascii 1.0           
    element vertex 20
    property double x           
    property double y           
    property double z           
    end_header
-0.394471 -0.635865 2.71298
-0.0329972 -0.588084 2.30621
-0.447813 -0.509913 2.56787
0.500386 -0.371299 2.40521
-0.0991189 -0.731282 2.52886
0.648727 -0.373993 2.54143
0.14039 -0.409695 2.46262
-0.329571 -0.483371 2.39939
-0.242095 -0.556415 2.31891
0.0942039 -0.551499 2.38834
-0.122886 -0.478297 2.2352
0.362975 -0.402483 2.36897
-0.566949 -0.396354 2.70043
-0.432684 -0.37392 2.48663
0.202258 -0.539919 2.45697
0.40801 -0.289197 2.4901
-0.121542 -0.146866 2.73917
-0.120187 -0.3159 2.25055
0.745304 -0.483878 2.74152
0.0053384 -0.453455 2.24928
