ply
    format ascii 1.0           
    element vertex 17
    property double x           
    property double y           
    property double z           
    end_header
0.0182061 -0.194195 1.45897
-0.207983 -0.34705 1.58137
-0.022022 -0.335778 1.43875
-0.239557 -0.285034 1.53368
0.126729 -0.37086 1.52801
0.271021 -0.212235 1.50442
-0.0576403 -0.401772 1.52478
-0.180451 -0.273995 1.47003
0.313547 -0.284696 1.52787
0.172126 -0.324622 1.48728
0.0447863 -0.312314 1.48243
0.13756 -0.241097 1.51393
-0.0702458 -0.27701 1.41318
0.196228 -0.23107 1.48419
0.212571 -0.165167 1.52857
-0.0692192 -0.18392 1.41794
0.383489 -0.268231 1.60966
