ply
    format ascii 1.0           
    element vertex 14
    property double x           
    property double y           
    property double z           
    end_header
0.107299 -0.214079 1.80208
-0.094567 -0.0423904 1.60936
0.171496 -0.314609 1.44151
-0.0621318 -0.182713 1.60147
-0.0273141 0.0095731 1.68
0.348614 -0.214012 1.52916
-0.0581088 -0.482249 1.76477
0.517632 -0.166693 1.606
0.411168 -0.206493 1.41981
0.720559 -0.353822 1.68619
0.490958 -0.419456 1.69946
0.170295 -0.449979 1.59299
0.559329 -0.221759 1.48176
0.2506 -0.33885 1.41084
