ply
    format ascii 1.0           
    element vertex 21
    property double x           
    property double y           
    property double z           
    end_header
-0.0324692 -0.402041 1.71782
0.154333 -0.457645 1.82542
0.341271 -0.254238 1.80165
-0.0791034 -0.492025 1.81392
-0.164419 -0.463654 1.82364
0.437046 -0.257505 1.86925
-0.231669 -0.324041 1.75636
0.391145 -0.351307 1.8346
0.215323 -0.398397 1.77762
-0.171663 -0.376261 1.71025
0.0527842 -0.37563 1.77181
-0.0921451 -0.324787 1.68766
0.243343 -0.2736 1.77165
-0.231767 -0.114368 1.86502
-0.37436 -0.261858 1.87722
-0.296295 -0.243102 1.78245
0.126552 -0.370165 1.80727
0.269297 -0.196139 1.83693
-0.168052 -0.261005 1.67964
0.484781 -0.33097 1.9483
-0.00458871 -0.309007 1.71125
