ply
    format ascii 1.0           
    element vertex 18
    property double x           
    property double y           
    property double z           
    end_header
0.537162 -0.351564 2.08011
0.226865 -0.177332 2.27524
-0.306691 -0.00398154 2.30021
-0.0667843 -0.147204 2.22659
0.138481 -0.428774 2.04346
0.806911 -0.381931 2.26478
-0.133596 -0.0016513 2.29318
-0.155561 -0.512378 1.97145
0.65788 -0.436062 2.11503
0.454468 -0.28897 2.00266
0.835799 -0.483269 2.29481
0.337892 -0.395306 2.01714
0.0427426 -0.526665 2.15577
0.127852 -0.605381 2.20334
0.643028 -0.309641 2.06826
0.243571 -0.463838 2.00677
0.392782 -0.562029 2.20827
0.120983 -0.176944 2.06366
