ply
    format ascii 1.0           
    element vertex 15
    property double x           
    property double y           
    property double z           
    end_header
-1.07782 -2.73212 16.6785
0.00191975 -0.00104015 0.00598733
0.00489084 -0.00228358 0.0334848
-6.74616e-05 -0.00311691 0.0111545
0.0088251 -0.00341655 0.0209075
-0.00034255 -0.00115677 0.0100976
0.00271734 -0.000871603 0.00837729
0.000749193 -0.00101748 0.00423495
0.00296481 -0.00331701 0.0127046
0.00297599 -0.00165043 0.00794439
0.0052199 -0.00444073 0.0180054
0.00107242 -0.000947835 0.00476688
0.000659859 -0.000517926 0.00602714
0.000508137 -0.00190993 0.0075797
0.00109423 -0.00291755 0.0103269
