ply
    format ascii 1.0           
    element vertex 19
    property double x           
    property double y           
    property double z           
    end_header
-1.62314 5.5486 9.58442
-1.92577 2.90299 10.0176
-1.39606 5.24356 8.92159
-3.22501 4.30123 12.0551
-2.81323 7.57237 13.0976
-0.177256 2.1632 5.90574
-2.06763 5.76939 9.825
-2.36751 7.18142 13.0814
-2.32967 4.98294 10.1054
-1.76199 4.69531 8.34084
-0.215321 2.5593 7.30213
-0.3138 2.37895 7.53263
-1.71551 5.60812 9.21537
-0.197309 1.83066 7.10361
-2.64683 4.5772 11.7039
-1.5 4.74318 11.6274
-2.31211 3.02502 10.0047
0.00506991 2.3274 7.11011
-3.33892 7.45575 14.1277
