ply
    format ascii 1.0           
    element vertex 21
    property double x           
    property double y           
    property double z           
    end_header
-0.0574838 -0.589938 2.43166
-0.46443 -0.496698 2.62376
0.48182 -0.363688 2.54126
-0.247508 -0.206827 2.5745
-0.125404 -0.719601 2.61899
-0.250101 -0.677544 2.60773
0.621687 -0.363709 2.64746
-0.348627 -0.475085 2.49663
0.563966 -0.502348 2.60797
-0.269411 -0.550014 2.44623
0.0664067 -0.546779 2.50952
0.236234 -0.416364 2.56724
-0.144996 -0.479483 2.37851
-0.0142702 -0.169792 2.7345
0.344778 -0.398761 2.51223
0.176497 -0.536878 2.56527
0.425882 -0.510299 2.54303
0.38118 -0.280037 2.61553
-0.138197 -0.132915 2.69194
0.705215 -0.478529 2.78925
-0.0137584 -0.451035 2.40377
