ply
    format ascii 1.0           
    element vertex 12
    property double x           
    property double y           
    property double z           
    end_header
0.0121056 -0.289722 1.31167
-0.105901 -0.182593 1.21995
-0.0844427 -0.257921 1.22916
-0.071323 -0.145672 1.2623
-0.0866108 -0.405047 1.37364
0.24742 -0.244467 1.23484
0.197806 -0.271664 1.13452
0.371063 -0.328038 1.31533
0.0584735 -0.401223 1.25292
0.280647 -0.273282 1.1754
0.108903 -0.351465 1.13224
0.173682 -0.386711 1.24928
