ply
    format ascii 1.0           
    element vertex 24
    property double x           
    property double y           
    property double z           
    end_header
1.09386 -0.937494 6.68636
1.66628 -1.50612 6.64751
3.3896 -1.51796 9.81221
1.9429 -1.00135 7.43335
-0.4551 -0.718761 7.1127
-0.781706 -0.57631 7.99979
2.78689 -1.7503 8.35074
0.893976 -1.08898 6.22601
-0.230817 -0.580747 7.6042
-0.266887 -1.7103 5.89275
1.73703 -1.1475 6.80991
1.33252 -1.04739 6.61697
1.39087 -1.29261 6.21813
3.10442 -2.21165 9.04807
0.0702359 -0.735864 8.06271
-0.87829 -1.44751 9.95589
1.91985 -2.37008 8.53784
0.801919 -1.47598 7.05605
1.10121 -1.62376 6.44361
1.97586 -1.39182 6.68992
0.845745 -1.8241 6.43517
0.477374 -1.00453 6.3149
0.487423 -1.74597 7.97943
0.975952 -0.859323 7.34408
