ply
    format ascii 1.0           
    element vertex 21
    property double x           
    property double y           
    property double z           
    end_header
0.482046 -0.304318 1.79748
0.212719 -0.148291 1.98189
0.540403 -0.131899 1.90815
0.599555 -0.194073 1.81759
-0.177722 -0.0441787 1.88707
-0.256286 0.00559225 1.96374
-0.0813871 -0.529753 1.96413
-0.0479036 -0.121179 1.91456
0.700896 -0.318431 1.9114
-0.21336 -0.440241 2.05765
-0.12742 -0.452277 1.72352
0.508678 -0.195239 1.84896
0.5834 -0.375036 1.81725
0.413423 -0.253347 1.74269
0.727357 -0.404785 1.94133
0.46068 -0.464898 1.9222
0.124616 -0.524827 1.91514
0.57275 -0.267393 1.78235
0.227466 -0.409609 1.75781
0.356456 -0.48697 1.9189
0.116872 -0.151337 1.77828
