ply
    format ascii 1.0           
    element vertex 33
    property double x           
    property double y           
    property double z           
    end_header
0.29542 -1.66496 12.7163
2.13102 -1.14214 13.4702
3.30702 -2.3882 12.9801
4.58722 -1.58661 12.9695
3.38932 -3.01509 12.1358
3.40292 -1.14641 12.5499
4.00623 -1.58136 12.738
-1.06802 -0.508294 12.5892
-1.54224 -0.142242 12.7455
-0.490703 -3.44712 12.689
-0.248666 -0.976579 13.034
0.966604 -2.90165 13.353
-0.865885 -1.51828 12.7694
-0.479272 -0.219376 11.5286
-1.29356 -2.76543 12.9661
-0.362974 -2.15295 7.76949
3.3096 -1.54653 12.5139
3.70366 -2.6477 12.1241
2.9385 -2.08076 13.0181
4.44132 -2.71062 12.5679
0.00524066 -0.49133 12.089
-1.4181 -1.16959 12.7602
2.91326 -3.17797 12.8709
1.35176 -2.04814 12.8681
2.12431 -2.61956 12.5428
0.352437 -3.18672 12.6947
0.793482 -3.45877 12.5673
-1.48566 -0.803948 12.3733
3.85379 -2.10854 12.6862
1.57231 -3.06258 12.5964
0.618854 -2.14452 12.5713
1.6555 -0.833893 12.5637
0.997663 -0.748546 12.0197
