ply
    format ascii 1.0           
    element vertex 17
    property double x           
    property double y           
    property double z           
    end_header
-0.398066 1.08005 2.08378
-0.60094 0.426693 2.40217
-0.347251 0.961088 2.1178
-0.70652 0.552893 2.31235
-0.614203 0.719786 2.20945
-0.316811 1.0606 2.11373
-0.382199 0.88719 2.08309
-0.49614 0.741481 2.16021
-0.548735 0.96183 2.08306
-0.587821 0.86107 2.12111
-0.544611 1.1571 2.16952
-0.166102 0.67752 2.35513
-0.103214 0.72242 2.1858
-0.170752 0.444635 2.63688
-0.596226 0.601758 2.21393
-0.70256 0.464924 2.37357
-0.512359 0.82609 2.08822
