ply
    format ascii 1.0           
    element vertex 17
    property double x           
    property double y           
    property double z           
    end_header
0.0717741 -0.24055 1.29534
-0.194123 -0.177218 1.27074
-0.25955 -0.13676 1.33301
-0.116274 -0.506924 1.33737
0.0369334 -0.40193 1.20525
0.435704 -0.332184 1.33811
-0.167462 -0.286688 1.28952
0.162096 -0.311654 1.15548
-0.157056 -0.425686 1.26549
0.2905 -0.264832 1.24541
0.230261 -0.313925 1.17902
0.161086 -0.381647 1.19238
-0.0195354 -0.464384 1.27444
0.0297607 -0.500603 1.32585
0.105763 -0.428925 1.18102
0.188358 -0.478797 1.30935
0.023316 -0.253441 1.19537
