ply
    format ascii 1.0           
    element vertex 19
    property double x           
    property double y           
    property double z           
    end_header
-0.145406 -0.259831 1.111
0.217332 -0.261971 0.971845
-0.115712 -0.138307 0.974269
-0.161104 -0.110212 1.0105
-0.0606852 -0.374318 1.05895
-0.050676 -0.173008 1.01408
0.0472427 -0.305113 0.962822
-0.09682 -0.216451 1.00583
-0.0823671 -0.106398 0.999518
-0.0912951 -0.328478 1.02889
0.185501 -0.240313 0.938206
-0.0408156 -0.131586 1.03349
0.209303 -0.33633 1.0564
0.136009 -0.288756 0.955197
0.0072072 -0.345508 1.01586
0.0429571 -0.369536 1.04797
0.264559 -0.241357 0.969177
0.0966902 -0.326769 0.95156
0.0354127 -0.195851 0.937755
