ply
    format ascii 1.0           
    element vertex 29
    property double x           
    property double y           
    property double z           
    end_header
0.540848 -0.237767 2.45602
0.301612 -0.300839 2.44433
0.251353 -0.630992 2.41745
0.519981 -0.344342 2.37388
-0.207304 -0.183148 2.37399
-0.0858554 -0.688673 2.4289
-0.501088 -0.506477 2.51701
-0.208338 -0.647338 2.41844
0.492968 -0.587329 2.45899
0.152176 -0.37901 2.38269
-0.0447131 -0.218236 2.33095
-0.313011 -0.456118 2.33857
0.188837 -0.269417 2.46836
0.590959 -0.473016 2.3967
0.336706 -0.554992 2.36851
0.114738 -0.66749 2.45617
0.103225 -0.527876 2.34842
0.274368 -0.394407 2.39053
-0.111503 -0.469728 2.24925
0.025794 -0.140317 2.47488
0.380303 -0.378728 2.33852
-0.308354 -0.133179 2.46431
-0.514635 -0.34832 2.47655
-0.408908 -0.336766 2.37489
-0.0966305 -0.105358 2.43177
-0.220146 -0.372675 2.21725
-0.109187 -0.295219 2.25358
-0.438747 -0.213622 2.46068
0.021437 -0.439122 2.26635
