ply
    format ascii 1.0           
    element vertex 19
    property double x           
    property double y           
    property double z           
    end_header
-0.446987 1.66914 2.68875
-0.690976 0.792037 3.01013
-0.423639 1.76042 2.70671
-0.814741 0.930588 2.85299
-0.486374 1.4953 2.65769
-0.701897 1.18928 2.80801
-0.568773 1.66817 2.67661
-0.347068 1.63973 2.72476
-0.538666 1.22596 2.76733
-0.681978 1.39421 2.7552
-0.662228 1.75202 2.76624
-0.166029 1.14779 2.99238
-0.211856 1.01169 3.08214
-0.504331 1.77251 2.66521
-0.192724 1.15233 2.78998
-0.372651 0.776181 3.25931
-0.822252 0.83787 2.96798
-0.557512 1.34295 2.69846
-0.575083 1.79576 2.69706
