ply
    format ascii 1.0           
    element vertex 12
    property double x           
    property double y           
    property double z           
    end_header
-0.257436 0.200477 1.06703
-0.138691 0.679389 0.991247
-0.165559 0.553846 0.959385
-0.191604 0.687199 1.05728
-0.232481 0.548181 0.934875
0.00111761 0.390842 1.13887
-0.0223401 0.328634 1.16737
-0.240314 0.366982 1.15752
-0.0858558 0.364889 1.0617
-0.317437 0.212093 1.02146
0.0618239 0.362832 1.17691
-0.20637 0.692882 0.974429
