ply
    format ascii 1.0           
    element vertex 28
    property double x           
    property double y           
    property double z           
    end_header
0.0985656 -0.821519 4.0634
0.248742 -0.494616 4.16499
1.30484 -0.703975 4.05885
1.57684 -1.12403 4.56226
0.593904 -0.272424 4.01861
1.40738 -0.285857 4.25645
-0.256387 -0.113744 4.30348
-0.449059 0.000760883 4.57714
-0.0174342 -1.24669 4.45969
0.502827 -0.908556 4.1652
-0.170355 -0.509499 4.46923
0.74893 -0.410557 3.91342
-0.347674 -1.13583 5.12724
0.866167 -0.525998 3.76195
-0.187872 -1.47388 5.38943
1.32875 -0.422535 4.08523
1.12777 -0.570447 3.91253
0.133483 -0.11685 4.66381
0.603851 -0.576267 3.9152
0.87239 -0.76937 3.86913
0.289993 -1.07064 4.24953
-0.457782 -0.268722 4.71076
1.51332 -0.605962 4.03683
0.724353 -1.15976 4.1361
0.696867 -0.946684 3.94248
1.02228 -1.13975 4.37011
0.427091 -0.339257 3.94435
0.355408 -0.634025 3.96211
