ply
    format ascii 1.0           
    element vertex 22
    property double x           
    property double y           
    property double z           
    end_header
0.497122 -0.307411 1.81189
0.221925 -0.148557 2.00273
0.557417 -0.131488 1.92794
0.617639 -0.194791 1.83398
-0.177347 -0.0418988 1.90411
-0.257766 0.00880123 1.98352
-0.0791384 -0.538314 1.98034
-0.0446935 -0.120674 1.93227
0.721631 -0.322339 1.93049
-0.103305 0.0108836 1.95105
-0.214068 -0.447294 2.07693
-0.125875 -0.457963 1.7322
0.52466 -0.196102 1.86604
0.600865 -0.37978 1.83226
0.426839 -0.255117 1.75542
0.748793 -0.410818 1.96105
0.475419 -0.472096 1.93973
0.131466 -0.533131 1.93064
0.589974 -0.269622 1.79689
0.236575 -0.414717 1.76923
0.368689 -0.494589 1.93575
0.123748 -0.151049 1.79191
